<?xml version="1.0" encoding="UTF-8" standalone="no"?>
<!-- Created with Inkscape (http://www.inkscape.org/) -->

<svg
   width="90mm"
   height="90mm"
   viewBox="0 0 90 90"
   version="1.1"
   id="svg1"
   xml:space="preserve"
   sodipodi:docname="Logo negro - Copy.svg"
   inkscape:version="1.4.3 (0d15f75, 2025-12-25)"
   xmlns:inkscape="http://www.inkscape.org/namespaces/inkscape"
   xmlns:sodipodi="http://sodipodi.sourceforge.net/DTD/sodipodi-0.dtd"
   xmlns="http://www.w3.org/2000/svg"
   xmlns:svg="http://www.w3.org/2000/svg"><sodipodi:namedview
     id="namedview1"
     pagecolor="#ffffff"
     bordercolor="#000000"
     borderopacity="0.25"
     inkscape:showpageshadow="2"
     inkscape:pageopacity="0.0"
     inkscape:pagecheckerboard="0"
     inkscape:deskcolor="#d1d1d1"
     inkscape:document-units="mm"
     showguides="true"
     inkscape:zoom="2"
     inkscape:cx="179.25"
     inkscape:cy="187.75"
     inkscape:window-width="1920"
     inkscape:window-height="1094"
     inkscape:window-x="-11"
     inkscape:window-y="-11"
     inkscape:window-maximized="1"
     inkscape:current-layer="svg1" /><defs
     id="defs1"><inkscape:path-effect
       effect="fillet_chamfer"
       id="path-effect2"
       is_visible="true"
       lpeversion="1"
       nodesatellites_param="F,0,0,1,0,0,0,1 @ F,0,0,1,0,0,0,1 @ F,0,0,1,0,0,0,1 @ F,0,0,1,0,0,0,1 @ F,0,0,1,0,0,0,1 @ F,0,0,1,0,0,0,1 @ F,0,0,1,0,0,0,1 @ F,0,0,1,0,0,0,1 @ F,0,0,1,0,0,0,1 @ F,0,0,1,0,0,0,1 | F,0,0,1,0,0,0,1 @ F,0,0,1,0,0,0,1 @ F,0,0,1,0,0,0,1 @ F,0,0,1,0,0,0,1 @ F,0,0,1,0,0,0,1 @ F,0,0,1,0,0,0,1 @ F,0,0,1,0,0,0,1 @ F,0,0,1,0,0,0,1 @ F,0,0,1,0,0,0,1 @ F,0,0,1,0,0,0,1 @ F,0,0,1,0,0,0,1 @ F,0,0,1,0,0,0,1 @ F,0,0,1,0,0,0,1 @ F,0,0,1,0,0,0,1 @ F,0,0,1,0,0,0,1 @ F,0,0,1,0,0,0,1 @ F,0,0,1,0,0,0,1 @ F,0,0,1,0,0,0,1 @ F,0,0,1,0,0,0,1 @ F,0,0,1,0,0,0,1 @ F,0,0,1,0,0,0,1 @ F,0,0,1,0,0,0,1 @ F,0,0,1,0,0,0,1 @ F,0,0,1,0,0,0,1 @ F,0,0,1,0,0,0,1 @ F,0,0,1,0,0,0,1 @ F,0,0,1,0,0,0,1 @ F,0,0,1,0,0,0,1 @ F,0,0,1,0,0,0,1 @ F,0,0,1,0,0,0,1 @ F,0,0,1,0,0,0,1 @ F,0,0,1,0,0,0,1 @ F,0,0,1,0,0,0,1 @ F,0,0,1,0,0,0,1 @ F,0,0,1,0,0,0,1 @ F,0,0,1,0,0,0,1 @ F,0,0,1,0,0,0,1 @ F,0,0,1,0,0,0,1 @ F,0,0,1,0,0,0,1 @ F,0,0,1,0,0,0,1 @ F,0,0,1,0,0,0,1 @ F,0,0,1,0,0,0,1 @ F,0,0,1,0,0,0,1 @ F,0,0,1,0,0,0,1 @ F,0,0,1,0,0,0,1 @ F,0,0,1,0,0,0,1 @ F,0,0,1,0,0,0,1 @ F,0,0,1,0,0,0,1 @ F,0,0,1,0,0,0,1 @ F,0,0,1,0,0,0,1 @ F,0,0,1,0,0,0,1 @ F,0,0,1,0,0,0,1 @ F,0,0,1,0,0,0,1 @ F,0,0,1,0,0,0,1 @ F,0,0,1,0,0,0,1 @ F,0,0,1,0,0,0,1 @ F,0,0,1,0,0,0,1 @ F,0,0,1,0,0,0,1 @ F,0,0,1,0,0,0,1 @ F,0,0,1,0,0,0,1 @ F,0,0,1,0,0,0,1 @ F,0,0,1,0,0,0,1 @ F,0,0,1,0,0,0,1 @ F,0,0,1,0,0,0,1 @ F,0,0,1,0,0,0,1 @ F,0,0,1,0,0,0,1 @ F,0,0,1,0,0,0,1 @ F,0,0,1,0,0,0,1 @ F,0,0,1,0,0,0,1 @ F,0,0,1,0,0,0,1 @ F,0,0,1,0,0,0,1 @ F,0,0,1,0,0,0,1 @ F,0,0,1,0,0,0,1 @ F,0,0,1,0,0,0,1 @ F,0,0,1,0,0,0,1 @ F,0,0,1,0,0,0,1 @ F,0,0,1,0,0,0,1 @ F,0,0,1,0,0,0,1 @ F,0,0,1,0,0,0,1 @ F,0,0,1,0,0,0,1 @ F,0,0,1,0,0,0,1 @ F,0,0,1,0,0,0,1 @ F,0,0,1,0,0,0,1 @ F,0,0,1,0,0,0,1 @ F,0,0,1,0,0,0,1 @ F,0,0,1,0,0,0,1 @ F,0,0,1,0,0,0,1 @ F,0,0,1,0,0,0,1 @ F,0,0,1,0,0,0,1 @ F,0,0,1,0,0,0,1 @ F,0,0,1,0,0,0,1 @ F,0,0,1,0,0,0,1 @ F,0,0,1,0,0,0,1 @ F,0,0,1,0,0,0,1 @ F,0,0,1,0,0,0,1 @ F,0,0,1,0,0,0,1 @ F,0,0,1,0,0,0,1 @ F,0,0,1,0,0,0,1 @ F,0,0,1,0,0,0,1 @ F,0,0,1,0,0,0,1 @ F,0,0,1,0,0,0,1 @ F,0,0,1,0,0,0,1 @ F,0,0,1,0,0,0,1 @ F,0,0,1,0,0,0,1 @ F,0,0,1,0,0,0,1 @ F,0,0,1,0,0,0,1 @ F,0,0,1,0,0,0,1 @ F,0,0,1,0,0,0,1 @ F,0,0,1,0,0,0,1 @ F,0,0,1,0,0,0,1 @ F,0,0,1,0,0,0,1 @ F,0,0,1,0,0,0,1 @ F,0,0,1,0,0,0,1 @ F,0,0,1,0,0,0,1 @ F,0,0,1,0,0,0,1 @ F,0,0,1,0,0,0,1 @ F,0,0,1,0,0,0,1 @ F,0,0,1,0,0,0,1 @ F,0,0,1,0,0,0,1 @ F,0,0,1,0,0,0,1 @ F,0,0,1,0,0,0,1 @ F,0,0,1,0,0,0,1 @ F,0,0,1,0,0,0,1 @ F,0,0,1,0,0,0,1 @ F,0,0,1,0,0,0,1 @ F,0,0,1,0,0,0,1 @ F,0,0,1,0,0,0,1 @ F,0,0,1,0,0,0,1 @ F,0,0,1,0,0,0,1 @ F,0,0,1,0,0,0,1 @ F,0,0,1,0,0,0,1 @ F,0,0,1,0,0,0,1 @ F,0,0,1,0,0,0,1 @ F,0,0,1,0,0,0,1 @ F,0,0,1,0,0,0,1 @ F,0,0,1,0,0,0,1 @ F,0,0,1,0,0,0,1 @ F,0,0,1,0,0,0,1 @ F,0,0,1,0,0,0,1 @ F,0,0,1,0,0,0,1 @ F,0,0,1,0,0,0,1 @ F,0,0,1,0,0,0,1 @ F,0,0,1,0,0,0,1 @ F,0,0,1,0,0,0,1 @ F,0,0,1,0,0,0,1 @ F,0,0,1,0,0,0,1 | F,0,0,1,0,0,0,1 @ F,0,0,1,0,0,0,1 @ F,0,0,1,0,0,0,1 @ F,0,0,1,0,0,0,1 @ F,0,0,1,0,0,0,1 @ F,0,0,1,0,0,0,1 @ F,0,0,1,0,0,0,1 @ F,0,0,1,0,0,0,1 @ F,0,0,1,0,0,0,1 @ F,0,0,1,0,0,0,1 @ F,0,0,1,0,0,0,1 @ F,0,0,1,0,0,0,1 @ F,0,0,1,0,0,0,1 @ F,0,0,1,0,0,0,1 @ F,0,0,1,0,0,0,1 @ F,0,0,1,0,0,0,1 @ F,0,0,1,0,0,0,1 @ F,0,0,1,0,0,0,1 | F,0,0,1,0,0,0,1 @ F,0,0,1,0,0,0,1 @ F,0,0,1,0,0,0,1 @ F,0,0,1,0,0,0,1 @ F,0,0,1,0,0,0,1 @ F,0,0,1,0,0,0,1 @ F,0,0,1,0,0,0,1 | F,0,0,1,0,0,0,1 @ F,0,0,1,0,0,0,1 @ F,0,0,1,0,0,0,1 @ F,0,0,1,0,0,0,1 @ F,0,0,1,0,0,0,1 @ F,0,0,1,0,0,0,1 | F,0,0,1,0,0,0,1 @ F,0,0,1,0,0,0,1 @ F,0,0,1,0,0,0,1 @ F,0,0,1,0,0,0,1 @ F,0,0,1,0,0,0,1 @ F,0,0,1,0,0,0,1 @ F,0,0,1,0,0,0,1 @ F,0,0,1,0,0,0,1 @ F,0,0,1,0,0,0,1 @ F,0,0,1,0,0,0,1 @ F,0,0,1,0,0,0,1 @ F,0,0,1,0,0,0,1 @ F,0,0,1,0,0,0,1 @ F,0,0,1,0,0,0,1 @ F,0,0,1,0,0,0,1 @ F,0,0,1,0,0,0,1 @ F,0,0,1,0,0,0,1 @ F,0,0,1,0,0,0,1 @ F,0,0,1,0,0,0,1 @ F,0,0,1,0,0,0,1 @ F,0,0,1,0,0,0,1 @ F,0,0,1,0,0,0,1 @ F,0,0,1,0,0,0,1 @ F,0,0,1,0,0,0,1 @ F,0,0,1,0,0,0,1 @ F,0,0,1,0,0,0,1 @ F,0,0,1,0,0,0,1 @ F,0,0,1,0,0,0,1 @ F,0,0,1,0,0,0,1 @ F,0,0,1,0,0,0,1 @ F,0,0,1,0,0,0,1 @ F,0,0,1,0,0,0,1 @ F,0,0,1,0,0,0,1 @ F,0,0,1,0,0,0,1 @ F,0,0,1,0,0,0,1 @ F,0,0,1,0,0,0,1 @ F,0,0,1,0,0,0,1 @ F,0,0,1,0,0,0,1 @ F,0,0,1,0,0,0,1 @ F,0,0,1,0,0,0,1 @ F,0,0,1,0,0,0,1 @ F,0,0,1,0,0,0,1 @ F,0,0,1,0,0,0,1 @ F,0,0,1,0,0,0,1 @ F,0,0,1,0,0,0,1 @ F,0,0,1,0,0,0,1 @ F,0,0,1,0,0,0,1 @ F,0,0,1,0,0,0,1 @ F,0,0,1,0,0,0,1 @ F,0,0,1,0,0,0,1 @ F,0,0,1,0,0,0,1 @ F,0,0,1,0,0,0,1 | F,0,0,1,0,0,0,1 @ F,0,0,1,0,0,0,1 @ F,0,0,1,0,0,0,1 @ F,0,0,1,0,0,0,1 @ F,0,0,1,0,0,0,1 @ F,0,0,1,0,0,0,1 @ F,0,0,1,0,0,0,1 @ F,0,0,1,0,0,0,1 @ F,0,0,1,0,0,0,1 @ F,0,0,1,0,0,0,1 @ F,0,0,1,0,0,0,1 @ F,0,0,1,0,0,0,1 @ F,0,0,1,0,0,0,1 @ F,0,0,1,0,0,0,1 @ F,0,0,1,0,0,0,1 @ F,0,0,1,0,0,0,1 @ F,0,0,1,0,0,0,1 @ F,0,0,1,0,0,0,1 @ F,0,0,1,0,0,0,1 @ F,0,0,1,0,0,0,1 @ F,0,0,1,0,0,0,1 @ F,0,0,1,0,0,0,1 @ F,0,0,1,0,0,0,1 @ F,0,0,1,0,0,0,1 @ F,0,0,1,0,0,0,1 @ F,0,0,1,0,0,0,1 @ F,0,0,1,0,0,0,1 @ F,0,0,1,0,0,0,1 @ F,0,0,1,0,0,0,1 @ F,0,0,1,0,0,0,1 | F,0,0,1,0,0,0,1 @ F,0,0,1,0,0,0,1 @ F,0,0,1,0,0,0,1 @ F,0,0,1,0,0,0,1 @ F,0,0,1,0,0,0,1 @ F,0,0,1,0,0,0,1 @ F,0,0,1,0,0,0,1 @ F,0,0,1,0,0,0,1 | F,0,0,1,0,0,0,1 @ F,0,0,1,0,0,0,1 @ F,0,0,1,0,0,0,1 @ F,0,0,1,0,0,0,1 @ F,0,0,1,0,0,0,1 @ F,0,0,1,0,0,0,1 @ F,0,0,1,0,0,0,1 | F,0,0,1,0,0,0,1 @ F,0,0,1,0,0,0,1 @ F,0,0,1,0,0,0,1 @ F,0,0,1,0,0,0,1 @ F,0,0,1,0,0,0,1 @ F,0,0,1,0,0,0,1 @ F,0,0,1,0,0,0,1 @ F,0,0,1,0,0,0,1 @ F,0,0,1,0,0,0,1 @ F,0,0,1,0,0,0,1 @ F,0,0,1,0,0,0,1 @ F,0,0,1,0,0,0,1 @ F,0,0,1,0,0,0,1 @ F,0,0,1,0,0,0,1 @ F,0,0,1,0,0,0,1 @ F,0,0,1,0,0,0,1 @ F,0,0,1,0,0,0,1 @ F,0,0,1,0,0,0,1 @ F,0,0,1,0,0,0,1 @ F,0,0,1,0,0,0,1 @ F,0,0,1,0,0,0,1 @ F,0,0,1,0,0,0,1 @ F,0,0,1,0,0,0,1 @ F,0,0,1,0,0,0,1 @ F,0,0,1,0,0,0,1 @ F,0,0,1,0,0,0,1 @ F,0,0,1,0,0,0,1 @ F,0,0,1,0,0,0,1 @ F,0,0,1,0,0,0,1 @ F,0,0,1,0,0,0,1 @ F,0,0,1,0,0,0,1 @ F,0,0,1,0,0,0,1 @ F,0,0,1,0,0,0,1 @ F,0,0,1,0,0,0,1 @ F,0,0,1,0,0,0,1 @ F,0,0,1,0,0,0,1 | F,0,0,1,0,0,0,1 @ F,0,0,1,0,0,0,1 @ F,0,0,1,0,0,0,1 @ F,0,0,1,0,0,0,1 @ F,0,0,1,0,0,0,1 @ F,0,0,1,0,0,0,1 @ F,0,0,1,0,0,0,1 @ F,0,0,1,0,0,0,1 @ F,0,0,1,0,0,0,1 @ F,0,0,1,0,0,0,1 | F,0,0,1,0,0,0,1 @ F,0,0,1,0,0,0,1 @ F,0,0,1,0,0,0,1 @ F,0,0,1,0,0,0,1 @ F,0,0,1,0,0,0,1 @ F,0,0,1,0,0,0,1 @ F,0,0,1,0,0,0,1 @ F,0,0,1,0,0,0,1 @ F,0,0,1,0,0,0,1 @ F,0,0,1,0,0,0,1 | F,0,0,1,0,0,0,1 @ F,0,0,1,0,0,0,1 @ F,0,0,1,0,0,0,1 @ F,0,0,1,0,0,0,1 @ F,0,0,1,0,0,0,1 @ F,0,0,1,0,0,0,1 @ F,0,0,1,0,0,0,1 @ F,0,0,1,0,0,0,1 @ F,0,0,1,0,0,0,1 @ F,0,0,1,0,0,0,1 @ F,0,0,1,0,0,0,1 @ F,0,0,1,0,0,0,1 @ F,0,0,1,0,0,0,1 @ F,0,0,1,0,0,0,1 @ F,0,0,1,0,0,0,1 @ F,0,0,1,0,0,0,1 @ F,0,0,1,0,0,0,1 @ F,0,0,1,0,0,0,1 @ F,0,0,1,0,0,0,1 @ F,0,0,1,0,0,0,1 @ F,0,0,1,0,0,0,1 @ F,0,0,1,0,0,0,1 @ F,0,0,1,0,0,0,1 @ F,0,0,1,0,0,0,1 @ F,0,0,1,0,0,0,1 @ F,0,0,1,0,0,0,1 @ F,0,0,1,0,0,0,1 @ F,0,0,1,0,0,0,1 @ F,0,0,1,0,0,0,1 @ F,0,0,1,0,0,0,1 @ F,0,0,1,0,0,0,1 @ F,0,0,1,0,0,0,1 @ F,0,0,1,0,0,0,1 @ F,0,0,1,0,0,0,1 @ F,0,0,1,0,0,0,1 @ F,0,0,1,0,0,0,1 @ F,0,0,1,0,0,0,1 @ F,0,0,1,0,0,0,1 @ F,0,0,1,0,0,0,1 | F,0,0,1,0,0,0,1 @ F,0,0,1,0,0,0,1 @ F,0,0,1,0,0,0,1 @ F,0,0,1,0,0,0,1 @ F,0,0,1,0,0,0,1 @ F,0,0,1,0,0,0,1 @ F,0,0,1,0,0,0,1 @ F,0,0,1,0,0,0,1 @ F,0,0,1,0,0,0,1 @ F,0,0,1,0,0,0,1 | F,0,0,1,0,0,0,1 @ F,0,0,1,0,0,0,1 @ F,0,0,1,0,0,0,1 @ F,0,0,1,0,0,0,1 @ F,0,0,1,0,0,0,1 | F,0,0,1,0,0,0,1 @ F,0,0,1,0,0,0,1 @ F,0,0,1,0,0,0,1 @ F,0,0,1,0,0,0,1 @ F,0,0,1,0,0,0,1 @ F,0,0,1,0,0,0,1 @ F,0,0,1,0,0,0,1 @ F,0,0,1,0,0,0,1 @ F,0,0,1,0,0,0,1 @ F,0,0,1,0,0,0,1 | F,0,0,1,0,0,0,1 @ F,0,0,1,0,0,0,1 @ F,0,0,1,0,0,0,1 @ F,0,0,1,0,0,0,1 @ F,0,0,1,0,0,0,1 @ F,0,0,1,0,0,0,1"
       radius="0"
       unit="px"
       method="auto"
       mode="F"
       chamfer_steps="1"
       flexible="false"
       use_knot_distance="true"
       apply_no_radius="true"
       apply_with_radius="true"
       only_selected="false"
       hide_knots="false" /></defs><path
     style="mix-blend-mode:darken;fill:#000000;fill-rule:nonzero"
     d="m 50.577498,52.08852 c 0.218281,-0.220616 1.617265,-1.498026 3.108854,-2.838689 l 2.711979,-2.437568 v -6.067582 c 0,-3.337171 -0.05879,-6.067582 -0.130646,-6.067582 -0.07186,0 -1.576371,1.078284 -3.343368,2.396187 l -3.212722,2.396188 -0.757674,-0.725897 c -0.41672,-0.399244 -0.757673,-0.871617 -0.757673,-1.049718 0,-0.178101 1.752813,-1.733404 3.895141,-3.456228 2.142328,-1.722824 4.65778,-3.757486 5.589893,-4.52147 0.932113,-0.763984 1.798671,-1.389062 1.925691,-1.389062 0.12712,0 0.23094,4.148608 0.23094,9.228019 0,7.061028 -0.0777,9.291864 -0.33073,9.499894 -0.1819,0.14953 -1.878539,1.156286 -3.77031,2.237236 -1.891771,1.080949 -3.915834,2.242569 -4.497917,2.581377 -0.582083,0.338808 -0.879739,0.435511 -0.661458,0.214895 z M 35.760831,51.066654 C 34.814946,50.501689 32.820649,49.352231 31.32906,48.512301 l -2.711979,-1.527144 v -9.329029 c 0,-5.130966 0.06011,-9.329029 0.133567,-9.329029 0.116142,0 3.346044,2.524067 9.722162,7.597565 0.982266,0.781592 1.785938,1.572262 1.785938,1.757046 0,0.184783 -0.348026,0.669399 -0.77339,1.076924 l -0.77339,0.740954 -3.148184,-2.411245 c -1.731502,-1.326184 -3.228945,-2.411244 -3.327652,-2.411244 -0.09871,0 -0.179467,2.726831 -0.179467,6.059624 v 6.059625 l 2.908043,2.671625 c 1.599424,1.469394 2.819815,2.661335 2.711979,2.648757 -0.107835,-0.01258 -0.96997,-0.485112 -1.915856,-1.050076 z m 8.202083,-2.340504 c 0,-1.803099 -0.01148,-1.832724 -0.917495,-2.367285 -1.127469,-0.665223 -1.46218,-1.692187 -0.792648,-2.432011 0.258083,-0.285178 0.56985,-0.518505 0.692817,-0.518505 0.370462,0 0.252333,0.588016 -0.223831,1.114171 -0.42429,0.468834 -0.403783,0.538003 0.396875,1.338662 l 0.844282,0.844282 v -1.516266 c 0,-0.834455 0.118974,-1.516266 0.264584,-1.516266 0.145521,0 0.264583,0.595312 0.264583,1.322917 0,1.571512 0.536048,1.794979 1.204587,0.502167 0.402838,-0.779004 0.395925,-0.851087 -0.135933,-1.417224 -0.308198,-0.328061 -1.240273,-0.939278 -2.071278,-1.358259 -1.852527,-0.93402 -2.701543,-1.80521 -2.701543,-2.772103 0,-0.795205 1.146266,-2.362915 1.727697,-2.362915 0.737966,0 0.68854,0.604925 -0.10894,1.33331 -0.453754,0.41444 -0.825007,0.918078 -0.825007,1.119197 0,0.520762 1.032218,1.421783 2.176574,1.899925 1.507409,0.629836 2.85051,1.930222 2.85051,2.759856 0,0.889538 -0.655369,1.84403 -1.481909,2.15828 -0.58044,0.220683 -0.634758,0.389062 -0.634758,1.967675 0,0.974505 -0.115228,1.72634 -0.264583,1.72634 -0.15083,0 -0.264584,-0.785038 -0.264584,-1.825948 z m -19.602278,-4.135808 -1.213737,-0.619228 -0.1829,-13.159017 c -0.116006,-8.346308 -0.08962,-13.252297 0.07215,-13.414066 0.163677,-0.163677 1.175204,0.492388 2.823486,1.83128 1.412641,1.147481 3.355105,2.713982 4.316588,3.481113 0.961482,0.767131 3.117546,2.51481 4.791253,3.883731 1.673706,1.368921 3.557658,2.86169 4.18656,3.317264 0.89188,0.646074 1.078861,0.90615 0.849855,1.182085 -0.161481,0.194573 -0.500945,0.780043 -0.754364,1.301045 l -0.460762,0.947276 -4.755113,-3.732489 C 31.41834,27.556468 28.564165,25.280651 27.69104,24.551965 l -1.5875,-1.324882 -0.187176,10.28907 c -0.102947,5.658989 -0.22201,10.605049 -0.264584,10.991244 l -0.07741,0.702173 z m 38.387127,-3.736143 c -3.2e-4,-2.45152 -0.0788,-7.400223 -0.17443,-10.997119 l -0.17386,-6.539811 -0.59127,0.454394 c -0.3252,0.249917 -2.77679,2.183262 -5.447971,4.296324 -2.671181,2.113061 -5.239995,4.112866 -5.708476,4.444011 l -0.851783,0.60208 -0.182258,-0.739844 c -0.100242,-0.406914 -0.344339,-0.990378 -0.542438,-1.296588 -0.379285,-0.586275 0.127914,-1.054416 8.139855,-7.513047 0.992854,-0.800365 3.227091,-2.616068 4.964981,-4.034896 1.73788,-1.418828 3.23262,-2.579688 3.32164,-2.579688 0.089,0 0.13099,6.02821 0.0933,13.396022 l -0.0686,13.396021 -1.38907,0.784725 -1.38906,0.784725 z m -17.461932,1.016407 c 0,-0.118155 0.357188,-0.478907 0.79375,-0.801671 1.579716,-1.167935 0.880259,-2.134895 -2.791442,-3.859011 -1.362765,-0.639912 -2.645345,-1.443226 -2.976562,-1.864301 -0.983426,-1.250223 -0.656021,-2.947577 0.837715,-4.342935 0.610945,-0.570708 0.753413,-0.599736 1.475496,-0.300639 l 0.799257,0.331063 -1.318065,1.185053 c -0.724936,0.65178 -1.318066,1.404038 -1.318066,1.671686 0,0.59594 0.852435,1.210713 3.439584,2.480615 3.34703,1.64289 4.207646,3.174075 2.754605,4.900916 -0.624216,0.741838 -1.696272,1.120552 -1.696272,0.599224 z m -1.480204,-0.94553 c -0.07737,-0.201633 -0.103403,-0.886242 -0.05784,-1.521354 0.05834,-0.813237 0.200212,-1.154748 0.479713,-1.154748 0.297563,0 0.416731,0.380694 0.476224,1.521354 0.06489,1.244138 0.0031,1.521354 -0.339033,1.521354 -0.23011,0 -0.481688,-0.164973 -0.559062,-0.366606 z m 1.534552,-4.711963 c -0.245036,-0.245035 -0.0099,-0.598975 1.046057,-1.574896 1.30083,-1.20218 1.344457,-1.286184 0.969486,-1.866744 -0.2273,-0.351923 -1.967592,-1.391228 -4.132741,-2.468078 -4.116763,-2.047497 -5.068528,-2.791816 -6.063078,-4.741573 -0.649721,-1.27374 -0.655683,-1.333406 -0.215008,-2.151689 0.60865,-1.130196 1.453666,-1.497503 2.576188,-1.119806 1.808015,0.608347 2.006688,1.406939 0.473081,1.901613 -2.210569,0.713033 -0.511477,2.69023 3.99524,4.649176 3.455603,1.502055 4.73601,2.64118 4.73601,4.213427 0,0.92735 -0.175741,1.295869 -1.09203,2.289926 -1.109794,1.203984 -1.724877,1.436972 -2.293205,0.868644 z m -1.465459,-0.65407 c -0.219007,-0.219007 -0.23531,-3.909828 -0.01823,-4.126909 0.08699,-0.08699 0.325112,-0.09409 0.529167,-0.01579 0.520302,0.199659 0.537689,4.319088 0.01823,4.319088 -0.194028,0 -0.432153,-0.07938 -0.529167,-0.176389 z m 2.403299,-6.231412 c -0.400183,-0.137984 -0.727605,-0.347609 -0.727605,-0.465833 0,-0.118224 0.568356,-0.579665 1.263012,-1.025425 0.694656,-0.44576 1.605776,-1.168242 2.024711,-1.605515 0.650638,-0.67912 0.710667,-0.856535 0.411697,-1.216771 -0.192502,-0.23195 -0.746434,-0.587367 -1.230961,-0.789816 -1.017335,-0.425069 -1.088038,-0.717176 -0.351792,-1.453422 0.754203,-0.754203 2.40549,-0.71052 3.334056,0.0882 1.353045,1.163841 0.619422,3.31687 -1.795293,5.268804 -1.617557,1.307552 -2.073449,1.49437 -2.927825,1.199778 z m -2.38125,-1.286309 c -0.398938,-0.23236 -0.463424,-0.698134 -0.465933,-3.365391 -0.0037,-3.910424 -0.190879,-5.163863 -0.739763,-4.953236 -0.662107,0.254074 -3.727032,-1.42149 -4.171155,-2.280329 -0.531001,-1.026843 -1.296466,-0.986349 -4.223541,0.223432 -2.863629,1.183557 -5.291151,1.361979 -6.615876,0.486264 l -0.783211,-0.517746 2.248958,-0.312741 c 2.47319,-0.343923 2.288418,-0.287725 5.75966,-1.751784 3.890286,-1.640799 5.335637,-1.37346 5.776093,1.068375 0.283202,1.570034 0.555489,1.899349 1.570431,1.899349 h 0.916732 v -1.281909 c 0,-0.945891 -0.138707,-1.407438 -0.529166,-1.760799 -1.157814,-1.047807 -0.279062,-3.042708 1.340311,-3.042708 1.083022,0 1.80588,0.418946 2.111975,1.224035 0.270245,0.710799 -0.05702,1.642957 -0.712786,2.030258 -0.224537,0.132613 -0.35825,0.700441 -0.35825,1.521354 0,1.255593 0.0304,1.309769 0.734878,1.309769 1.085049,0 1.910955,-0.68515 1.910955,-1.585278 0,-2.117094 1.208686,-2.889174 3.471156,-2.217293 0.745817,0.221484 2.292968,0.814645 3.438114,1.318137 1.376753,0.605323 2.842765,1.013633 4.327552,1.2053 2.35637,0.304176 2.5641,0.538076 1.0425,1.173839 -1.436581,0.600243 -2.590394,0.438989 -6.005828,-0.839355 l -3.230786,-1.209234 -0.396875,0.576502 c -1.077989,1.565892 -2.559723,2.510276 -4.233333,2.698115 l -0.926042,0.103936 -0.06436,3.687145 c -0.08564,4.90657 -0.16009,5.193266 -1.192412,4.591993 z M 38.317822,21.1561 c -0.267145,-0.158968 -1.054239,-0.319659 -1.749098,-0.357092 -2.034028,-0.109576 -2.052271,-0.356839 -0.11264,-1.526685 1.430273,-0.862638 1.858301,-1.012267 2.194444,-0.767124 0.229677,0.167499 0.715251,0.42586 1.079053,0.574135 0.363802,0.148275 1.137708,0.483902 1.719792,0.745837 l 1.058333,0.476247 -0.79375,0.409679 c -1.103137,0.569363 -2.811064,0.793157 -3.396134,0.445003 z m 8.191795,-0.258521 c -0.813613,-0.639988 -0.69593,-1.033234 0.313183,-1.046523 0.391594,-0.0052 1.009646,-0.174585 1.373448,-0.376508 0.578699,-0.321199 0.727095,-0.31175 1.186065,0.07552 0.497112,0.419454 0.505237,0.41769 0.15502,-0.03365 -0.319992,-0.412385 -0.310425,-0.535462 0.0713,-0.917182 0.411454,-0.411454 0.55357,-0.379662 2.12914,0.4763 0.928542,0.50445 1.702741,1.036244 1.720441,1.181765 0.05228,0.429814 -1.583447,0.73471 -2.268088,0.422767 -0.478345,-0.217949 -0.612624,-0.199589 -0.612624,0.08376 0,0.525293 -0.690284,0.710334 -1.500591,0.402255 -0.478024,-0.181744 -0.789864,-0.179374 -0.97666,0.0074 -0.407223,0.407222 -0.811234,0.337135 -1.59063,-0.275938 z M 31.712871,19.756847 c -0.946676,-0.293122 -1.087051,-0.690165 -0.244007,-0.690165 0.210286,0 1.625711,-0.495244 3.14539,-1.100542 2.505973,-0.998146 2.801543,-1.062052 3.176746,-0.686848 0.558736,0.558735 0.406214,0.726687 -1.542312,1.698346 -1.99895,0.996804 -3.178582,1.199453 -4.535817,0.779209 z m 20.452127,-0.829756 c -0.945886,-0.502237 -1.707886,-1.033478 -1.693334,-1.180534 0.0686,-0.693228 0.131085,-0.796542 0.481759,-0.796542 0.206759,0 1.361915,0.415838 2.567013,0.924084 1.205098,0.508246 2.583744,0.997747 3.063658,1.087779 1.6922,0.317459 0.704264,0.89689 -1.50868,0.884851 -0.840015,-0.0046 -1.697061,-0.275381 -2.910416,-0.919638 z"
     id="path5"
     sodipodi:nodetypes="sscssscsssssssssssscssssscssscssssssssscssssssssssssssssccsssssssscsscssccsscssscsssssccccssssssscssssssssssssscsssssssssssssssssssssssssscsssscsssscssssssssssssscsscssssssssscssccssssssssscccssssssssssscs"
     inkscape:label="Isologo" /><g
     inkscape:label="Layer 1"
     inkscape:groupmode="layer"
     id="layer1"
     style="display:inline" /><path
     id="path8"
     style="fill:#000000"
     d="m 54.773772,58.688708 c -1.167956,-0.06062 -2.124364,0.124632 -3.075781,0.576192 -1.280245,0.607627 -2.294775,1.757634 -2.600875,2.947624 -0.194682,0.756848 -0.112694,2.287754 0.15968,2.979661 0.563394,1.43119 1.712298,2.40359 3.356901,2.84117 0.778349,0.2071 2.652575,0.17583 3.493327,-0.0584 0.721074,-0.20088 1.136811,-0.38025 1.172021,-0.50643 0.01564,-0.056 0.12531,-0.45606 0.243913,-0.88883 0.118602,-0.43277 0.233105,-0.84876 0.254765,-0.92449 0.08794,-0.30741 -0.192412,-0.1104 -0.481624,0.33848 -0.623074,0.96704 -1.454387,1.47392 -2.540414,1.54977 -1.131687,0.079 -2.170714,-0.34209 -2.846338,-1.15393 -0.879438,-1.05675 -1.189067,-2.319979 -0.960148,-3.917075 0.260871,-1.820013 1.277255,-2.965108 2.827218,-3.184302 1.58646,-0.224354 2.913631,0.461947 3.36827,1.742013 0.07721,0.217382 0.167384,0.395325 0.200504,0.395325 0.05132,0 0.07491,-0.498969 0.0956,-2.020549 0.0046,-0.341647 0.02512,-0.332954 -1.421102,-0.574125 -0.443993,-0.07404 -0.8566,-0.121903 -1.245919,-0.14211 z m -42.671297,0.05478 c -0.612437,-0.0013 -1.205119,0.03145 -1.182357,0.09973 0.01704,0.05111 0.136337,0.130993 0.2651,0.177251 0.377881,0.135755 0.582715,0.320762 0.662492,0.598929 0.05529,0.192778 -0.01703,1.10071 -0.278019,3.492294 -0.484921,4.443653 -0.489562,4.465853 -0.963249,4.579043 -0.288975,0.0691 -0.344578,0.10597 -0.290938,0.19276 0.03367,0.04 0.630959,0.0729 1.338936,0.0729 1.09747,0 1.293978,-0.0177 1.293978,-0.11782 0,-0.074 -0.07493,-0.11783 -0.200505,-0.11783 -0.110159,0 -0.287032,-0.087 -0.393257,-0.19327 -0.174187,-0.17418 -0.19327,-0.25762 -0.19327,-0.84956 0,-0.91998 0.379787,-5.45996 0.471289,-5.634278 0.03623,-0.06902 0.127875,0.07018 0.259416,0.393258 0.16904,0.415182 1.105481,2.531704 1.509468,3.41168 0.0596,0.12983 0.354372,0.78495 0.654741,1.45572 0.787714,1.75914 0.734135,1.66225 0.905887,1.63608 0.105292,-0.016 0.22696,-0.19451 0.391191,-0.57413 0.29482,-0.68148 1.24127,-2.786061 1.610238,-3.58014 0.150815,-0.324578 0.391003,-0.855712 0.5333,-1.18029 0.142297,-0.324578 0.374276,-0.838076 0.515731,-1.141015 0.252253,-0.540229 0.25829,-0.546236 0.31781,-0.31471 0.05072,0.197282 0.202392,1.661111 0.350366,3.383773 0.01859,0.216382 0.04864,0.499592 0.06718,0.629422 0.0677,0.4741 0.163124,1.73709 0.147794,1.95802 -0.02019,0.29105 -0.28128,0.56837 -0.594279,0.63097 -0.164791,0.033 -0.219171,0.0749 -0.165881,0.12815 0.106716,0.10672 3.411129,0.0662 3.416329,-0.0419 0.0021,-0.0433 -0.103202,-0.10087 -0.234094,-0.12764 -0.375587,-0.0768 -0.597509,-0.26436 -0.699699,-0.59221 -0.05199,-0.16681 -0.203136,-1.29455 -0.335897,-2.506306 -0.611881,-5.584879 -0.613291,-5.354937 0.04444,-5.581054 0.634516,-0.218139 0.428073,-0.28645 -0.797884,-0.26355 l -1.167888,0.0217 -0.17725,0.3545 c -0.09755,0.194746 -0.375756,0.814058 -0.61805,1.37666 -0.913424,2.120942 -1.446783,3.323524 -1.899626,4.28243 l -0.275952,0.58446 -0.136426,-0.3483 c -0.0751,-0.19151 -0.35405,-0.802984 -0.6196,-1.358576 -0.26555,-0.555591 -0.482658,-1.022393 -0.482658,-1.037663 0,-0.01527 -0.145698,-0.33965 -0.324011,-0.720886 -0.17831,-0.381224 -0.55319,-1.206466 -0.833022,-1.833984 -0.279832,-0.627517 -0.545822,-1.185101 -0.590662,-1.239201 -0.05666,-0.06835 -0.688776,-0.104086 -1.301212,-0.10542 z m 51.309529,1.188558 c -1.541272,-0.0052 -3.261083,0.854939 -4.029728,2.015381 -0.915707,1.382465 -0.776914,3.451298 0.320394,4.767148 0.518763,0.62208 1.4946,1.19149 2.384867,1.39165 0.906559,0.20382 2.216714,0.004 3.114022,-0.47387 1.096635,-0.5845 1.99966,-1.84428 2.204517,-3.075268 0.403564,-2.425038 -1.489357,-4.616641 -3.994072,-4.625041 z m -28.500069,0.14366 c -0.476573,-0.02095 -1.195355,-0.01282 -2.508891,0.0088 -1.211061,0.01991 -1.782861,0.05164 -1.815909,0.106971 -7.59e-4,0.0016 -0.0016,0.0041 -0.0016,0.0057 0.0037,0.02283 0.0925,0.05024 0.259933,0.08165 0.157783,0.0296 0.341116,0.138975 0.436666,0.260449 0.16208,0.206057 0.164823,0.261601 0.141593,3.490226 -0.02235,3.105983 -0.03175,3.290023 -0.174666,3.447853 -0.08303,0.0917 -0.257683,0.19462 -0.38809,0.22841 -0.130408,0.0338 -0.251348,0.10395 -0.268718,0.15606 -0.02413,0.0724 0.494176,0.0944 2.197799,0.0935 2.776824,-0.001 3.299579,-0.0962 4.310848,-0.7829 1.395184,-0.94745 2.048308,-2.52052 1.734261,-4.176487 -0.254828,-1.343701 -1.266783,-2.31557 -2.868042,-2.75487 -0.344368,-0.09448 -0.57866,-0.144415 -1.055233,-0.165365 z m -8.744686,0.05168 c -2.710911,0 -3.12503,0.0422 -2.264461,0.230477 0.392402,0.08585 0.399933,0.15435 0.384473,3.572391 -0.01605,3.548651 -0.02962,3.651181 -0.489376,3.770311 -0.140763,0.0365 -0.269951,0.10912 -0.287321,0.16123 -0.02423,0.0727 0.61787,0.0946 2.757454,0.0946 h 2.788977 l 0.103353,-0.49144 c 0.05683,-0.27048 0.164996,-0.66812 0.240296,-0.88367 0.0753,-0.21554 0.11634,-0.42556 0.09095,-0.46664 -0.05023,-0.0813 -0.144021,0.0328 -0.491959,0.59893 -0.299773,0.48775 -0.723311,0.70531 -1.468128,0.75396 -0.775288,0.0506 -1.421107,-0.0403 -1.60662,-0.22582 -0.13794,-0.13794 -0.150895,-0.2766 -0.150895,-1.61593 v -1.465022 l 0.980818,0.03256 c 0.894974,0.0298 0.998108,0.04874 1.176156,0.216008 0.107333,0.100834 0.205988,0.258376 0.219108,0.350364 0.01313,0.092 0.05904,0.15898 0.102319,0.14831 0.04701,-0.0116 0.07906,-0.39976 0.07906,-0.963762 0,-0.563548 -0.03209,-0.952292 -0.07906,-0.964282 -0.04327,-0.01105 -0.08963,0.05904 -0.103353,0.155546 -0.01372,0.09651 -0.116244,0.246926 -0.227376,0.334346 -0.177979,0.139998 -0.317593,0.159164 -1.174605,0.159164 h -0.973067 v -1.494999 -1.495 h 0.985986 c 1.085299,0 1.397635,0.0797 1.670699,0.426848 0.09083,0.115469 0.187937,0.314551 0.216007,0.44235 0.104436,0.475493 0.195861,0.207449 0.195854,-0.574125 v -0.806669 z m 53.132674,0.02274 c -2.413245,0.02096 -3.042242,0.07634 -2.344559,0.207223 0.158622,0.02976 0.341296,0.139306 0.438216,0.262516 0.163899,0.208367 0.165806,0.25515 0.141076,3.400309 -0.02258,2.871841 -0.03904,3.213931 -0.164331,3.443201 -0.08426,0.15418 -0.223802,0.27481 -0.353983,0.30592 -0.28848,0.0689 -0.343525,0.106 -0.289905,0.19276 0.02652,0.0429 1.168241,0.0734 2.757455,0.0734 2.102093,0 2.719014,-0.0225 2.741434,-0.0987 0.01591,-0.0541 0.138655,-0.44106 0.272852,-0.8599 0.279594,-0.87263 0.276145,-0.85188 0.145727,-0.85008 -0.0541,7.6e-4 -0.204772,0.18697 -0.334863,0.41342 -0.186934,0.32539 -0.32704,0.45791 -0.668693,0.63252 -0.414573,0.21187 -0.471817,0.2196 -1.393713,0.19637 -0.775629,-0.0195 -0.986818,-0.0497 -1.09399,-0.1571 -0.114508,-0.1147 -0.13416,-0.33425 -0.14056,-1.59318 l -0.0072,-1.46038 h 0.84801 c 1.036449,1.1e-5 1.335185,0.100626 1.479496,0.49971 0.05538,0.15315 0.129945,0.26064 0.165365,0.23875 0.09162,-0.0566 0.08042,-1.899424 -0.01189,-1.956474 -0.04197,-0.02594 -0.129139,0.07802 -0.193269,0.231511 -0.06937,0.166027 -0.199603,0.311091 -0.321945,0.357601 -0.31063,0.118103 -1.845146,0.1017 -1.885156,-0.02015 -0.07841,-0.238859 -0.0831,-2.889348 -0.0052,-2.918168 0.0451,-0.01668 0.54841,-0.0087 1.118794,0.01757 1.219342,0.05626 1.406683,0.143597 1.598869,0.742073 0.06492,0.202149 0.149712,0.357232 0.188102,0.344682 0.07968,-0.03804 0.06572,-1.570062 -0.0155,-1.628841 -0.0299,-0.02162 -1.231675,-0.02904 -2.670638,-0.01654 z m -8.73435,0.01757 c -1.136023,-4.7e-4 -2.065507,0.02868 -2.065507,0.06511 0,0.03643 0.141274,0.108547 0.313676,0.160197 0.172402,0.05165 0.350511,0.163336 0.395841,0.248046 0.0548,0.102335 0.07516,1.27863 0.06046,3.50573 l -0.02222,3.351736 -0.186035,0.15037 c -0.102168,0.0827 -0.270223,0.15038 -0.373621,0.15038 -0.18342,0 -0.24091,0.0779 -0.135392,0.18345 0.02885,0.0289 0.754492,0.0527 1.612821,0.0527 1.270137,0 1.560628,-0.0201 1.560628,-0.108 0,-0.0652 -0.125058,-0.12816 -0.315743,-0.15865 -0.604787,-0.0967 -0.628385,-0.1654 -0.628385,-1.82624 v -1.46296 l 0.412895,0.05478 c 0.483627,0.06433 0.63349,0.18424 1.000972,0.8015 0.149594,0.25127 0.512911,0.81985 0.807703,1.26349 0.573695,0.86336 0.881034,1.13088 1.520837,1.32343 0.399578,0.12025 1.450558,0.15547 1.450558,0.0486 0,-0.0353 -0.121818,-0.12223 -0.270785,-0.19327 -0.331834,-0.15824 -0.699145,-0.6167 -1.648478,-2.0562 -0.402422,-0.61021 -0.825669,-1.208911 -0.940511,-1.330152 -0.246172,-0.259895 -0.253182,-0.289822 -0.0708,-0.293522 0.344651,-0.007 1.022377,-0.609022 1.276408,-1.133781 0.395918,-0.817858 0.119205,-1.954475 -0.574642,-2.361096 -0.676895,-0.396688 -0.954973,-0.434716 -3.180684,-0.435633 z m -7.558712,0.309542 c 0.564393,0.0124 1.132401,0.221664 1.586467,0.636654 0.935393,0.854896 1.330264,2.099465 1.157552,3.648353 -0.130943,1.17432 -0.345655,1.73279 -0.866614,2.25309 -0.284982,0.28463 -0.548659,0.46902 -0.76016,0.53124 -0.910613,0.26789 -1.931881,0.0138 -2.590023,-0.64441 -1.333766,-1.33392 -1.547809,-4.042191 -0.436149,-5.516455 0.463744,-0.615011 1.183279,-0.924418 1.908927,-0.908472 z m 8.372099,0.161747 c 0.418291,0 0.540934,0.03556 0.869714,0.255282 0.559588,0.373979 0.753919,0.794813 0.718819,1.554427 -0.03362,0.727574 -0.21276,1.121979 -0.636653,1.402498 -0.255602,0.169154 -0.420146,0.21198 -0.872815,0.22686 -0.306843,0.01009 -0.602191,-0.0013 -0.656291,-0.02532 -0.137716,-0.06117 -0.141649,-3.182179 -0.0041,-3.319694 0.05309,-0.05309 0.307631,-0.09405 0.58136,-0.09405 z m -37.259741,0.01189 c 2.214626,0.03437 3.437837,1.549171 3.166731,3.992004 -0.180165,1.623396 -0.852216,2.422316 -2.294433,2.727996 -0.287532,0.0609 -0.646931,0.10917 -0.798401,0.10697 -0.420573,-0.006 -1.039755,-0.19571 -1.155485,-0.35398 -0.06868,-0.0939 -0.105904,-0.42127 -0.111104,-0.97255 -0.0043,-0.45696 -0.0213,-1.822166 -0.03772,-3.033924 -0.01643,-1.211757 -10e-4,-2.248562 0.03411,-2.304252 0.03961,-0.06283 0.320097,-0.119715 0.740007,-0.149345 0.156306,-0.01103 0.308661,-0.01521 0.456303,-0.01292 z m 8.34316,3.37137 -0.05064,0.270268 c -0.02788,0.148662 -0.02467,0.312699 0.0072,0.364319 0.04288,0.06939 0.444756,0.08466 1.541508,0.05839 0.815875,-0.01954 1.49774,-0.0508 1.51567,-0.06925 0.01793,-0.01845 0.05353,-0.166373 0.07906,-0.328662 l 0.04651,-0.295073 h -1.569413 z m 35.445898,2.54816 c 0.01031,-10e-4 0.02193,0.002 0.03411,0.009 0.03016,0.0186 0.05605,0.0509 0.06925,0.0827 0.0057,0.0138 0.0093,0.0275 0.0093,0.0398 0,0.0407 -0.03527,0.0739 -0.07855,0.0739 -0.0031,0 -0.0058,-4.8e-4 -0.0088,-0.001 0.0031,4e-4 0.0094,7.9e-4 0.01395,5.2e-4 0.03179,-0.002 0.05893,-0.0224 0.06925,-0.0512 0.003,-0.008 0.0032,-0.01 0.0031,-0.0227 -1.06e-4,-0.0158 -0.0018,-0.0239 -0.0083,-0.0393 -0.0091,-0.0214 -0.0223,-0.0403 -0.03979,-0.0579 -0.02449,-0.0247 -0.04693,-0.0363 -0.06408,-0.0331 -0.01693,0.003 -0.03038,0.0172 -0.03721,0.0388 -0.0011,0.004 -0.0024,0.006 -0.0031,0.009 0.0065,-0.0285 0.02134,-0.0464 0.04082,-0.0491 z m -61.43811,0.004 h 5.16e-4 c 0.0024,0.003 0.0037,0.006 0.0041,0.009 -3.1e-4,-5e-4 -7.37e-4,-0.001 -10e-4,-0.001 -3.24e-4,-10e-4 -0.001,-0.003 -0.0021,-0.004 -5.28e-4,-0.001 -0.0011,-0.002 -0.0016,-0.003 z m 61.397286,0.046 c -0.0023,0.01 -0.0026,0.0173 -0.0026,0.0341 0,0.0171 7.32e-4,0.0224 0.0026,0.032 0.0038,0.0192 0.0094,0.036 0.01757,0.0496 0.0049,0.008 0.01105,0.015 0.01757,0.0212 0.007,0.007 0.0153,0.0125 0.02325,0.0155 -0.01605,-0.006 -0.03006,-0.0184 -0.04082,-0.0367 -0.01287,-0.0219 -0.02119,-0.0509 -0.02119,-0.0827 0,-0.0122 0.0015,-0.0232 0.0036,-0.0331 z m -53.241195,0.50643 c 2.31e-4,4e-5 8.04e-4,-3e-5 0.001,0 -2.1e-4,1e-4 -8.25e-4,4.3e-4 -0.001,5.2e-4 z m 32.130339,0.21756 c 4.22e-4,4.4e-4 0.0011,10e-4 0.0016,0.002 -5.85e-4,-4.3e-4 -0.0015,-6.3e-4 -0.0021,-0.001 z m -35.194235,0.0455 c 8.57e-4,7e-4 0.0017,0.001 0.0026,0.002 -5.57e-4,0 -9.61e-4,0 -0.0016,0 -7.23e-4,-6.1e-4 -0.0018,-9.6e-4 -0.0026,-0.002 4.59e-4,-1.1e-4 0.0011,-4e-4 0.0015,-5.1e-4 z m 60.621623,0.015 h 5.17e-4 c 7.63e-4,2.3e-4 0.0013,3.1e-4 0.0021,5.2e-4 -8.88e-4,-6e-5 -0.0017,8e-5 -0.0026,0 z m -56.893168,0.0202 h 5.17e-4 c 0.0015,0.002 0.0029,0.004 0.0041,0.006 h -5.17e-4 c -0.0012,-0.002 -0.0027,-0.004 -0.0041,-0.006 z m -3.695898,0.0103 c 4.29e-4,0.001 0.0011,0.002 0.0016,0.003 -4.01e-4,3e-5 -0.0012,-3e-5 -0.0016,0 -3.07e-4,-8.5e-4 -1.94e-4,-0.002 -5.17e-4,-0.003 z m 3.358968,0.26355 c 7.78e-4,-2e-5 0.0013,3e-5 0.0021,0 6.34e-4,2.8e-4 0.0014,7.6e-4 0.0021,0.001 -7.75e-4,3e-5 -0.0013,-3e-5 -0.0021,0 -6.38e-4,-2.8e-4 -0.0014,-7.4e-4 -0.0021,-0.001 z" /><path
     id="path505"
     style="fill:#000000;fill-opacity:1"
     d="m 76.223254,72.489115 c -0.06688,0.0014 -0.17483,0.06321 -0.272334,0.160714 -0.100909,0.100907 -0.107909,0.121926 -0.08372,0.191719 0.106765,0.02601 0.112749,-0.0013 0.226344,-0.07855 0.161822,-0.1438 0.211403,-0.202092 0.168981,-0.2651 -0.01043,-0.0064 -0.02384,-0.0091 -0.03927,-0.0088 z m -0.439249,0.534334 c -0.11224,0.175759 -0.05269,0.497172 -0.05684,0.733289 -0.01035,0.833078 5.17e-4,0.896118 0.15813,0.921908 0.09305,0.01521 0.181893,0.01994 0.197403,0.01033 0.01551,-0.0096 0.02827,-0.391528 0.02842,-0.849044 2.37e-4,-0.707712 -0.03542,-0.781842 -0.14056,-0.860929 -0.05393,-0.01879 -0.140582,-0.02036 -0.186552,0.04444 z m -47.610014,-0.07441 v 0.896586 0.896586 h 0.362252 c 0.452445,0 0.884424,-0.175906 1.064534,-0.433049 0.205574,-0.293498 0.176706,-0.782196 -0.06305,-1.060917 -0.176326,-0.204993 -0.27376,-0.23788 -0.782898,-0.26665 z m -9.843327,0.01499 c -0.153667,-0.0037 -0.31679,0.02867 -0.479557,0.102836 -0.587146,0.267522 -0.606616,1.237972 -0.03101,1.557011 0.248942,0.13798 0.478732,0.145849 0.818555,0.02739 0.342239,-0.119306 0.525549,-0.413837 0.525549,-0.843359 0,-0.498069 -0.37254,-0.832733 -0.833541,-0.843876 z m 36.532654,0.001 -0.211357,5.17e-4 0.01809,0.867131 c 0.0099,0.476914 0.01949,0.878502 0.02119,0.892452 v 5.16e-4 l 5.17e-4,5.17e-4 5.17e-4,5.17e-4 c 0.02084,0.01205 0.233352,0.0117 0.488342,-0.0015 0.446731,-0.0233 0.488697,-0.04297 0.514697,-0.237195 0.02288,-0.170943 0.0077,-0.19089 -0.0801,-0.10542 -0.05977,0.05816 -0.21834,0.10542 -0.351917,0.10542 h -0.242879 l 0.02739,-0.761194 0.02687,-0.761711 z m -47.2885866,5.17e-4 c -0.4963515,0 -0.830508,0.398138 -0.6118489,0.728638 0.034183,0.05167 0.195273,0.161659 0.3581177,0.244429 0.3657027,0.185888 0.4344463,0.285897 0.3296956,0.481625 -0.1106643,0.20678 -0.3704374,0.192183 -0.5798096,-0.03256 L 6.8982869,74.202706 v 0.221175 c 0,0.139565 0.054403,0.235526 0.1477946,0.259932 0.43471,0.113601 0.8455431,-0.03679 0.9208741,-0.33693 0.070115,-0.279359 -0.00769,-0.426006 -0.3255616,-0.614433 -0.4507198,-0.267176 -0.5126752,-0.340967 -0.398942,-0.478007 0.1364875,-0.164455 0.4174637,-0.150041 0.5529378,0.02842 0.1021612,0.134586 0.1127885,0.126737 0.1152385,-0.08475 0.00249,-0.215455 -0.022501,-0.232544 -0.3358969,-0.232544 z m 3.2571656,0 v 0.888318 0.888318 h 0.52865 c 0.522004,0 0.528532,-0.0029 0.521932,-0.232544 -0.0025,-0.08599 -0.01343,-0.140306 -0.02739,-0.148828 h -5.16e-4 l -5.17e-4,-5.17e-4 h -5.17e-4 c -3.35e-4,1.2e-5 -9.27e-4,1.9e-5 -0.001,0 h -5.17e-4 -5.17e-4 c -2.18e-4,2e-5 -0.0013,-3.9e-5 -0.0015,0 -0.0053,0.0014 -0.01104,0.0086 -0.01654,0.02222 -0.02347,0.05816 -0.176435,0.105937 -0.340031,0.105937 h -0.297656 l 0.02946,-0.761711 0.02945,-0.761194 h -0.211356 z m 1.756999,0 c -0.183682,0 -0.192237,0.02944 -0.192237,0.680579 0,0.618539 0.02003,0.700607 0.218075,0.898653 0.1856,0.185605 0.269719,0.211049 0.567924,0.171049 0.465175,-0.06239 0.567924,-0.227409 0.567924,-0.913639 0,-0.312991 0.01952,-0.621103 0.04392,-0.684713 0.02659,-0.06929 -0.0158,-0.120324 -0.105937,-0.127124 -0.134998,-0.01017 -0.147092,0.05879 -0.119372,0.66921 0.03352,0.738225 -0.01071,0.824939 -0.42168,0.827339 -0.354661,0.0021 -0.434812,-0.17548 -0.398942,-0.885734 0.031,-0.61391 0.02572,-0.63562 -0.15968,-0.63562 z m 3.826123,0 v 0.872815 0.872298 l 0.230993,-0.01137 c 0.227884,-0.01073 0.447842,-0.126607 0.240296,-0.126607 -0.08065,0 -0.09963,-0.197043 -0.07751,-0.803568 l 0.02946,-0.803569 h -0.211874 z m 3.455603,0 c -0.173962,0 -0.185878,0.02309 -0.112138,0.217041 0.116432,0.306232 0.103754,1.251197 -0.0186,1.37356 -0.07896,0.07895 -0.05578,0.101137 0.10542,0.101285 0.203422,1.87e-4 0.206664,-0.01073 0.179834,-0.612882 -0.03091,-0.693721 -0.08713,-0.709105 0.658875,0.173116 0.246087,0.291023 0.477369,0.499423 0.516764,0.466121 l 5.17e-4,-5.16e-4 c 0.03666,-0.03741 0.07881,-0.439225 0.09353,-0.892969 0.02525,-0.778518 0.01709,-0.824935 -0.143143,-0.824756 -0.148417,1.66e-4 -0.16616,0.04605 -0.14056,0.367936 0.06366,0.800368 0.01654,0.819758 -0.486792,0.198438 -0.325473,-0.40177 -0.51567,-0.566374 -0.653707,-0.566374 z m 2.018481,0 0.07648,0.317293 c 0.04194,0.174477 0.07273,0.545594 0.06873,0.824756 -0.004,0.279163 -0.0042,0.536125 -5.17e-4,0.571025 v 5.17e-4 l 5.17e-4,5.16e-4 c 2.12e-4,5.07e-4 4.22e-4,0.0013 5.17e-4,0.0016 0.01717,0.0334 0.242708,0.06098 0.513147,0.06098 0.495038,0 0.507979,-0.0056 0.507979,-0.22841 0,-0.177652 -0.02284,-0.206074 -0.101803,-0.127124 -0.05583,0.05583 -0.226798,0.101803 -0.380338,0.101803 -0.264562,0 -0.27957,-0.01639 -0.27957,-0.307475 0,-0.303782 0.0033,-0.306419 0.296106,-0.258899 0.275672,0.04474 0.296106,0.03253 0.296106,-0.175183 0,-0.173513 -0.02233,-0.2004 -0.101285,-0.12144 -0.05583,0.05583 -0.188869,0.101286 -0.29559,0.101286 -0.155356,0 -0.187046,-0.03779 -0.158646,-0.190169 0.01952,-0.104686 0.03836,-0.237946 0.04186,-0.296106 0.008,-0.134836 0.363467,-0.137828 0.497127,-0.0041 0.07895,0.07896 0.101286,0.06 0.101286,-0.08475 0,-0.172348 -0.0401,-0.186035 -0.541053,-0.186035 z m 2.350761,0 c -0.793703,0 -0.912664,0.768453 -0.15968,1.030945 0.269656,0.094 0.372625,0.294869 0.235644,0.45992 -0.139924,0.168598 -0.396288,0.142685 -0.518314,-0.05271 -0.05811,-0.09305 -0.134686,-0.169498 -0.170016,-0.169498 -0.108293,0 -0.07094,0.405366 0.04134,0.451652 h 5.16e-4 c 0.442628,0.17826 0.993738,-0.09721 0.993738,-0.497128 0,-0.224195 -0.2667,-0.54622 -0.452169,-0.54622 -0.06258,0 -0.176327,-0.0691 -0.252697,-0.153479 -0.26259,-0.290159 0.16454,-0.486917 0.465604,-0.214457 0.146202,0.132297 0.154513,0.127994 0.154513,-0.08423 0,-0.205638 -0.02867,-0.224793 -0.338481,-0.224793 z m 6.275069,0 c -0.141691,0 -0.15793,0.04761 -0.12454,0.359668 0.02116,0.197741 0.0028,0.578413 -0.04031,0.845943 l -0.07803,0.486275 0.219625,-0.0016 c 0.158243,-9.3e-4 0.187333,-0.02174 0.103353,-0.07493 -0.08983,-0.0569 -0.102362,-0.188206 -0.05426,-0.569991 l 0.06253,-0.495577 0.255798,0.571025 c 0.137408,0.306697 0.27501,0.558852 0.310576,0.570508 2.71e-4,6.2e-5 0.0013,4.85e-4 0.0015,5.16e-4 h 5.17e-4 5.16e-4 5.17e-4 l 5.17e-4,-5.16e-4 c 0.03623,-0.01242 0.189464,-0.283426 0.344682,-0.612883 l 0.288871,-0.613399 0.0279,0.542086 c 0.01876,0.36556 -0.0065,0.563618 -0.077,0.607198 -0.06376,0.03941 0.0089,0.07571 0.186036,0.09302 0.364147,0.03559 0.365737,0.03431 0.255281,-0.172082 -0.0503,-0.09398 -0.09147,-0.477903 -0.09147,-0.853178 0,-0.597449 -0.01872,-0.682129 -0.150379,-0.682129 -0.104099,0 -0.224316,0.16916 -0.390157,0.549837 -0.129692,0.297701 -0.266359,0.542273 -0.305924,0.549838 h -5.17e-4 -5.17e-4 -5.16e-4 -5.17e-4 c -0.03981,-0.0076 -0.184184,-0.252137 -0.323495,-0.549838 -0.186198,-0.397896 -0.30252,-0.549837 -0.420646,-0.549837 z m 2.522844,0 c -0.211135,-1.16e-4 -0.211357,0.0012 -0.211357,0.824756 0,0.651306 0.02694,0.836717 0.127124,0.882117 0.273851,0.124096 0.296106,0.06292 0.296106,-0.818555 v -0.888318 z m 2.361613,0 c -0.207302,0 -0.209311,0.008 -0.177251,0.613399 0.01699,0.320709 0.0053,0.520227 -0.0279,0.535885 -2.71e-4,1.02e-4 -0.0013,4.38e-4 -0.0016,5.17e-4 h -5.17e-4 -5.17e-4 c -0.0041,4.6e-5 -0.0092,-0.0025 -0.01395,-0.0078 -0.04232,-0.04653 -0.278363,-0.322605 -0.524516,-0.613399 -0.648863,-0.766542 -0.727087,-0.729748 -0.727087,0.343648 v 0.872815 l 0.211356,-0.04082 c 0.116313,-0.02229 0.164097,-0.05652 0.105937,-0.07596 -0.11509,-0.03847 -0.156387,-1.125177 -0.04237,-1.115177 h 5.17e-4 c 3.16e-4,1.19e-4 8.84e-4,4.88e-4 0.001,5.17e-4 0.04113,0.01162 0.294675,0.291397 0.569475,0.629419 0.276982,0.340704 0.53246,0.622086 0.570508,0.628902 h 5.16e-4 c 2.73e-4,2e-5 7.96e-4,2.4e-5 0.001,0 2.71e-4,-6.6e-5 0.0012,-4.08e-4 0.0016,-5.17e-4 2.61e-4,-1.46e-4 0.0013,-8.47e-4 0.0015,-0.001 0.03269,-0.02842 0.05943,-0.368202 0.05943,-0.780831 0,-0.499109 0.03689,-0.823918 0.101286,-0.888318 0.07896,-0.07895 0.05483,-0.101286 -0.10852,-0.101286 z m 0.937927,0 c -0.211486,0 -0.211873,6.9e-5 -0.211873,0.845943 0,0.845873 3.87e-4,0.845427 0.211873,0.845427 0.211485,0 0.211357,4.46e-4 0.211357,-0.845427 0,-0.845874 1.28e-4,-0.845943 -0.211357,-0.845943 z m 1.437121,0 c -0.384372,0 -0.615419,0.225432 -0.576709,0.563273 0.0208,0.18153 0.109891,0.282526 0.36587,0.414962 0.3525,0.182375 0.478997,0.429879 0.283186,0.553971 -0.182429,0.11561 -0.307063,0.08784 -0.491442,-0.11007 L 37.18326,74.202706 v 0.220141 c 0,0.121214 0.04726,0.239564 0.10542,0.263034 0.215927,0.08713 0.539155,0.05184 0.726054,-0.07906 0.151243,-0.105933 0.187155,-0.200743 0.166915,-0.441834 -0.02174,-0.258971 -0.07896,-0.336515 -0.364319,-0.496094 -0.388362,-0.217176 -0.453259,-0.475448 -0.131258,-0.520898 0.120856,-0.01706 0.248448,0.02747 0.306958,0.107487 0.09026,0.123441 0.103944,0.120461 0.143144,-0.02946 0.05815,-0.222343 0.0053,-0.26045 -0.361736,-0.260449 z m 1.650546,0 c -0.663665,0 -0.719336,0.0132 -0.719336,0.170016 0,0.14471 0.02357,0.155346 0.15813,0.07131 0.323486,-0.20202 0.434082,-0.0422 0.434082,0.627352 0,0.369582 -0.0408,0.66143 -0.101286,0.72192 -0.07896,0.07896 -0.02735,0.09977 0.232544,0.09457 0.136313,-0.0027 0.228816,-0.01598 0.243396,-0.03204 l 5.17e-4,-5.17e-4 v -5.16e-4 -5.17e-4 l 5.16e-4,-5.17e-4 v -5.17e-4 -5.16e-4 -5.17e-4 -5.17e-4 -5.17e-4 -5.16e-4 -5.17e-4 l -5.16e-4,-5.17e-4 c -0.0019,-0.0034 -0.007,-0.0074 -0.0155,-0.01085 -0.07284,-0.02939 -0.105937,-0.264542 -0.105937,-0.754993 0,-0.703106 0.003,-0.712101 0.211873,-0.712101 0.116316,0 0.211357,0.03822 0.211357,0.08475 0,0.04653 0.03822,0.08475 0.08475,0.08475 0.04653,0 0.08423,-0.07645 0.08423,-0.169499 0,-0.155919 -0.05616,-0.168982 -0.718819,-0.168982 z m 1.637109,0 c -0.439981,0 -0.500825,0.01787 -0.414445,0.121956 0.0666,0.0802 0.09145,0.370743 0.07338,0.84646 l -0.02739,0.723987 0.253731,-0.0072 c 0.09658,-0.0027 0.158925,-0.01485 0.168466,-0.02946 v -5.17e-4 l 5.16e-4,-5.17e-4 5.17e-4,-5.16e-4 v -5.17e-4 -5.17e-4 -5.17e-4 c -5.87e-4,-0.0051 -0.0076,-0.01155 -0.02119,-0.01705 -0.124222,-0.05012 -0.144638,-0.620634 -0.02222,-0.620634 0.04587,0 0.182454,0.150377 0.303857,0.33383 0.121403,0.183452 0.302816,0.347132 0.403077,0.363802 0.209009,0.03476 0.396309,-0.03378 0.237194,-0.08682 -0.05823,-0.01941 -0.199795,-0.184351 -0.314709,-0.366386 l -0.208773,-0.331246 0.183451,-0.248047 c 0.174645,-0.236214 0.176456,-0.258628 0.04186,-0.464054 -0.126086,-0.192428 -0.197475,-0.216008 -0.657324,-0.216008 z m 3.946012,0 c -0.662654,0 -0.718819,0.01306 -0.718819,0.168982 0,0.09305 0.0377,0.169499 0.08423,0.169499 0.04653,0 0.08475,-0.03822 0.08475,-0.08475 0,-0.04652 0.09504,-0.08475 0.211357,-0.08475 0.208786,0 0.211356,0.009 0.211356,0.712101 0,0.490451 -0.03258,0.725603 -0.105419,0.754993 -0.0082,0.0033 -0.01302,0.0062 -0.01499,0.0093 l -5.16e-4,5.16e-4 v 5.17e-4 l -5.17e-4,5.17e-4 v 5.17e-4 5.17e-4 5.16e-4 5.17e-4 5.17e-4 5.17e-4 l 5.17e-4,5.16e-4 v 5.17e-4 l 5.16e-4,5.17e-4 5.17e-4,5.17e-4 c 0.01521,0.01507 0.108944,0.02636 0.247013,0.02636 0.138071,0 0.23233,-0.01182 0.247531,-0.02687 l 5.16e-4,-5.17e-4 v -5.17e-4 l 5.17e-4,-5.16e-4 v -5.17e-4 -5.17e-4 -5.17e-4 -5.16e-4 -5.17e-4 -5.17e-4 l -5.17e-4,-5.17e-4 v -5.17e-4 c -0.002,-0.0031 -0.0073,-0.0065 -0.0155,-0.0098 -0.07284,-0.02939 -0.10542,-0.264542 -0.10542,-0.754993 0,-0.686566 0.0067,-0.712101 0.194304,-0.712101 0.107013,0 0.240276,0.04597 0.296106,0.101803 0.07895,0.07896 0.101286,0.06 0.101286,-0.08475 0,-0.177108 -0.03437,-0.186035 -0.71882,-0.186035 z m 1.269174,0 v 0.845943 l -5.17e-4,0.845427 0.254248,-0.0062 c 0.09658,-0.0025 0.158424,-0.01489 0.167948,-0.02946 v -5.17e-4 l 5.17e-4,-5.17e-4 5.17e-4,-5.16e-4 v -5.17e-4 -5.17e-4 -5.17e-4 c -5.87e-4,-0.0051 -0.0076,-0.01103 -0.02119,-0.01654 -0.142351,-0.05745 -0.146002,-1.392959 -0.0041,-1.53479 0.07896,-0.07896 0.04579,-0.101229 -0.148311,-0.101286 z m 0.906404,0 0.292489,0.697632 c 0.160798,0.383848 0.32842,0.78566 0.37207,0.892969 0.10828,0.266213 0.201509,0.182346 0.370003,-0.332797 0.07854,-0.240135 0.232115,-0.62165 0.341065,-0.847493 0.181632,-0.376513 0.185466,-0.410311 0.04702,-0.410311 -0.09693,0 -0.1678,0.08319 -0.19792,0.232544 -0.0258,0.12795 -0.119683,0.403692 -0.208773,0.612883 l -0.162264,0.380338 -0.190169,-0.422713 c -0.104612,-0.232455 -0.191253,-0.508197 -0.192753,-0.612883 -0.0022,-0.150838 -0.05133,-0.190169 -0.236678,-0.190169 z m 2.687692,0 c -0.03873,0.01008 -0.211432,0.335788 -0.38809,0.732255 -0.179464,0.402761 -0.377257,0.783433 -0.439767,0.845943 -0.09514,0.09514 -0.07776,0.113688 0.108521,0.113688 0.122385,0 0.206068,-0.02866 0.185518,-0.06356 -0.02055,-0.0349 -0.0049,-0.149045 0.03462,-0.253731 0.05834,-0.154368 0.136625,-0.190169 0.415479,-0.190169 0.278855,0 0.357655,0.0358 0.415995,0.190169 0.03958,0.104686 0.05517,0.218841 0.03462,0.253731 -0.02055,0.0349 0.08349,0.06356 0.231511,0.06356 0.204252,0 0.248488,-0.02569 0.183968,-0.105936 -0.04676,-0.05816 -0.227175,-0.438831 -0.401009,-0.845943 -0.172475,-0.403931 -0.341974,-0.734859 -0.378789,-0.740007 h -5.16e-4 c -2.74e-4,0 -0.0012,2e-5 -0.0016,0 z m 1.946651,0 c -0.332182,0 -0.676962,0.218054 -0.676962,0.428398 0,0.203178 0.194072,0.426616 0.510564,0.588078 0.403422,0.205811 0.455555,0.472815 0.109554,0.559655 -0.174761,0.04386 -0.260418,0.01322 -0.380339,-0.134875 -0.08521,-0.105223 -0.155029,-0.15175 -0.155029,-0.10387 0,0.04788 -0.0219,0.143894 -0.04858,0.213424 -0.02978,0.07759 0.01125,0.143255 0.105937,0.170015 0.226713,0.06407 0.700671,-0.0055 0.842842,-0.123506 0.077,-0.0639 0.11401,-0.215998 0.09819,-0.403593 -0.02129,-0.252191 -0.08049,-0.331981 -0.363802,-0.49041 -0.388363,-0.217176 -0.453775,-0.475448 -0.131775,-0.520898 0.127087,-0.01794 0.249384,0.02908 0.317294,0.121956 0.04655,0.06365 0.0737,0.09641 0.0894,0.09302 2.6e-4,-7.8e-5 0.0013,-4.18e-4 0.0015,-5.17e-4 0.01629,-0.0079 0.01964,-0.06222 0.01964,-0.169499 0,-0.209205 -0.02753,-0.227376 -0.33848,-0.227376 z m 4.441072,0 v 0.888318 0.888318 h 0.52865 c 0.522004,0 0.529049,-0.0034 0.522449,-0.233061 -0.0037,-0.127992 -0.02614,-0.184767 -0.04961,-0.126607 -0.02347,0.05816 -0.172796,0.10542 -0.331763,0.10542 -0.275652,0 -0.288871,-0.01387 -0.288871,-0.305408 0,-0.291525 0.0117,-0.304237 0.253731,-0.268717 0.227185,0.03334 0.253013,0.01479 0.247013,-0.180351 -0.0024,-0.0799 -0.0146,-0.129742 -0.02842,-0.136426 h -5.17e-4 -5.16e-4 -5.17e-4 c -0.0059,7.1e-4 -0.0128,0.0086 -0.01912,0.02429 -0.02347,0.05816 -0.135089,0.10542 -0.24753,0.10542 -0.177247,0 -0.204122,-0.03941 -0.204122,-0.296106 0,-0.272582 0.02009,-0.296106 0.253731,-0.296106 0.139581,0 0.253731,0.03822 0.253731,0.08475 0,0.04653 0.03822,0.08475 0.08475,0.08475 0.04652,0 0.08423,-0.07645 0.08423,-0.169499 0,-0.151139 -0.05633,-0.168982 -0.52865,-0.168982 z m 4.525305,0 c -2.72e-4,8.4e-5 -0.0013,3.92e-4 -0.0015,5.17e-4 -0.0389,0.02091 -0.222152,0.364833 -0.415995,0.781864 -0.200045,0.430375 -0.406924,0.81073 -0.459404,0.84491 -0.05291,0.03447 0.01034,0.06233 0.142111,0.06305 0.130691,7.1e-4 0.221054,-0.02711 0.200504,-0.06201 -0.02054,-0.0349 -0.0049,-0.149045 0.03462,-0.253731 0.05793,-0.153288 0.137095,-0.190169 0.407211,-0.190169 0.272242,0 0.347932,0.03567 0.400492,0.190169 0.03562,0.104686 0.05674,0.218841 0.04754,0.253731 -0.0092,0.0349 0.102252,0.06356 0.24753,0.06356 0.20046,0 0.243601,-0.02569 0.178801,-0.105936 -0.04697,-0.05816 -0.229243,-0.438831 -0.405143,-0.845943 -0.171778,-0.39757 -0.337084,-0.724381 -0.373104,-0.73949 h -5.17e-4 v -5.17e-4 h -5.17e-4 -5.16e-4 -5.17e-4 -5.17e-4 -5.17e-4 z m 1.396298,0 v 0.891419 0.891935 l 0.507462,-0.02481 c 0.46954,-0.02279 0.509695,-0.04052 0.535885,-0.236161 0.02288,-0.170943 0.0077,-0.19089 -0.0801,-0.10542 -0.05977,0.05816 -0.234551,0.10542 -0.38809,0.10542 h -0.279052 v -0.659391 c 0,-0.400415 0.0402,-0.700111 0.101802,-0.761711 0.07896,-0.07895 0.04579,-0.101286 -0.148311,-0.101286 z m 1.607653,0 0.02894,0.803569 c 0.02073,0.568451 9.24e-4,0.803568 -0.06821,0.803568 -0.05373,0 -0.07723,0.03339 -0.05219,0.0739 0.02504,0.0405 0.293463,0.07867 0.596863,0.08527 0.550358,0.01193 0.551886,0.01142 0.545186,-0.221692 -0.0025,-0.08763 -0.01462,-0.142484 -0.02894,-0.149862 h -5.17e-4 c -2.55e-4,-7.1e-5 -0.0013,-4.75e-4 -0.0016,-5.17e-4 h -5.17e-4 l -5.17e-4,5.17e-4 h -5.17e-4 -5.17e-4 -5.16e-4 c -0.0048,0.0021 -0.01089,0.0095 -0.01602,0.02222 -0.02347,0.05816 -0.172279,0.10542 -0.331246,0.10542 -0.275652,0 -0.289388,-0.01387 -0.289388,-0.305408 0,-0.291525 0.0117,-0.303721 0.253731,-0.268201 0.224854,0.033 0.253732,0.01265 0.253732,-0.176733 0,-0.16625 -0.02234,-0.191098 -0.101286,-0.112138 -0.05583,0.05583 -0.169981,0.101286 -0.253731,0.101286 -0.11763,0 -0.152446,-0.06739 -0.152446,-0.296106 0,-0.257512 0.02711,-0.296106 0.206706,-0.296106 0.113572,0 0.230195,0.03901 0.259415,0.0863 0.07812,0.126408 0.211287,0.01399 0.155547,-0.131258 -0.0341,-0.08887 -0.183417,-0.123978 -0.525033,-0.124024 z m 2.257744,0 c -0.760518,0 -0.883915,0.658672 -0.189653,1.012858 0.352087,0.179621 0.418775,0.315547 0.241329,0.492993 -0.153443,0.153448 -0.382521,0.121818 -0.517798,-0.07131 l -0.120922,-0.172599 -0.04496,0.173116 c -0.02835,0.108409 0.0072,0.202928 0.09508,0.254248 0.339141,0.197967 0.814846,0.04518 0.947745,-0.304375 0.109223,-0.287278 -0.02055,-0.505809 -0.409277,-0.688846 -0.206414,-0.09719 -0.313676,-0.204594 -0.313676,-0.31471 0,-0.22111 0.265288,-0.266013 0.471289,-0.07958 0.156895,0.142002 0.162781,0.139353 0.162781,-0.077 0,-0.203758 -0.02963,-0.224793 -0.321944,-0.224793 z m 1.772501,0 0.295073,0.486275 c 0.237267,0.391075 0.290257,0.5566 0.268717,0.843876 -0.0197,0.262784 0.0066,0.366578 0.100253,0.391708 0.244997,0.06575 0.290246,-0.0026 0.265616,-0.403076 -0.02118,-0.344358 0.01928,-0.470987 0.278536,-0.861446 0.155488,-0.234184 0.270573,-0.42937 0.269751,-0.45527 v -5.17e-4 -5.16e-4 h -5.16e-4 v -5.17e-4 h -5.17e-4 v -5.17e-4 h -5.17e-4 -5.17e-4 c -0.124299,0 -0.304019,0.117791 -0.304374,0.199471 -2.31e-4,0.05318 -0.08903,0.207171 -0.197404,0.342615 l -0.196887,0.246496 -0.162264,-0.393774 c -0.135842,-0.330254 -0.198776,-0.394025 -0.388607,-0.394291 z m 3.13986,0 c -0.186149,8.1e-5 -0.189508,0.01691 -0.169498,0.93586 0.01785,0.820154 0.0021,0.945993 -0.129191,1.020093 -0.0824,0.0465 -0.127829,0.120541 -0.100769,0.164331 0.06422,0.10391 0.348652,-0.0475 0.451652,-0.240295 0.04293,-0.08036 0.09119,-0.53591 0.107487,-1.012858 0.02907,-0.850685 0.02627,-0.867212 -0.159681,-0.867131 z m 1.035596,0 c -0.15924,0 -0.169057,0.0456 -0.144177,0.697632 0.03222,0.844236 0.04638,0.893344 0.289905,0.991154 0.282608,0.113506 0.466797,0.103146 0.746207,-0.04134 0.137271,-0.07098 0.253249,-0.137872 0.257349,-0.148312 0.0041,-0.01044 0.03246,-0.352014 0.06356,-0.759126 0.05212,-0.682183 0.04437,-0.740007 -0.0987,-0.740007 -0.13999,0 -0.149578,0.05187 -0.09922,0.52865 0.03264,0.309011 0.01912,0.624543 -0.03256,0.759127 -0.117185,0.30518 -0.462717,0.395481 -0.698148,0.182418 -0.152705,-0.138204 -0.169851,-0.237204 -0.143661,-0.813904 0.02777,-0.611458 0.01822,-0.656291 -0.14056,-0.656291 z m 1.860869,0 v 0.845943 0.845943 h 0.21549 c 0.195955,0 0.212791,-0.02687 0.181901,-0.291455 -0.05728,-0.490677 0.02473,-0.520321 0.305925,-0.111621 0.157236,0.228534 0.348829,0.40394 0.45992,0.42168 0.277951,0.04439 0.285786,0.0056 0.05271,-0.252181 -0.445667,-0.492887 -0.45726,-0.522623 -0.256832,-0.663009 0.236225,-0.165459 0.247607,-0.585685 0.01912,-0.707967 -0.09,-0.04816 -0.346962,-0.08733 -0.571024,-0.08733 z m 2.960542,0 v 0.888318 0.888318 h 0.362252 c 1.053687,0 1.639361,-0.931036 0.964799,-1.533757 -0.237949,-0.212606 -0.338137,-0.242879 -0.799434,-0.242879 z m 2.368848,0 c -0.157869,3e-6 -0.168982,0.05647 -0.168982,0.842843 0,0.776812 0.01304,0.844814 0.168982,0.871264 0.219002,0.03714 0.343342,-0.0252 0.211873,-0.106453 -0.07183,-0.04439 -0.09387,-0.294241 -0.07286,-0.835608 0.02817,-0.725699 0.02001,-0.772049 -0.13901,-0.772046 z m 5.511808,0 c -0.727174,0 -0.863019,0.540469 -0.240812,0.957564 0.269039,0.18035 0.357084,0.291711 0.337964,0.425814 -0.03631,0.254723 -0.348868,0.278535 -0.567924,0.04341 l -0.176733,-0.189652 v 0.220141 c 0,0.121214 0.04726,0.239564 0.105419,0.263034 0.366641,0.147942 0.88855,-0.04194 0.96635,-0.351917 0.06869,-0.273689 -0.04084,-0.437905 -0.445451,-0.667143 -0.360337,-0.204153 -0.410392,-0.336272 -0.182418,-0.480074 0.109454,-0.06904 0.191038,-0.06599 0.315743,0.01189 0.225984,0.14113 0.255282,0.133772 0.255282,-0.06408 0,-0.143229 -0.05625,-0.168982 -0.36742,-0.168982 z m -75.116345,0.0052 c -0.063381,-3.33e-4 -0.1392728,0.0053 -0.2351277,0.01447 -0.6906688,0.06637 -1.0014715,0.495516 -0.8242391,1.137398 0.050926,0.184438 0.1782786,0.349622 0.3498494,0.454236 0.3247849,0.198035 0.5754306,0.208113 0.9069214,0.03669 0.539978,-0.279233 0.664914,-0.993383 0.247013,-1.411284 C 9.8485506,73.026572 9.769921,72.971739 9.579777,72.97074 Z m 5.623429,0.01033 c -0.532638,0.04219 -0.860412,0.375523 -0.860412,0.89917 0,0.278205 0.271694,0.670348 0.540018,0.778764 0.38901,0.157177 0.982369,0.02718 0.982369,-0.215491 0,-0.121359 -0.01756,-0.122021 -0.188102,-0.0026 -0.42988,0.3011 -0.892926,0.05138 -0.969966,-0.522965 -0.06952,-0.518324 0.123402,-0.783415 0.570507,-0.783415 0.22337,0 0.35601,0.04353 0.38809,0.127124 0.0755,0.196763 0.202026,0.149425 0.170016,-0.06356 -0.02378,-0.15821 -0.08981,-0.194941 -0.391707,-0.217041 -0.08408,-0.0062 -0.164721,-0.006 -0.240813,0 z m 43.486752,0 c -0.538256,0.04196 -0.865581,0.373316 -0.865581,0.89917 0,0.278205 0.271695,0.670348 0.540019,0.778764 0.244965,0.09898 0.590385,0.09926 0.850077,5.17e-4 0.183324,-0.0697 0.217041,-0.135594 0.217041,-0.42323 0,-0.297853 -0.02428,-0.340031 -0.192753,-0.340031 -0.173654,0 -0.189297,0.03284 -0.160197,0.337964 0.03147,0.329979 0.02582,0.33848 -0.234094,0.33848 -0.563449,0 -0.896396,-0.756009 -0.550354,-1.250053 0.164388,-0.234694 0.667379,-0.257088 0.906922,-0.04031 0.07875,0.07126 0.119135,0.106395 0.136425,0.09819 0.01631,-0.0094 0.01103,-0.06097 -0.0031,-0.161231 -0.02588,-0.183627 -0.07837,-0.215118 -0.401009,-0.238228 -0.08515,-0.0061 -0.166503,-0.006 -0.243396,0 z m 22.116996,0 c -0.179947,0.0087 -0.3542,0.04603 -0.464054,0.102836 -0.549928,0.284378 -0.56423,1.102842 -0.02532,1.465027 0.442147,0.297156 1.117682,0.219173 1.101742,-0.127124 -0.002,-0.04319 -0.0085,-0.0689 -0.01757,-0.07545 l -5.17e-4,-5.16e-4 v -5.17e-4 h -5.17e-4 -5.17e-4 c -4.32e-4,-1.4e-4 -0.0019,-4.17e-4 -0.0026,-5.17e-4 -3.13e-4,-2.5e-5 -8.09e-4,-10e-6 -0.001,0 -0.0073,0.0012 -0.01679,0.01282 -0.02584,0.03514 -0.0592,0.146048 -0.571669,0.225505 -0.769979,0.119373 -0.38453,-0.205794 -0.458532,-1.090842 -0.10697,-1.278992 0.244334,-0.130759 0.604277,-0.102441 0.785998,0.06201 0.07875,0.07126 0.119652,0.106395 0.136943,0.09819 0.01631,-0.0094 0.01103,-0.06097 -0.0031,-0.161231 -0.0263,-0.186578 -0.07638,-0.214584 -0.427364,-0.237194 -0.05909,-0.0038 -0.119335,-0.0039 -0.179317,-0.001 z m -37.548613,0.0036 c -0.04119,0.01373 -0.23247,0.3673 -0.42478,0.785482 -0.192309,0.418181 -0.387385,0.785301 -0.433565,0.815971 -0.04618,0.03067 0.0077,0.07342 0.119889,0.09457 0.112228,0.02115 0.218001,0.04331 0.234611,0.04961 7.79e-4,2.97e-4 0.0014,4.31e-4 0.0021,5.17e-4 l 5.17e-4,5.17e-4 5.17e-4,-5.17e-4 c 9.9e-5,-1.9e-5 0.0012,-1.2e-5 0.0016,0 h 5.17e-4 l 5.17e-4,-5.17e-4 5.16e-4,-5.16e-4 h 5.17e-4 v -5.17e-4 c 0.0065,-0.0096 5.79e-4,-0.04667 -0.01705,-0.09302 -0.02213,-0.05816 -0.0084,-0.19142 0.03049,-0.296106 0.05743,-0.154488 0.135357,-0.190169 0.413928,-0.190169 0.313676,0 0.347901,0.02179 0.394291,0.253731 0.04348,0.217409 0.08824,0.253281 0.31471,0.252181 0.145399,-7.2e-4 0.224797,-0.02885 0.176217,-0.06305 -0.04857,-0.03418 -0.234997,-0.415581 -0.414445,-0.847494 -0.178047,-0.428537 -0.357473,-0.768798 -0.400493,-0.760677 z m 39.51025,0 c -0.0032,1.48e-4 -0.0064,5.19e-4 -0.0093,0.0016 -0.0472,0.01573 -0.230319,0.350647 -0.406694,0.74414 -0.176375,0.393493 -0.361071,0.760394 -0.410311,0.815454 -0.06565,0.0734 -0.03893,0.110243 0.09922,0.136943 0.103627,0.02003 0.201981,0.04124 0.218591,0.04754 h 5.17e-4 v 5.17e-4 h 5.17e-4 5.17e-4 5.16e-4 5.17e-4 5.17e-4 c 1.84e-4,-7.4e-5 0.0014,-4.15e-4 0.0016,-5.17e-4 l 5.17e-4,-5.16e-4 5.17e-4,-5.17e-4 c 0.0065,-0.01108 -0.0036,-0.05982 -0.02687,-0.120406 -0.09977,-0.260004 0.100637,-0.458887 0.46147,-0.458887 0.307344,0 0.34187,0.02264 0.38809,0.253731 0.04285,0.214244 0.09031,0.253731 0.304375,0.253731 0.220972,0 0.239333,-0.01691 0.143143,-0.132808 -0.100952,-0.121639 -0.382255,-0.742358 -0.602547,-1.330151 -0.0457,-0.121935 -0.117153,-0.212015 -0.164848,-0.209807 z m -55.946972,0.03514 c -0.04892,0.01273 -0.220845,0.323692 -0.389641,0.706934 -0.174185,0.39548 -0.359571,0.766596 -0.411861,0.824756 -0.07359,0.08185 -0.0451,0.105936 0.125057,0.105936 0.120897,0 0.202968,-0.02866 0.182418,-0.06356 -0.02055,-0.0349 -0.0049,-0.149045 0.03462,-0.253731 0.138906,-0.367535 0.894374,-0.177946 0.829924,0.208256 -0.0061,0.03678 -0.0065,0.09511 -0.001,0.129708 0.0055,0.03464 0.0953,0.0469 0.199988,0.02739 0.104686,-0.01952 0.220619,-0.03836 0.257349,-0.04186 0.03673,-0.0035 0.02387,-0.05398 -0.02842,-0.112138 -0.05229,-0.05816 -0.234989,-0.423627 -0.406177,-0.812354 -0.171188,-0.388726 -0.34584,-0.712536 -0.38809,-0.719336 h -5.17e-4 -5.17e-4 c -3.42e-4,7e-6 -6.33e-4,-2.5e-5 -0.001,0 h -5.17e-4 -5.17e-4 c -3.7e-4,6.3e-5 -6.48e-4,-10e-5 -0.001,0 z m -8.545215,0.108521 c 0.163727,0 0.327341,0.06478 0.418062,0.194303 0.191782,0.273806 0.170787,0.872557 -0.03772,1.081071 -0.226318,0.22632 -0.471206,0.212993 -0.722953,-0.03876 -0.245158,-0.245161 -0.28185,-0.748376 -0.07596,-1.042314 0.09072,-0.129523 0.254851,-0.194303 0.418579,-0.194303 z m 10.277925,0.0062 h 0.239262 c 0.347769,0 0.606682,0.313012 0.606682,0.732772 0,0.218808 -0.05279,0.387352 -0.147795,0.470772 -0.176444,0.154942 -0.445614,0.235747 -0.592212,0.177767 -0.07217,-0.02854 -0.105937,-0.254519 -0.105937,-0.711584 z m 48.895724,0 c 0.372308,0 0.592212,0.262056 0.592212,0.7059 0,0.248656 -0.04986,0.413269 -0.154513,0.507979 -0.08509,0.077 -0.288097,0.140044 -0.451135,0.140044 -0.257271,0 -0.293755,-0.02549 -0.275435,-0.190686 0.01161,-0.104686 0.02401,-0.408915 0.02791,-0.676445 0.007,-0.482517 0.0092,-0.486792 0.260966,-0.486792 z m -68.0919679,0.0016 c 0.2522153,0.0016 0.3627743,0.0715 0.4883423,0.310059 0.1486423,0.282397 0.1163639,0.656687 -0.078031,0.903821 -0.3731291,0.474356 -0.9244914,0.151278 -0.9244914,-0.541569 0,-0.443986 0.1763811,-0.674411 0.5141805,-0.672311 z m 64.9769129,0 c 0.002,-2.14e-4 0.0041,-2.5e-5 0.0062,0 0.202695,0.0025 0.33169,0.146077 0.30334,0.337447 -0.01571,0.106062 -0.113836,0.224027 -0.218591,0.262517 -0.177158,0.06508 -0.190169,0.04679 -0.190169,-0.265617 0,-0.206166 0.036,-0.327715 0.09922,-0.334347 z m -33.145781,0.01447 c 0.152467,-0.0095 0.345361,0.278378 0.2651,0.408244 -0.07795,0.126134 -0.365256,0.261432 -0.403076,0.189652 -0.09108,-0.17287 -0.0087,-0.570516 0.123507,-0.596346 0.0048,-9.42e-4 0.0096,-0.0012 0.01447,-0.0015 z m -14.423926,0.280086 0.09095,0.238228 c 0.05003,0.130979 0.09095,0.254689 0.09095,0.274919 v 5.17e-4 5.16e-4 c -1.03e-4,4.6e-4 -4.15e-4,0.0012 -5.16e-4,0.0016 v 5.17e-4 c -1.7e-4,2.89e-4 -8.25e-4,0.0013 -0.001,0.0016 -0.01533,0.0177 -0.104166,0.03204 -0.209806,0.03204 -0.240962,0 -0.252524,-0.04306 -0.08837,-0.33848 z m 55.909766,0.01189 0.13901,0.269234 0.139009,0.268717 h -0.255798 c -0.285293,0 -0.300474,-0.03613 -0.136426,-0.332279 z m -21.987805,0.03049 c 5.2e-4,-1.08e-4 0.001,5.4e-5 0.0016,0 h 5.17e-4 5.17e-4 5.16e-4 c 0.03178,0 0.100789,0.11415 0.153479,0.253731 0.09254,0.245184 0.08757,0.253731 -0.146244,0.253731 -0.232196,0 -0.238349,-0.01027 -0.153479,-0.253731 0.04715,-0.135253 0.110362,-0.246951 0.143144,-0.253731 z m -17.508492,0.01344 c 0.0013,-1.03e-4 0.0028,-3.3e-5 0.0041,0 0.04572,0.0011 0.08955,0.08052 0.149862,0.240295 0.09279,0.245784 0.08781,0.253731 -0.150896,0.253731 -0.280525,0 -0.281009,-7.3e-4 -0.148311,-0.291972 0.05957,-0.13073 0.103473,-0.198878 0.145211,-0.202054 z m 6.636804,0.02842 c 0.01684,-0.0018 0.02972,0.01267 0.03927,0.04289 0.02205,0.06979 0.07439,0.193499 0.116272,0.274919 0.06446,0.125331 0.03679,0.147794 -0.182418,0.147794 h -0.258899 l 0.142627,-0.274918 c 0.06488,-0.125003 0.111004,-0.187298 0.143144,-0.190686 z m 3.17655,0.897102 c -0.0347,-0.0011 -0.07511,0.0064 -0.120406,0.02377 -0.11539,0.04428 -0.122568,0.07813 -0.03772,0.18035 0.08295,0.09995 0.08255,0.151957 -0.001,0.252698 -0.07036,0.08478 -0.07403,0.127124 -0.01189,0.127124 0.05115,0 0.156315,-0.0973 0.234095,-0.216007 0.130338,-0.198922 0.08732,-0.363099 -0.06305,-0.367937 z M 42.5974,78.552828 23.923088,78.628792 c -11.402979,0.0032 -17.193783,0.0333 -17.193783,0.0894 0,0.05607 4.914627,0.08423 14.575338,0.08423 5.241206,0.0019 10.542113,-0.220184 15.757177,0.235645 0.627339,0.0506 1.122789,0.135374 1.28571,0.219624 0.145803,0.0754 0.372035,0.132958 0.502295,0.128158 0.101598,-0.0037 0.158492,-0.0061 0.167948,-0.01292 h 5.17e-4 l 5.17e-4,-5.17e-4 v -5.17e-4 l 5.17e-4,-5.16e-4 v -5.17e-4 -5.17e-4 h -5.17e-4 v -5.17e-4 -5.16e-4 h -5.17e-4 l -5.17e-4,-5.17e-4 c -0.01185,-0.0097 -0.07954,-0.02638 -0.205672,-0.05633 -0.150926,-0.03583 -0.32631,-0.108154 -0.38964,-0.160714 -0.06333,-0.05256 -0.263198,-0.150114 -0.444417,-0.216524 -0.10817,-0.03963 -0.178591,-0.06761 -0.188619,-0.08578 -1.31e-4,-2.89e-4 -4.18e-4,-7.5e-4 -5.17e-4,-0.001 v -5.17e-4 -5.16e-4 l -5.17e-4,-5.17e-4 v -5.17e-4 l 5.17e-4,-5.17e-4 v -5.16e-4 -5.17e-4 -5.17e-4 l 5.17e-4,-5.17e-4 v -5.16e-4 -5.17e-4 h 5.16e-4 v -5.17e-4 l 5.17e-4,-5.17e-4 c 0.02447,-0.02667 0.250532,-0.02961 0.796851,-0.03307 0.958182,-0.0061 1.177975,0.04712 1.725993,0.417546 0.248245,0.167781 0.592212,0.266515 0.592212,0.170015 0,-0.03705 -0.175674,-0.14981 -0.390158,-0.25063 -0.201079,-0.09452 -0.351122,-0.189889 -0.349849,-0.220659 v -5.16e-4 -5.17e-4 -5.17e-4 l 5.17e-4,-5.17e-4 c 9.5e-5,-2.2e-4 3.99e-4,-0.0012 5.17e-4,-0.0016 l 5.16e-4,-5.17e-4 v -5.17e-4 l 5.17e-4,-5.16e-4 c 0.07844,-0.07844 0.627229,0.200589 1.166854,0.593245 0.687683,0.500388 1.061336,0.539968 0.501261,0.05323 -0.209372,-0.181959 -0.570933,-0.426808 -0.803568,-0.544153 -0.241538,-0.121836 -0.341884,-0.174288 -0.330729,-0.197404 3.7e-4,-5.88e-4 0.0015,-0.002 0.0021,-0.0026 0.0144,-0.01272 0.07339,-0.01541 0.167948,-0.01654 0.67129,-0.0081 1.562106,0.110143 1.476396,0.195853 -0.167514,0.167514 -0.09439,0.538781 0.160197,0.81132 0.137127,0.146794 0.248735,0.292368 0.248047,0.322978 v 5.17e-4 c 4.5e-5,2.37e-4 4.46e-4,0.0014 5.16e-4,0.0015 0.02399,0.06332 0.832292,0.352827 0.982886,0.350366 0.0031,-5e-5 0.006,-4.15e-4 0.0078,-0.001 l 5.16e-4,-5.17e-4 5.17e-4,-5.17e-4 h 5.17e-4 l 5.17e-4,-5.16e-4 v -5.17e-4 l 5.16e-4,-5.17e-4 5.17e-4,-5.17e-4 v -5.17e-4 -5.16e-4 c -6.42e-4,-0.01987 -0.09746,-0.08601 -0.242879,-0.162781 -0.34527,-0.182289 -0.528124,-0.41419 -0.619084,-0.783932 -0.07378,-0.29991 0.101243,-0.649056 0.325562,-0.649056 0.12486,0 0.143494,0.02653 0.07545,0.108521 -0.04953,0.05968 -0.132725,0.221611 -0.184485,0.359668 l -0.09405,0.250631 0.242363,-0.287321 c 0.229492,-0.272673 0.264305,-0.285442 0.660425,-0.240812 0.360188,0.04058 0.460717,0.09694 0.727087,0.406176 0.170036,0.1974 0.331688,0.472981 0.359668,0.612883 0.106852,0.53426 0.388607,0.645884 0.388607,0.153996 0,-0.377772 0.2093,-0.635273 0.347782,-0.427881 0.04463,0.0668 0.06098,0.258496 0.03669,0.425813 -0.02434,0.167317 -0.02038,0.327925 0.0088,0.357085 0.144846,0.144847 0.49156,-0.460669 0.42013,-0.733806 -0.0341,-0.130401 0.03798,-0.266639 0.26355,-0.497644 0.276721,-0.283384 0.356808,-0.318327 0.731221,-0.318327 0.272373,0 0.474387,0.04931 0.574642,0.140044 0.08508,0.077 0.155029,0.09853 0.155029,0.04754 0,-0.051 -0.03822,-0.116451 -0.08475,-0.145211 -0.166749,-0.103057 -0.0797,-0.211357 0.169499,-0.211357 0.276858,0 0.333571,0.116106 0.116272,0.237712 -0.12017,0.06725 -0.124082,0.117906 -0.02946,0.404627 0.0929,0.281464 0.117343,0.304315 0.173633,0.160196 0.03606,-0.09231 0.06853,-0.277697 0.07183,-0.411344 0.005,-0.206152 0.02515,-0.226799 0.132809,-0.137459 0.306904,0.254707 0.01855,0.717742 -0.657325,1.055749 l -0.44235,0.221175 0.33538,-0.05323 c 0.371134,-0.05937 0.708975,-0.269156 0.972034,-0.603581 0.21869,-0.278042 0.218025,-0.454917 -0.0026,-0.735356 l -0.175183,-0.223242 1.042314,0.0041 1.042313,0.0041 -0.428914,0.22841 c -0.586974,0.312664 -1.254448,0.80951 -1.138949,0.84801 0.14994,0.04998 0.522543,-0.06653 0.472323,-0.147794 -0.05382,-0.08708 0.65274,-0.555962 1.04283,-0.691948 0.459915,-0.160326 0.402826,-0.0062 -0.08216,0.222209 l -0.457337,0.215491 0.328146,-0.04134 c 0.180248,-0.02285 0.394913,-0.102464 0.476973,-0.176734 0.319445,-0.289093 0.989659,-0.464571 1.776119,-0.464571 0.450567,0 0.760677,0.03463 0.760677,0.08475 0,0.04652 -0.05076,0.08475 -0.112654,0.08475 -0.14982,0 -0.977009,0.346963 -1.000456,0.409794 v 5.17e-4 5.16e-4 5.17e-4 l -5.17e-4,5.17e-4 5.17e-4,5.17e-4 v 5.17e-4 5.16e-4 5.17e-4 l 5.17e-4,5.17e-4 v 5.17e-4 l 5.16e-4,5.16e-4 c 1.03e-4,8e-5 0.0012,8.18e-4 0.0016,0.001 0.0027,0.0014 0.0074,0.0024 0.01344,0.0026 0.0714,0.002 0.352589,-0.07436 0.624768,-0.170016 0.338408,-0.118941 0.812219,-0.190282 1.498616,-0.224792 5.315578,-0.328935 10.681719,-0.134987 16.019177,-0.193787 9.953973,0 15.015621,-0.02815 15.015621,-0.08423 0,-0.05611 -6.303353,-0.08872 -18.716687,-0.09664 -10.294114,-0.0066 -18.792619,-0.01921 -18.885669,-0.02791 z m 8.412406,0.334346 c 0.0014,-1.45e-4 0.0032,0 0.0047,0 0.02327,0 0.04237,0.01911 0.04237,0.04237 0,0.02327 -0.01911,0.04238 -0.04237,0.04238 -0.02327,0 -0.04237,-0.0191 -0.04237,-0.04238 0,-0.02181 0.01647,-0.04021 0.03772,-0.04237 z m -8.439795,0.211874 c 8.42e-4,-1.03e-4 0.0017,9e-6 0.0026,0 0.05577,-5.54e-4 0.109037,0.08168 0.109037,0.219625 0,0.09216 0.07705,0.318041 0.171049,0.502295 0.09958,0.195192 0.146274,0.298428 0.133842,0.315743 l -5.16e-4,5.16e-4 -5.17e-4,5.17e-4 -5.17e-4,5.17e-4 c -0.01779,0.009 -0.09363,-0.06461 -0.232544,-0.214974 -0.259819,-0.28125 -0.345219,-0.499347 -0.278019,-0.711068 0.02333,-0.0735 0.0584,-0.109013 0.09302,-0.112654 9.01e-4,-9.6e-5 0.0017,-4.14e-4 0.0026,-5.17e-4 z m -1.383894,0.63407 c -0.09474,0 0.102316,0.198859 0.341581,0.344681 0.191449,0.116675 0.348386,0.147651 0.561723,0.110071 0.449872,-0.07925 0.510097,-0.201021 0.09922,-0.201021 -0.196908,0 -0.494943,-0.05682 -0.661975,-0.126607 -0.167033,-0.06979 -0.320217,-0.127124 -0.340547,-0.127124 z m 8.659419,0.0031 c -0.06039,0.0024 -0.168751,0.04236 -0.311609,0.124024 -0.116317,0.06649 -0.356594,0.121906 -0.533817,0.123506 -0.19264,0.0018 -0.301011,0.03728 -0.269751,0.08785 0.02875,0.04652 0.219198,0.08423 0.42323,0.08423 0.27393,0 0.432964,-0.05458 0.608231,-0.208773 0.157843,-0.138865 0.171975,-0.214413 0.08372,-0.21084 z m -3.51038,0.422713 -5.17e-4,5.17e-4 h -5.16e-4 c -0.009,0.0067 -0.01131,0.04176 -0.0124,0.104903 -0.0014,0.08288 -0.05689,0.171844 -0.123506,0.197404 -0.06662,0.02556 -0.116171,0.11258 -0.110071,0.19327 0.01086,0.14417 -0.440345,0.92986 -0.537435,0.93586 -2.41e-4,1.5e-5 -8.15e-4,1.2e-5 -0.001,0 h -5.16e-4 -5.17e-4 -5.17e-4 c -0.07225,-0.02234 -0.497644,-0.855867 -0.497644,-0.978751 0,-0.120612 -0.296078,-0.386061 -0.359668,-0.322461 -0.08641,0.08641 0.268281,0.992766 0.551904,1.41025 0.147736,0.217462 0.287676,0.395793 0.314193,0.401009 h 5.17e-4 5.17e-4 5.16e-4 c 2.17e-4,-5.8e-5 0.0013,-4.31e-4 0.0016,-5.17e-4 0.03109,-0.014 0.193287,-0.237945 0.367936,-0.509013 0.413999,-0.642557 0.593325,-1.140635 0.480074,-1.334802 -0.03732,-0.064 -0.05851,-0.09663 -0.07028,-0.09767 h -5.17e-4 -5.16e-4 -5.17e-4 -5.17e-4 z m -3.187919,0.208773 0.134876,0.211357 c 0.07897,0.123741 0.30708,0.2716 0.549837,0.35605 0.228193,0.07938 0.471779,0.143211 0.541569,0.142111 0.03039,-4.85e-4 0.05203,-0.0016 0.05943,-0.0067 4.3e-4,-3.57e-4 0.0018,-0.0017 0.0021,-0.0021 v -5.17e-4 l 5.17e-4,-5.17e-4 5.16e-4,-5.17e-4 v -5.16e-4 -5.17e-4 -5.17e-4 c -5.2e-5,-2.54e-4 -4.28e-4,-0.0012 -5.16e-4,-0.0016 -0.01075,-0.02399 -0.157479,-0.08982 -0.569475,-0.267684 -0.162844,-0.0703 -0.391144,-0.195289 -0.507462,-0.278019 z m 4.666382,0.142627 c -0.04547,0.0041 -0.198457,0.08021 -0.512113,0.239262 -0.274087,0.138992 -0.55017,0.252698 -0.6134,0.252698 -0.06323,0 -0.115238,0.03558 -0.115238,0.07906 0,0.12295 0.9798,-0.238291 1.1467,-0.422713 0.06764,-0.07474 0.108646,-0.124077 0.10852,-0.142111 -2.3e-5,-2.74e-4 4.6e-5,-7.74e-4 0,-0.001 -1.35e-4,-3.06e-4 -7.3e-4,-0.0016 -0.001,-0.0021 l -5.17e-4,-5.17e-4 c -0.0024,-0.0019 -0.0069,-0.0031 -0.01292,-0.0026 z m 38.811068,2.775541 c -0.02127,0.0022 -0.03824,0.02056 -0.03824,0.04238 0,0.02327 0.01911,0.04237 0.04238,0.04237 0.02327,0 0.04237,-0.01911 0.04237,-0.04237 0,-0.02327 -0.01911,-0.04238 -0.04237,-0.04238 -0.0015,0 -0.0027,-1.45e-4 -0.0041,0 z"
     sodipodi:nodetypes="cscccccsssscccccsssccssssssccccccccsssccccssssccsssssssscccsccccccccccscccccsssssssscssccccsccccsssssscssssssccsccccsssssssssscssscsssssccsscssssscccsccccccccccccsssssscccccsscsssccsscccscssccscccscccccssssssssssssccsssssssssssssssccccccccccccccsssssssccccccccccccsssscccssssssssscccccccccccccsssccccccccccccsssssccccccccccccsccccsssssccccsccsssscsssssscsccsssssssssssssccsscccscssssccccccssssssscccsssscsssssscccccccccccccssscssscccssccccccccccsssssssssssccsssccccssssssccssssscccccccsscccccssssssssssssssssssscccssssssssccccssscsssssssssccssssssssscssscscssscsssscccssssssssscsscsssscccccscsssscssscsssscccccccccscsssssccscsssccccccccccccsssssscssssccsssssccsccccsssssscssssscssssscscssscscsssscssscccscccccscccccsccscccsssssscsssscssscccscsssssccsccscccccccccccccsssccccccccccccccccssssccccccccsssscccsssccscccccccccssssscccsssscccsssssssssscccccscccccsssccccsssccccccccccccccsccscccssssssssssccccsssssssssscscssscccccscsccccssscccccsscccccccssscccccccccscccsssscccccssssss" /></svg>
