<?xml version="1.0" encoding="UTF-8" standalone="no"?>
<!-- Created with Inkscape (http://www.inkscape.org/) -->

<svg
   width="90mm"
   height="90mm"
   viewBox="0 0 90 90"
   version="1.1"
   id="svg1"
   xml:space="preserve"
   sodipodi:docname="Isologo.svg"
   inkscape:version="1.4.3 (0d15f75, 2025-12-25)"
   inkscape:export-filename="Isologo (Favicon fallback).png"
   inkscape:export-xdpi="9.0311117"
   inkscape:export-ydpi="9.0311117"
   xmlns:inkscape="http://www.inkscape.org/namespaces/inkscape"
   xmlns:sodipodi="http://sodipodi.sourceforge.net/DTD/sodipodi-0.dtd"
   xmlns:xlink="http://www.w3.org/1999/xlink"
   xmlns="http://www.w3.org/2000/svg"
   xmlns:svg="http://www.w3.org/2000/svg"><sodipodi:namedview
     id="namedview1"
     pagecolor="#ffffff"
     bordercolor="#000000"
     borderopacity="0.25"
     inkscape:showpageshadow="2"
     inkscape:pageopacity="0.0"
     inkscape:pagecheckerboard="0"
     inkscape:deskcolor="#d1d1d1"
     inkscape:document-units="mm"
     showguides="true"
     inkscape:zoom="2"
     inkscape:cx="158.25"
     inkscape:cy="166.75"
     inkscape:window-width="1920"
     inkscape:window-height="1094"
     inkscape:window-x="-11"
     inkscape:window-y="-11"
     inkscape:window-maximized="1"
     inkscape:current-layer="svg1" /><defs
     id="defs1"><linearGradient
       id="linearGradient3"
       inkscape:collect="always"><stop
         style="stop-color:#d7ac65;stop-opacity:1;"
         offset="0"
         id="stop4" /><stop
         style="stop-color:#e8bd81;stop-opacity:1;"
         offset="0.39756098"
         id="stop5" /><stop
         style="stop-color:#d0a55e;stop-opacity:1;"
         offset="0.69878048"
         id="stop6" /><stop
         style="stop-color:#edcf9c;stop-opacity:1;"
         offset="1"
         id="stop3" /></linearGradient><inkscape:path-effect
       effect="fillet_chamfer"
       id="path-effect2"
       is_visible="true"
       lpeversion="1"
       nodesatellites_param="F,0,0,1,0,0,0,1 @ F,0,0,1,0,0,0,1 @ F,0,0,1,0,0,0,1 @ F,0,0,1,0,0,0,1 @ F,0,0,1,0,0,0,1 @ F,0,0,1,0,0,0,1 @ F,0,0,1,0,0,0,1 @ F,0,0,1,0,0,0,1 @ F,0,0,1,0,0,0,1 @ F,0,0,1,0,0,0,1 | F,0,0,1,0,0,0,1 @ F,0,0,1,0,0,0,1 @ F,0,0,1,0,0,0,1 @ F,0,0,1,0,0,0,1 @ F,0,0,1,0,0,0,1 @ F,0,0,1,0,0,0,1 @ F,0,0,1,0,0,0,1 @ F,0,0,1,0,0,0,1 @ F,0,0,1,0,0,0,1 @ F,0,0,1,0,0,0,1 @ F,0,0,1,0,0,0,1 @ F,0,0,1,0,0,0,1 @ F,0,0,1,0,0,0,1 @ F,0,0,1,0,0,0,1 @ F,0,0,1,0,0,0,1 @ F,0,0,1,0,0,0,1 @ F,0,0,1,0,0,0,1 @ F,0,0,1,0,0,0,1 @ F,0,0,1,0,0,0,1 @ F,0,0,1,0,0,0,1 @ F,0,0,1,0,0,0,1 @ F,0,0,1,0,0,0,1 @ F,0,0,1,0,0,0,1 @ F,0,0,1,0,0,0,1 @ F,0,0,1,0,0,0,1 @ F,0,0,1,0,0,0,1 @ F,0,0,1,0,0,0,1 @ F,0,0,1,0,0,0,1 @ F,0,0,1,0,0,0,1 @ F,0,0,1,0,0,0,1 @ F,0,0,1,0,0,0,1 @ F,0,0,1,0,0,0,1 @ F,0,0,1,0,0,0,1 @ F,0,0,1,0,0,0,1 @ F,0,0,1,0,0,0,1 @ F,0,0,1,0,0,0,1 @ F,0,0,1,0,0,0,1 @ F,0,0,1,0,0,0,1 @ F,0,0,1,0,0,0,1 @ F,0,0,1,0,0,0,1 @ F,0,0,1,0,0,0,1 @ F,0,0,1,0,0,0,1 @ F,0,0,1,0,0,0,1 @ F,0,0,1,0,0,0,1 @ F,0,0,1,0,0,0,1 @ F,0,0,1,0,0,0,1 @ F,0,0,1,0,0,0,1 @ F,0,0,1,0,0,0,1 @ F,0,0,1,0,0,0,1 @ F,0,0,1,0,0,0,1 @ F,0,0,1,0,0,0,1 @ F,0,0,1,0,0,0,1 @ F,0,0,1,0,0,0,1 @ F,0,0,1,0,0,0,1 @ F,0,0,1,0,0,0,1 @ F,0,0,1,0,0,0,1 @ F,0,0,1,0,0,0,1 @ F,0,0,1,0,0,0,1 @ F,0,0,1,0,0,0,1 @ F,0,0,1,0,0,0,1 @ F,0,0,1,0,0,0,1 @ F,0,0,1,0,0,0,1 @ F,0,0,1,0,0,0,1 @ F,0,0,1,0,0,0,1 @ F,0,0,1,0,0,0,1 @ F,0,0,1,0,0,0,1 @ F,0,0,1,0,0,0,1 @ F,0,0,1,0,0,0,1 @ F,0,0,1,0,0,0,1 @ F,0,0,1,0,0,0,1 @ F,0,0,1,0,0,0,1 @ F,0,0,1,0,0,0,1 @ F,0,0,1,0,0,0,1 @ F,0,0,1,0,0,0,1 @ F,0,0,1,0,0,0,1 @ F,0,0,1,0,0,0,1 @ F,0,0,1,0,0,0,1 @ F,0,0,1,0,0,0,1 @ F,0,0,1,0,0,0,1 @ F,0,0,1,0,0,0,1 @ F,0,0,1,0,0,0,1 @ F,0,0,1,0,0,0,1 @ F,0,0,1,0,0,0,1 @ F,0,0,1,0,0,0,1 @ F,0,0,1,0,0,0,1 @ F,0,0,1,0,0,0,1 @ F,0,0,1,0,0,0,1 @ F,0,0,1,0,0,0,1 @ F,0,0,1,0,0,0,1 @ F,0,0,1,0,0,0,1 @ F,0,0,1,0,0,0,1 @ F,0,0,1,0,0,0,1 @ F,0,0,1,0,0,0,1 @ F,0,0,1,0,0,0,1 @ F,0,0,1,0,0,0,1 @ F,0,0,1,0,0,0,1 @ F,0,0,1,0,0,0,1 @ F,0,0,1,0,0,0,1 @ F,0,0,1,0,0,0,1 @ F,0,0,1,0,0,0,1 @ F,0,0,1,0,0,0,1 @ F,0,0,1,0,0,0,1 @ F,0,0,1,0,0,0,1 @ F,0,0,1,0,0,0,1 @ F,0,0,1,0,0,0,1 @ F,0,0,1,0,0,0,1 @ F,0,0,1,0,0,0,1 @ F,0,0,1,0,0,0,1 @ F,0,0,1,0,0,0,1 @ F,0,0,1,0,0,0,1 @ F,0,0,1,0,0,0,1 @ F,0,0,1,0,0,0,1 @ F,0,0,1,0,0,0,1 @ F,0,0,1,0,0,0,1 @ F,0,0,1,0,0,0,1 @ F,0,0,1,0,0,0,1 @ F,0,0,1,0,0,0,1 @ F,0,0,1,0,0,0,1 @ F,0,0,1,0,0,0,1 @ F,0,0,1,0,0,0,1 @ F,0,0,1,0,0,0,1 @ F,0,0,1,0,0,0,1 @ F,0,0,1,0,0,0,1 @ F,0,0,1,0,0,0,1 @ F,0,0,1,0,0,0,1 @ F,0,0,1,0,0,0,1 @ F,0,0,1,0,0,0,1 @ F,0,0,1,0,0,0,1 @ F,0,0,1,0,0,0,1 @ F,0,0,1,0,0,0,1 @ F,0,0,1,0,0,0,1 @ F,0,0,1,0,0,0,1 @ F,0,0,1,0,0,0,1 @ F,0,0,1,0,0,0,1 @ F,0,0,1,0,0,0,1 @ F,0,0,1,0,0,0,1 @ F,0,0,1,0,0,0,1 @ F,0,0,1,0,0,0,1 @ F,0,0,1,0,0,0,1 @ F,0,0,1,0,0,0,1 @ F,0,0,1,0,0,0,1 @ F,0,0,1,0,0,0,1 @ F,0,0,1,0,0,0,1 @ F,0,0,1,0,0,0,1 @ F,0,0,1,0,0,0,1 @ F,0,0,1,0,0,0,1 | F,0,0,1,0,0,0,1 @ F,0,0,1,0,0,0,1 @ F,0,0,1,0,0,0,1 @ F,0,0,1,0,0,0,1 @ F,0,0,1,0,0,0,1 @ F,0,0,1,0,0,0,1 @ F,0,0,1,0,0,0,1 @ F,0,0,1,0,0,0,1 @ F,0,0,1,0,0,0,1 @ F,0,0,1,0,0,0,1 @ F,0,0,1,0,0,0,1 @ F,0,0,1,0,0,0,1 @ F,0,0,1,0,0,0,1 @ F,0,0,1,0,0,0,1 @ F,0,0,1,0,0,0,1 @ F,0,0,1,0,0,0,1 @ F,0,0,1,0,0,0,1 @ F,0,0,1,0,0,0,1 | F,0,0,1,0,0,0,1 @ F,0,0,1,0,0,0,1 @ F,0,0,1,0,0,0,1 @ F,0,0,1,0,0,0,1 @ F,0,0,1,0,0,0,1 @ F,0,0,1,0,0,0,1 @ F,0,0,1,0,0,0,1 | F,0,0,1,0,0,0,1 @ F,0,0,1,0,0,0,1 @ F,0,0,1,0,0,0,1 @ F,0,0,1,0,0,0,1 @ F,0,0,1,0,0,0,1 @ F,0,0,1,0,0,0,1 | F,0,0,1,0,0,0,1 @ F,0,0,1,0,0,0,1 @ F,0,0,1,0,0,0,1 @ F,0,0,1,0,0,0,1 @ F,0,0,1,0,0,0,1 @ F,0,0,1,0,0,0,1 @ F,0,0,1,0,0,0,1 @ F,0,0,1,0,0,0,1 @ F,0,0,1,0,0,0,1 @ F,0,0,1,0,0,0,1 @ F,0,0,1,0,0,0,1 @ F,0,0,1,0,0,0,1 @ F,0,0,1,0,0,0,1 @ F,0,0,1,0,0,0,1 @ F,0,0,1,0,0,0,1 @ F,0,0,1,0,0,0,1 @ F,0,0,1,0,0,0,1 @ F,0,0,1,0,0,0,1 @ F,0,0,1,0,0,0,1 @ F,0,0,1,0,0,0,1 @ F,0,0,1,0,0,0,1 @ F,0,0,1,0,0,0,1 @ F,0,0,1,0,0,0,1 @ F,0,0,1,0,0,0,1 @ F,0,0,1,0,0,0,1 @ F,0,0,1,0,0,0,1 @ F,0,0,1,0,0,0,1 @ F,0,0,1,0,0,0,1 @ F,0,0,1,0,0,0,1 @ F,0,0,1,0,0,0,1 @ F,0,0,1,0,0,0,1 @ F,0,0,1,0,0,0,1 @ F,0,0,1,0,0,0,1 @ F,0,0,1,0,0,0,1 @ F,0,0,1,0,0,0,1 @ F,0,0,1,0,0,0,1 @ F,0,0,1,0,0,0,1 @ F,0,0,1,0,0,0,1 @ F,0,0,1,0,0,0,1 @ F,0,0,1,0,0,0,1 @ F,0,0,1,0,0,0,1 @ F,0,0,1,0,0,0,1 @ F,0,0,1,0,0,0,1 @ F,0,0,1,0,0,0,1 @ F,0,0,1,0,0,0,1 @ F,0,0,1,0,0,0,1 @ F,0,0,1,0,0,0,1 @ F,0,0,1,0,0,0,1 @ F,0,0,1,0,0,0,1 @ F,0,0,1,0,0,0,1 @ F,0,0,1,0,0,0,1 @ F,0,0,1,0,0,0,1 | F,0,0,1,0,0,0,1 @ F,0,0,1,0,0,0,1 @ F,0,0,1,0,0,0,1 @ F,0,0,1,0,0,0,1 @ F,0,0,1,0,0,0,1 @ F,0,0,1,0,0,0,1 @ F,0,0,1,0,0,0,1 @ F,0,0,1,0,0,0,1 @ F,0,0,1,0,0,0,1 @ F,0,0,1,0,0,0,1 @ F,0,0,1,0,0,0,1 @ F,0,0,1,0,0,0,1 @ F,0,0,1,0,0,0,1 @ F,0,0,1,0,0,0,1 @ F,0,0,1,0,0,0,1 @ F,0,0,1,0,0,0,1 @ F,0,0,1,0,0,0,1 @ F,0,0,1,0,0,0,1 @ F,0,0,1,0,0,0,1 @ F,0,0,1,0,0,0,1 @ F,0,0,1,0,0,0,1 @ F,0,0,1,0,0,0,1 @ F,0,0,1,0,0,0,1 @ F,0,0,1,0,0,0,1 @ F,0,0,1,0,0,0,1 @ F,0,0,1,0,0,0,1 @ F,0,0,1,0,0,0,1 @ F,0,0,1,0,0,0,1 @ F,0,0,1,0,0,0,1 @ F,0,0,1,0,0,0,1 | F,0,0,1,0,0,0,1 @ F,0,0,1,0,0,0,1 @ F,0,0,1,0,0,0,1 @ F,0,0,1,0,0,0,1 @ F,0,0,1,0,0,0,1 @ F,0,0,1,0,0,0,1 @ F,0,0,1,0,0,0,1 @ F,0,0,1,0,0,0,1 | F,0,0,1,0,0,0,1 @ F,0,0,1,0,0,0,1 @ F,0,0,1,0,0,0,1 @ F,0,0,1,0,0,0,1 @ F,0,0,1,0,0,0,1 @ F,0,0,1,0,0,0,1 @ F,0,0,1,0,0,0,1 | F,0,0,1,0,0,0,1 @ F,0,0,1,0,0,0,1 @ F,0,0,1,0,0,0,1 @ F,0,0,1,0,0,0,1 @ F,0,0,1,0,0,0,1 @ F,0,0,1,0,0,0,1 @ F,0,0,1,0,0,0,1 @ F,0,0,1,0,0,0,1 @ F,0,0,1,0,0,0,1 @ F,0,0,1,0,0,0,1 @ F,0,0,1,0,0,0,1 @ F,0,0,1,0,0,0,1 @ F,0,0,1,0,0,0,1 @ F,0,0,1,0,0,0,1 @ F,0,0,1,0,0,0,1 @ F,0,0,1,0,0,0,1 @ F,0,0,1,0,0,0,1 @ F,0,0,1,0,0,0,1 @ F,0,0,1,0,0,0,1 @ F,0,0,1,0,0,0,1 @ F,0,0,1,0,0,0,1 @ F,0,0,1,0,0,0,1 @ F,0,0,1,0,0,0,1 @ F,0,0,1,0,0,0,1 @ F,0,0,1,0,0,0,1 @ F,0,0,1,0,0,0,1 @ F,0,0,1,0,0,0,1 @ F,0,0,1,0,0,0,1 @ F,0,0,1,0,0,0,1 @ F,0,0,1,0,0,0,1 @ F,0,0,1,0,0,0,1 @ F,0,0,1,0,0,0,1 @ F,0,0,1,0,0,0,1 @ F,0,0,1,0,0,0,1 @ F,0,0,1,0,0,0,1 @ F,0,0,1,0,0,0,1 | F,0,0,1,0,0,0,1 @ F,0,0,1,0,0,0,1 @ F,0,0,1,0,0,0,1 @ F,0,0,1,0,0,0,1 @ F,0,0,1,0,0,0,1 @ F,0,0,1,0,0,0,1 @ F,0,0,1,0,0,0,1 @ F,0,0,1,0,0,0,1 @ F,0,0,1,0,0,0,1 @ F,0,0,1,0,0,0,1 | F,0,0,1,0,0,0,1 @ F,0,0,1,0,0,0,1 @ F,0,0,1,0,0,0,1 @ F,0,0,1,0,0,0,1 @ F,0,0,1,0,0,0,1 @ F,0,0,1,0,0,0,1 @ F,0,0,1,0,0,0,1 @ F,0,0,1,0,0,0,1 @ F,0,0,1,0,0,0,1 @ F,0,0,1,0,0,0,1 | F,0,0,1,0,0,0,1 @ F,0,0,1,0,0,0,1 @ F,0,0,1,0,0,0,1 @ F,0,0,1,0,0,0,1 @ F,0,0,1,0,0,0,1 @ F,0,0,1,0,0,0,1 @ F,0,0,1,0,0,0,1 @ F,0,0,1,0,0,0,1 @ F,0,0,1,0,0,0,1 @ F,0,0,1,0,0,0,1 @ F,0,0,1,0,0,0,1 @ F,0,0,1,0,0,0,1 @ F,0,0,1,0,0,0,1 @ F,0,0,1,0,0,0,1 @ F,0,0,1,0,0,0,1 @ F,0,0,1,0,0,0,1 @ F,0,0,1,0,0,0,1 @ F,0,0,1,0,0,0,1 @ F,0,0,1,0,0,0,1 @ F,0,0,1,0,0,0,1 @ F,0,0,1,0,0,0,1 @ F,0,0,1,0,0,0,1 @ F,0,0,1,0,0,0,1 @ F,0,0,1,0,0,0,1 @ F,0,0,1,0,0,0,1 @ F,0,0,1,0,0,0,1 @ F,0,0,1,0,0,0,1 @ F,0,0,1,0,0,0,1 @ F,0,0,1,0,0,0,1 @ F,0,0,1,0,0,0,1 @ F,0,0,1,0,0,0,1 @ F,0,0,1,0,0,0,1 @ F,0,0,1,0,0,0,1 @ F,0,0,1,0,0,0,1 @ F,0,0,1,0,0,0,1 @ F,0,0,1,0,0,0,1 @ F,0,0,1,0,0,0,1 @ F,0,0,1,0,0,0,1 @ F,0,0,1,0,0,0,1 | F,0,0,1,0,0,0,1 @ F,0,0,1,0,0,0,1 @ F,0,0,1,0,0,0,1 @ F,0,0,1,0,0,0,1 @ F,0,0,1,0,0,0,1 @ F,0,0,1,0,0,0,1 @ F,0,0,1,0,0,0,1 @ F,0,0,1,0,0,0,1 @ F,0,0,1,0,0,0,1 @ F,0,0,1,0,0,0,1 | F,0,0,1,0,0,0,1 @ F,0,0,1,0,0,0,1 @ F,0,0,1,0,0,0,1 @ F,0,0,1,0,0,0,1 @ F,0,0,1,0,0,0,1 | F,0,0,1,0,0,0,1 @ F,0,0,1,0,0,0,1 @ F,0,0,1,0,0,0,1 @ F,0,0,1,0,0,0,1 @ F,0,0,1,0,0,0,1 @ F,0,0,1,0,0,0,1 @ F,0,0,1,0,0,0,1 @ F,0,0,1,0,0,0,1 @ F,0,0,1,0,0,0,1 @ F,0,0,1,0,0,0,1 | F,0,0,1,0,0,0,1 @ F,0,0,1,0,0,0,1 @ F,0,0,1,0,0,0,1 @ F,0,0,1,0,0,0,1 @ F,0,0,1,0,0,0,1 @ F,0,0,1,0,0,0,1"
       radius="0"
       unit="px"
       method="auto"
       mode="F"
       chamfer_steps="1"
       flexible="false"
       use_knot_distance="true"
       apply_no_radius="true"
       apply_with_radius="true"
       only_selected="false"
       hide_knots="false" /><linearGradient
       inkscape:collect="always"
       xlink:href="#linearGradient3"
       id="linearGradient4"
       x1="47.01712"
       y1="67.172379"
       x2="42.552055"
       y2="24.690123"
       gradientUnits="userSpaceOnUse"
       gradientTransform="matrix(1.9816679,0,0,1.9816679,-43.750846,-45.660231)" /></defs><path
     style="mix-blend-mode:darken;fill:url(#linearGradient4);fill-rule:nonzero;stroke-width:1.98166"
     d="m 57.534817,84.51603 c 0.432561,-0.437188 3.204883,-2.96859 6.160717,-5.625338 l 5.374242,-4.830451 V 62.036309 c 0,-6.613165 -0.116507,-12.023933 -0.258897,-12.023933 -0.142402,0 -3.123844,2.136801 -6.625445,4.748447 l -6.366548,4.748449 -1.501458,-1.438487 c -0.825802,-0.791169 -1.501457,-1.727256 -1.501457,-2.080192 0,-0.352938 3.473494,-3.435031 7.718877,-6.849097 4.245382,-3.414065 9.230172,-7.446089 11.07731,-8.960051 1.84714,-1.513963 3.564369,-2.75266 3.816081,-2.75266 0.251909,0 0.457646,8.221163 0.457646,18.28687 0,13.992611 -0.153975,18.413388 -0.655397,18.825634 -0.360465,0.296319 -3.722641,2.291375 -7.471502,4.433459 -3.748863,2.142081 -7.759883,4.444026 -8.913378,5.115431 -1.153495,0.671406 -1.743351,0.863038 -1.310791,0.425851 z M 28.173105,82.491031 c -1.87443,-1.119573 -5.826464,-3.397417 -8.782299,-5.061879 L 14.016565,74.40286 V 55.915822 c 0,-10.16787 0.119112,-18.487037 0.264686,-18.487037 0.230154,0 6.630747,5.001863 19.266095,15.055851 1.946526,1.548856 3.539136,3.115701 3.539136,3.481882 0,0.366178 -0.689672,1.326525 -1.532602,2.134105 l -1.532603,1.468324 -6.238654,-4.778286 c -3.431262,-2.628056 -6.398697,-4.778285 -6.594302,-4.778285 -0.195609,0 -0.355643,5.403674 -0.355643,12.008162 v 12.008165 l 5.762775,5.294273 c 3.169527,2.911851 5.587937,5.273883 5.374242,5.248957 -0.213693,-0.02493 -1.922159,-0.961331 -3.79659,-2.080902 z M 44.426909,77.85293 c 0,-3.573144 -0.02275,-3.631851 -1.81817,-4.691173 -2.234269,-1.318251 -2.897555,-3.353353 -1.570765,-4.819438 0.511434,-0.565128 1.129254,-1.027505 1.372933,-1.027505 0.734132,0 0.50004,1.165253 -0.443559,2.207916 -0.840802,0.929075 -0.800163,1.066144 0.786475,2.652785 l 1.673086,1.673086 v -3.004736 c 0,-1.653613 0.235767,-3.004736 0.524317,-3.004736 0.288375,0 0.524317,1.179711 0.524317,2.621583 0,3.114215 1.062268,3.557053 2.387091,0.995128 0.798291,-1.543727 0.784592,-1.686571 -0.269375,-2.808467 -0.610745,-0.650109 -2.457808,-1.861337 -4.104585,-2.691619 -3.671092,-1.850917 -5.353561,-3.577327 -5.353561,-5.493387 0,-1.575832 2.271519,-4.682513 3.423722,-4.682513 1.462404,0 1.364458,1.19876 -0.215882,2.642177 -0.899191,0.821284 -1.634891,1.819327 -1.634891,2.217877 0,1.031978 2.045513,2.817502 4.313248,3.765021 2.987184,1.248126 5.648763,3.825059 5.648763,5.469118 0,1.762769 -1.298723,3.654255 -2.936651,4.276994 -1.150239,0.43732 -1.257879,0.770992 -1.257879,3.899279 0,1.931145 -0.228344,3.421032 -0.524317,3.421032 -0.298894,0 -0.524317,-1.555684 -0.524317,-3.618422 z M 5.5817037,69.657131 3.1764801,68.430027 2.814033,42.353225 C 2.5841477,25.813615 2.636436,16.091575 2.9570103,15.771001 c 0.3243535,-0.324353 2.3288642,0.97575 5.5952117,3.62899 2.799386,2.273926 6.648705,5.37821 8.554045,6.898409 1.905337,1.5202 6.177941,4.983519 9.494672,7.696265 3.316729,2.712748 7.050096,5.670919 8.296371,6.573715 1.767411,1.280306 2.137945,1.79569 1.68413,2.3425 -0.320001,0.385579 -0.992706,1.545787 -1.494899,2.57824 l -0.913077,1.877186 -9.423055,-7.396553 C 19.56773,35.90165 13.911703,31.391737 12.181459,29.947724 L 9.0355607,27.322246 8.66464,47.711767 C 8.4606333,58.926003 8.2246899,68.727452 8.1403224,69.492762 L 7.9869215,70.884236 Z M 81.652241,62.253337 C 81.651607,57.395238 81.496086,47.588553 81.306579,40.4607 l -0.344533,-12.959734 -1.1717,0.900458 c -0.644439,0.495253 -5.502676,4.3265 -10.796069,8.513887 -5.293395,4.187385 -10.38393,8.150334 -11.312304,8.806554 l -1.687951,1.193123 -0.361175,-1.466125 c -0.198646,-0.806368 -0.682366,-1.962601 -1.074932,-2.569407 -0.751617,-1.161803 0.253482,-2.089503 16.130489,-14.888364 1.967508,-1.586058 6.395023,-5.184179 9.838943,-7.995824 3.443902,-2.811646 6.40598,-5.112085 6.582388,-5.112085 0.176368,0 0.259579,11.94591 0.184889,26.546467 l -0.135941,26.546464 -2.752676,1.555065 -2.752655,1.555064 z m -34.60375,2.014182 c 0,-0.234145 0.707828,-0.949035 1.572949,-1.588647 3.130472,-2.314459 1.744381,-4.230652 -5.531711,-7.647277 -2.700548,-1.268094 -5.242195,-2.859996 -5.898558,-3.694426 -1.948823,-2.477527 -1.300015,-5.841119 1.660073,-8.606256 1.210691,-1.130954 1.493015,-1.188476 2.923944,-0.595765 l 1.583862,0.656056 -2.611968,2.348381 c -1.436582,1.291613 -2.611969,2.782338 -2.611969,3.312727 0,1.180955 1.689244,2.399231 6.816113,4.915755 6.632703,3.255662 8.338158,6.289963 5.458713,9.711989 -1.236989,1.470076 -3.361448,2.220561 -3.361448,1.187463 z m -2.933273,-1.873728 c -0.153321,-0.399569 -0.204909,-1.756236 -0.114615,-3.014818 0.115613,-1.611565 0.396754,-2.288327 0.950631,-2.288327 0.589672,0 0.825823,0.75441 0.943719,3.014818 0.128586,2.465469 0.0061,3.014818 -0.671851,3.014818 -0.456002,0 -0.954546,-0.326921 -1.107875,-0.726491 z m 3.040974,-9.337545 c -0.485582,-0.485578 -0.01962,-1.186969 2.072937,-3.120922 2.577813,-2.382321 2.664267,-2.548789 1.921199,-3.699265 -0.450433,-0.697396 -3.899113,-2.756952 -8.18972,-4.890912 -8.158057,-4.057459 -10.044139,-5.532452 -12.015008,-9.396223 -1.287531,-2.524129 -1.299345,-2.642368 -0.426074,-4.263932 1.206142,-2.239674 2.880683,-2.967555 5.105149,-2.219084 3.582885,1.205541 3.97659,2.788085 0.937489,3.768366 -4.380613,1.412994 -1.013576,5.331142 7.917239,9.213122 6.847858,2.976574 9.385199,5.233941 9.385199,8.349613 0,1.8377 -0.34826,2.567982 -2.16404,4.537873 -2.199244,2.385897 -3.418134,2.847601 -4.54437,1.721364 z m -2.904054,-1.296149 c -0.433999,-0.433999 -0.466306,-7.747982 -0.03613,-8.178164 0.172386,-0.172385 0.644264,-0.186455 1.048634,-0.03129 1.031065,0.395658 1.06552,8.558997 0.03613,8.558997 -0.384498,0 -0.856383,-0.157304 -1.048632,-0.349543 z m 4.762541,-12.34859 c -0.793031,-0.273439 -1.441873,-0.688846 -1.441873,-0.923127 0,-0.23428 1.126294,-1.148703 2.502871,-2.032051 1.376578,-0.883348 3.182115,-2.315068 4.012305,-3.181597 1.289349,-1.345791 1.408306,-1.697369 0.815847,-2.411236 -0.381475,-0.459649 -1.479185,-1.163967 -2.439356,-1.565154 -2.01602,-0.842345 -2.156131,-1.421205 -0.697135,-2.880199 1.494581,-1.494581 4.766882,-1.408015 6.606992,0.174783 2.681286,2.306346 1.227488,6.572935 -3.557675,10.441019 -3.20546,2.591134 -4.108887,2.961345 -5.801976,2.377562 z M 44.295832,36.86247 c -0.790563,-0.460461 -0.918353,-1.38347 -0.923324,-6.669088 -0.0074,-7.749161 -0.37826,-10.233061 -1.465966,-9.815668 -1.312075,0.50349 -7.385739,-2.816921 -8.265844,-4.518855 -1.052268,-2.034862 -2.569165,-1.954617 -8.369655,0.442767 -5.674762,2.345418 -10.485304,2.698991 -13.110469,0.963615 L 10.60851,16.23924 15.065197,15.619491 c 4.901042,-0.681541 4.534886,-0.570175 11.413734,-3.471454 7.709255,-3.2515185 10.57346,-2.7217414 11.446299,2.117165 0.561211,3.111286 1.100794,3.763879 3.112071,3.763879 h 1.816659 v -2.540318 c 0,-1.874442 -0.274871,-2.789075 -1.048632,-3.489319 -2.294402,-2.0764057 -0.553007,-6.029637 2.656052,-6.029637 2.146191,0 3.578655,0.8302118 4.185233,2.4256309 0.535536,1.4085674 -0.112995,3.2557951 -1.412505,4.0232971 -0.444958,0.262795 -0.709933,1.388041 -0.709933,3.014818 0,2.488168 0.06025,2.595528 1.456285,2.595528 2.150207,0 3.786878,-1.357741 3.786878,-3.141495 0,-4.195377 2.395215,-5.7253833 6.878679,-4.393938 1.477961,0.438907 4.543901,1.614356 6.8132,2.612109 2.728267,1.19955 5.633416,2.008685 8.575771,2.388505 4.669542,0.602775 5.081194,1.066287 2.065888,2.326159 -2.846826,1.189482 -5.1333,0.86993 -11.901557,-1.663324 L 57.796975,13.760798 57.0105,14.903233 c -2.136216,3.103079 -5.07252,4.974533 -8.38906,5.346768 l -1.835107,0.205967 -0.127537,7.306696 c -0.169709,9.723193 -0.317245,10.29133 -2.362964,9.099806 z M 33.240212,23.218246 c -0.529393,-0.315022 -2.089151,-0.633458 -3.466132,-0.707638 -4.030768,-0.217143 -4.066919,-0.707136 -0.223215,-3.025382 2.834327,-1.709462 3.682535,-2.005977 4.348659,-1.520184 0.455144,0.331927 1.41739,0.843912 2.138325,1.137744 0.720934,0.293831 2.25456,0.958932 3.408057,1.478001 l 2.097264,0.943763 -1.572949,0.811848 c -2.186051,1.128289 -5.570595,1.571775 -6.730009,0.881848 z m 16.233417,-0.512303 c -1.612312,-1.268243 -1.379102,-2.047526 0.620625,-2.07386 0.776009,-0.01037 2.000783,-0.34597 2.721717,-0.746115 1.146789,-0.636509 1.440861,-0.617784 2.350387,0.149656 0.985111,0.831219 1.001212,0.827723 0.307199,-0.06668 -0.634119,-0.817211 -0.61516,-1.061108 0.141293,-1.81755 0.815365,-0.815366 1.096991,-0.752364 4.219248,0.943867 1.840061,0.999653 3.374267,2.053492 3.409342,2.341867 0.1036,0.851748 -3.137865,1.455951 -4.494597,0.837783 -0.947921,-0.431903 -1.214016,-0.395519 -1.214016,0.165984 0,1.040957 -1.367914,1.407647 -2.973674,0.797137 -0.947284,-0.360157 -1.565249,-0.355461 -1.935416,0.01466 -0.80698,0.806978 -1.607597,0.668089 -3.1521,-0.546819 z M 20.151393,20.445391 c -1.875999,-0.58087 -2.154176,-1.367678 -0.483542,-1.367678 0.416718,0 3.22162,-0.981408 6.233118,-2.180908 4.966008,-1.977993 5.551728,-2.104634 6.295256,-1.361105 1.10723,1.107227 0.804982,1.440053 -3.05635,3.365558 -3.961255,1.975334 -6.298894,2.376918 -8.988482,1.544133 z m 40.529322,-1.6443 c -1.874431,-0.995267 -3.384462,-2.04801 -3.355625,-2.339427 0.135943,-1.373747 0.259767,-1.578481 0.954686,-1.578481 0.409728,0 2.698864,0.824053 5.086968,1.831227 2.388104,1.007175 5.120122,1.977203 6.071153,2.155617 3.353379,0.629099 1.395616,1.777338 -2.989704,1.753481 -1.664631,-0.0091 -3.363011,-0.545714 -5.767478,-1.822417 z"
     id="path5"
     sodipodi:nodetypes="sscssscsssssssssssscssssscssscssssssssscssssssssssssssssccsssssssscsscssccsscssscsssssccccssssssscssssssssssssscsssssssssssssssssssssssssscsssscsssscssssssssssssscsscssssssssscssccssssssssscccssssssssssscs"
     inkscape:label="Isologo" /><g
     inkscape:label="Layer 1"
     inkscape:groupmode="layer"
     id="layer1"
     style="display:inline" /></svg>
