<?xml version="1.0" encoding="UTF-8" standalone="no"?>
<!-- Created with Inkscape (http://www.inkscape.org/) -->

<svg
   width="165mm"
   height="30mm"
   viewBox="0 0 165 30"
   version="1.1"
   id="svg1"
   xml:space="preserve"
   sodipodi:docname="Wordmark (gris).svg"
   inkscape:version="1.4.3 (0d15f75, 2025-12-25)"
   inkscape:export-filename="Wordmark (gris).png"
   inkscape:export-xdpi="100"
   inkscape:export-ydpi="100"
   xmlns:inkscape="http://www.inkscape.org/namespaces/inkscape"
   xmlns:sodipodi="http://sodipodi.sourceforge.net/DTD/sodipodi-0.dtd"
   xmlns="http://www.w3.org/2000/svg"
   xmlns:svg="http://www.w3.org/2000/svg"><sodipodi:namedview
     id="namedview1"
     pagecolor="#ffffff"
     bordercolor="#000000"
     borderopacity="0.25"
     inkscape:showpageshadow="2"
     inkscape:pageopacity="0.0"
     inkscape:pagecheckerboard="0"
     inkscape:deskcolor="#d1d1d1"
     inkscape:document-units="mm"
     showguides="true"
     inkscape:zoom="1.4142136"
     inkscape:cx="360.978"
     inkscape:cy="51.26524"
     inkscape:window-width="1920"
     inkscape:window-height="1094"
     inkscape:window-x="-11"
     inkscape:window-y="-11"
     inkscape:window-maximized="1"
     inkscape:current-layer="svg1" /><defs
     id="defs1"><inkscape:path-effect
       effect="fillet_chamfer"
       id="path-effect2"
       is_visible="true"
       lpeversion="1"
       nodesatellites_param="F,0,0,1,0,0,0,1 @ F,0,0,1,0,0,0,1 @ F,0,0,1,0,0,0,1 @ F,0,0,1,0,0,0,1 @ F,0,0,1,0,0,0,1 @ F,0,0,1,0,0,0,1 @ F,0,0,1,0,0,0,1 @ F,0,0,1,0,0,0,1 @ F,0,0,1,0,0,0,1 @ F,0,0,1,0,0,0,1 | F,0,0,1,0,0,0,1 @ F,0,0,1,0,0,0,1 @ F,0,0,1,0,0,0,1 @ F,0,0,1,0,0,0,1 @ F,0,0,1,0,0,0,1 @ F,0,0,1,0,0,0,1 @ F,0,0,1,0,0,0,1 @ F,0,0,1,0,0,0,1 @ F,0,0,1,0,0,0,1 @ F,0,0,1,0,0,0,1 @ F,0,0,1,0,0,0,1 @ F,0,0,1,0,0,0,1 @ F,0,0,1,0,0,0,1 @ F,0,0,1,0,0,0,1 @ F,0,0,1,0,0,0,1 @ F,0,0,1,0,0,0,1 @ F,0,0,1,0,0,0,1 @ F,0,0,1,0,0,0,1 @ F,0,0,1,0,0,0,1 @ F,0,0,1,0,0,0,1 @ F,0,0,1,0,0,0,1 @ F,0,0,1,0,0,0,1 @ F,0,0,1,0,0,0,1 @ F,0,0,1,0,0,0,1 @ F,0,0,1,0,0,0,1 @ F,0,0,1,0,0,0,1 @ F,0,0,1,0,0,0,1 @ F,0,0,1,0,0,0,1 @ F,0,0,1,0,0,0,1 @ F,0,0,1,0,0,0,1 @ F,0,0,1,0,0,0,1 @ F,0,0,1,0,0,0,1 @ F,0,0,1,0,0,0,1 @ F,0,0,1,0,0,0,1 @ F,0,0,1,0,0,0,1 @ F,0,0,1,0,0,0,1 @ F,0,0,1,0,0,0,1 @ F,0,0,1,0,0,0,1 @ F,0,0,1,0,0,0,1 @ F,0,0,1,0,0,0,1 @ F,0,0,1,0,0,0,1 @ F,0,0,1,0,0,0,1 @ F,0,0,1,0,0,0,1 @ F,0,0,1,0,0,0,1 @ F,0,0,1,0,0,0,1 @ F,0,0,1,0,0,0,1 @ F,0,0,1,0,0,0,1 @ F,0,0,1,0,0,0,1 @ F,0,0,1,0,0,0,1 @ F,0,0,1,0,0,0,1 @ F,0,0,1,0,0,0,1 @ F,0,0,1,0,0,0,1 @ F,0,0,1,0,0,0,1 @ F,0,0,1,0,0,0,1 @ F,0,0,1,0,0,0,1 @ F,0,0,1,0,0,0,1 @ F,0,0,1,0,0,0,1 @ F,0,0,1,0,0,0,1 @ F,0,0,1,0,0,0,1 @ F,0,0,1,0,0,0,1 @ F,0,0,1,0,0,0,1 @ F,0,0,1,0,0,0,1 @ F,0,0,1,0,0,0,1 @ F,0,0,1,0,0,0,1 @ F,0,0,1,0,0,0,1 @ F,0,0,1,0,0,0,1 @ F,0,0,1,0,0,0,1 @ F,0,0,1,0,0,0,1 @ F,0,0,1,0,0,0,1 @ F,0,0,1,0,0,0,1 @ F,0,0,1,0,0,0,1 @ F,0,0,1,0,0,0,1 @ F,0,0,1,0,0,0,1 @ F,0,0,1,0,0,0,1 @ F,0,0,1,0,0,0,1 @ F,0,0,1,0,0,0,1 @ F,0,0,1,0,0,0,1 @ F,0,0,1,0,0,0,1 @ F,0,0,1,0,0,0,1 @ F,0,0,1,0,0,0,1 @ F,0,0,1,0,0,0,1 @ F,0,0,1,0,0,0,1 @ F,0,0,1,0,0,0,1 @ F,0,0,1,0,0,0,1 @ F,0,0,1,0,0,0,1 @ F,0,0,1,0,0,0,1 @ F,0,0,1,0,0,0,1 @ F,0,0,1,0,0,0,1 @ F,0,0,1,0,0,0,1 @ F,0,0,1,0,0,0,1 @ F,0,0,1,0,0,0,1 @ F,0,0,1,0,0,0,1 @ F,0,0,1,0,0,0,1 @ F,0,0,1,0,0,0,1 @ F,0,0,1,0,0,0,1 @ F,0,0,1,0,0,0,1 @ F,0,0,1,0,0,0,1 @ F,0,0,1,0,0,0,1 @ F,0,0,1,0,0,0,1 @ F,0,0,1,0,0,0,1 @ F,0,0,1,0,0,0,1 @ F,0,0,1,0,0,0,1 @ F,0,0,1,0,0,0,1 @ F,0,0,1,0,0,0,1 @ F,0,0,1,0,0,0,1 @ F,0,0,1,0,0,0,1 @ F,0,0,1,0,0,0,1 @ F,0,0,1,0,0,0,1 @ F,0,0,1,0,0,0,1 @ F,0,0,1,0,0,0,1 @ F,0,0,1,0,0,0,1 @ F,0,0,1,0,0,0,1 @ F,0,0,1,0,0,0,1 @ F,0,0,1,0,0,0,1 @ F,0,0,1,0,0,0,1 @ F,0,0,1,0,0,0,1 @ F,0,0,1,0,0,0,1 @ F,0,0,1,0,0,0,1 @ F,0,0,1,0,0,0,1 @ F,0,0,1,0,0,0,1 @ F,0,0,1,0,0,0,1 @ F,0,0,1,0,0,0,1 @ F,0,0,1,0,0,0,1 @ F,0,0,1,0,0,0,1 @ F,0,0,1,0,0,0,1 @ F,0,0,1,0,0,0,1 @ F,0,0,1,0,0,0,1 @ F,0,0,1,0,0,0,1 @ F,0,0,1,0,0,0,1 @ F,0,0,1,0,0,0,1 @ F,0,0,1,0,0,0,1 @ F,0,0,1,0,0,0,1 @ F,0,0,1,0,0,0,1 @ F,0,0,1,0,0,0,1 @ F,0,0,1,0,0,0,1 @ F,0,0,1,0,0,0,1 @ F,0,0,1,0,0,0,1 @ F,0,0,1,0,0,0,1 @ F,0,0,1,0,0,0,1 @ F,0,0,1,0,0,0,1 @ F,0,0,1,0,0,0,1 @ F,0,0,1,0,0,0,1 @ F,0,0,1,0,0,0,1 @ F,0,0,1,0,0,0,1 @ F,0,0,1,0,0,0,1 @ F,0,0,1,0,0,0,1 | F,0,0,1,0,0,0,1 @ F,0,0,1,0,0,0,1 @ F,0,0,1,0,0,0,1 @ F,0,0,1,0,0,0,1 @ F,0,0,1,0,0,0,1 @ F,0,0,1,0,0,0,1 @ F,0,0,1,0,0,0,1 @ F,0,0,1,0,0,0,1 @ F,0,0,1,0,0,0,1 @ F,0,0,1,0,0,0,1 @ F,0,0,1,0,0,0,1 @ F,0,0,1,0,0,0,1 @ F,0,0,1,0,0,0,1 @ F,0,0,1,0,0,0,1 @ F,0,0,1,0,0,0,1 @ F,0,0,1,0,0,0,1 @ F,0,0,1,0,0,0,1 @ F,0,0,1,0,0,0,1 | F,0,0,1,0,0,0,1 @ F,0,0,1,0,0,0,1 @ F,0,0,1,0,0,0,1 @ F,0,0,1,0,0,0,1 @ F,0,0,1,0,0,0,1 @ F,0,0,1,0,0,0,1 @ F,0,0,1,0,0,0,1 | F,0,0,1,0,0,0,1 @ F,0,0,1,0,0,0,1 @ F,0,0,1,0,0,0,1 @ F,0,0,1,0,0,0,1 @ F,0,0,1,0,0,0,1 @ F,0,0,1,0,0,0,1 | F,0,0,1,0,0,0,1 @ F,0,0,1,0,0,0,1 @ F,0,0,1,0,0,0,1 @ F,0,0,1,0,0,0,1 @ F,0,0,1,0,0,0,1 @ F,0,0,1,0,0,0,1 @ F,0,0,1,0,0,0,1 @ F,0,0,1,0,0,0,1 @ F,0,0,1,0,0,0,1 @ F,0,0,1,0,0,0,1 @ F,0,0,1,0,0,0,1 @ F,0,0,1,0,0,0,1 @ F,0,0,1,0,0,0,1 @ F,0,0,1,0,0,0,1 @ F,0,0,1,0,0,0,1 @ F,0,0,1,0,0,0,1 @ F,0,0,1,0,0,0,1 @ F,0,0,1,0,0,0,1 @ F,0,0,1,0,0,0,1 @ F,0,0,1,0,0,0,1 @ F,0,0,1,0,0,0,1 @ F,0,0,1,0,0,0,1 @ F,0,0,1,0,0,0,1 @ F,0,0,1,0,0,0,1 @ F,0,0,1,0,0,0,1 @ F,0,0,1,0,0,0,1 @ F,0,0,1,0,0,0,1 @ F,0,0,1,0,0,0,1 @ F,0,0,1,0,0,0,1 @ F,0,0,1,0,0,0,1 @ F,0,0,1,0,0,0,1 @ F,0,0,1,0,0,0,1 @ F,0,0,1,0,0,0,1 @ F,0,0,1,0,0,0,1 @ F,0,0,1,0,0,0,1 @ F,0,0,1,0,0,0,1 @ F,0,0,1,0,0,0,1 @ F,0,0,1,0,0,0,1 @ F,0,0,1,0,0,0,1 @ F,0,0,1,0,0,0,1 @ F,0,0,1,0,0,0,1 @ F,0,0,1,0,0,0,1 @ F,0,0,1,0,0,0,1 @ F,0,0,1,0,0,0,1 @ F,0,0,1,0,0,0,1 @ F,0,0,1,0,0,0,1 @ F,0,0,1,0,0,0,1 @ F,0,0,1,0,0,0,1 @ F,0,0,1,0,0,0,1 @ F,0,0,1,0,0,0,1 @ F,0,0,1,0,0,0,1 @ F,0,0,1,0,0,0,1 | F,0,0,1,0,0,0,1 @ F,0,0,1,0,0,0,1 @ F,0,0,1,0,0,0,1 @ F,0,0,1,0,0,0,1 @ F,0,0,1,0,0,0,1 @ F,0,0,1,0,0,0,1 @ F,0,0,1,0,0,0,1 @ F,0,0,1,0,0,0,1 @ F,0,0,1,0,0,0,1 @ F,0,0,1,0,0,0,1 @ F,0,0,1,0,0,0,1 @ F,0,0,1,0,0,0,1 @ F,0,0,1,0,0,0,1 @ F,0,0,1,0,0,0,1 @ F,0,0,1,0,0,0,1 @ F,0,0,1,0,0,0,1 @ F,0,0,1,0,0,0,1 @ F,0,0,1,0,0,0,1 @ F,0,0,1,0,0,0,1 @ F,0,0,1,0,0,0,1 @ F,0,0,1,0,0,0,1 @ F,0,0,1,0,0,0,1 @ F,0,0,1,0,0,0,1 @ F,0,0,1,0,0,0,1 @ F,0,0,1,0,0,0,1 @ F,0,0,1,0,0,0,1 @ F,0,0,1,0,0,0,1 @ F,0,0,1,0,0,0,1 @ F,0,0,1,0,0,0,1 @ F,0,0,1,0,0,0,1 | F,0,0,1,0,0,0,1 @ F,0,0,1,0,0,0,1 @ F,0,0,1,0,0,0,1 @ F,0,0,1,0,0,0,1 @ F,0,0,1,0,0,0,1 @ F,0,0,1,0,0,0,1 @ F,0,0,1,0,0,0,1 @ F,0,0,1,0,0,0,1 | F,0,0,1,0,0,0,1 @ F,0,0,1,0,0,0,1 @ F,0,0,1,0,0,0,1 @ F,0,0,1,0,0,0,1 @ F,0,0,1,0,0,0,1 @ F,0,0,1,0,0,0,1 @ F,0,0,1,0,0,0,1 | F,0,0,1,0,0,0,1 @ F,0,0,1,0,0,0,1 @ F,0,0,1,0,0,0,1 @ F,0,0,1,0,0,0,1 @ F,0,0,1,0,0,0,1 @ F,0,0,1,0,0,0,1 @ F,0,0,1,0,0,0,1 @ F,0,0,1,0,0,0,1 @ F,0,0,1,0,0,0,1 @ F,0,0,1,0,0,0,1 @ F,0,0,1,0,0,0,1 @ F,0,0,1,0,0,0,1 @ F,0,0,1,0,0,0,1 @ F,0,0,1,0,0,0,1 @ F,0,0,1,0,0,0,1 @ F,0,0,1,0,0,0,1 @ F,0,0,1,0,0,0,1 @ F,0,0,1,0,0,0,1 @ F,0,0,1,0,0,0,1 @ F,0,0,1,0,0,0,1 @ F,0,0,1,0,0,0,1 @ F,0,0,1,0,0,0,1 @ F,0,0,1,0,0,0,1 @ F,0,0,1,0,0,0,1 @ F,0,0,1,0,0,0,1 @ F,0,0,1,0,0,0,1 @ F,0,0,1,0,0,0,1 @ F,0,0,1,0,0,0,1 @ F,0,0,1,0,0,0,1 @ F,0,0,1,0,0,0,1 @ F,0,0,1,0,0,0,1 @ F,0,0,1,0,0,0,1 @ F,0,0,1,0,0,0,1 @ F,0,0,1,0,0,0,1 @ F,0,0,1,0,0,0,1 @ F,0,0,1,0,0,0,1 | F,0,0,1,0,0,0,1 @ F,0,0,1,0,0,0,1 @ F,0,0,1,0,0,0,1 @ F,0,0,1,0,0,0,1 @ F,0,0,1,0,0,0,1 @ F,0,0,1,0,0,0,1 @ F,0,0,1,0,0,0,1 @ F,0,0,1,0,0,0,1 @ F,0,0,1,0,0,0,1 @ F,0,0,1,0,0,0,1 | F,0,0,1,0,0,0,1 @ F,0,0,1,0,0,0,1 @ F,0,0,1,0,0,0,1 @ F,0,0,1,0,0,0,1 @ F,0,0,1,0,0,0,1 @ F,0,0,1,0,0,0,1 @ F,0,0,1,0,0,0,1 @ F,0,0,1,0,0,0,1 @ F,0,0,1,0,0,0,1 @ F,0,0,1,0,0,0,1 | F,0,0,1,0,0,0,1 @ F,0,0,1,0,0,0,1 @ F,0,0,1,0,0,0,1 @ F,0,0,1,0,0,0,1 @ F,0,0,1,0,0,0,1 @ F,0,0,1,0,0,0,1 @ F,0,0,1,0,0,0,1 @ F,0,0,1,0,0,0,1 @ F,0,0,1,0,0,0,1 @ F,0,0,1,0,0,0,1 @ F,0,0,1,0,0,0,1 @ F,0,0,1,0,0,0,1 @ F,0,0,1,0,0,0,1 @ F,0,0,1,0,0,0,1 @ F,0,0,1,0,0,0,1 @ F,0,0,1,0,0,0,1 @ F,0,0,1,0,0,0,1 @ F,0,0,1,0,0,0,1 @ F,0,0,1,0,0,0,1 @ F,0,0,1,0,0,0,1 @ F,0,0,1,0,0,0,1 @ F,0,0,1,0,0,0,1 @ F,0,0,1,0,0,0,1 @ F,0,0,1,0,0,0,1 @ F,0,0,1,0,0,0,1 @ F,0,0,1,0,0,0,1 @ F,0,0,1,0,0,0,1 @ F,0,0,1,0,0,0,1 @ F,0,0,1,0,0,0,1 @ F,0,0,1,0,0,0,1 @ F,0,0,1,0,0,0,1 @ F,0,0,1,0,0,0,1 @ F,0,0,1,0,0,0,1 @ F,0,0,1,0,0,0,1 @ F,0,0,1,0,0,0,1 @ F,0,0,1,0,0,0,1 @ F,0,0,1,0,0,0,1 @ F,0,0,1,0,0,0,1 @ F,0,0,1,0,0,0,1 | F,0,0,1,0,0,0,1 @ F,0,0,1,0,0,0,1 @ F,0,0,1,0,0,0,1 @ F,0,0,1,0,0,0,1 @ F,0,0,1,0,0,0,1 @ F,0,0,1,0,0,0,1 @ F,0,0,1,0,0,0,1 @ F,0,0,1,0,0,0,1 @ F,0,0,1,0,0,0,1 @ F,0,0,1,0,0,0,1 | F,0,0,1,0,0,0,1 @ F,0,0,1,0,0,0,1 @ F,0,0,1,0,0,0,1 @ F,0,0,1,0,0,0,1 @ F,0,0,1,0,0,0,1 | F,0,0,1,0,0,0,1 @ F,0,0,1,0,0,0,1 @ F,0,0,1,0,0,0,1 @ F,0,0,1,0,0,0,1 @ F,0,0,1,0,0,0,1 @ F,0,0,1,0,0,0,1 @ F,0,0,1,0,0,0,1 @ F,0,0,1,0,0,0,1 @ F,0,0,1,0,0,0,1 @ F,0,0,1,0,0,0,1 | F,0,0,1,0,0,0,1 @ F,0,0,1,0,0,0,1 @ F,0,0,1,0,0,0,1 @ F,0,0,1,0,0,0,1 @ F,0,0,1,0,0,0,1 @ F,0,0,1,0,0,0,1"
       radius="0"
       unit="px"
       method="auto"
       mode="F"
       chamfer_steps="1"
       flexible="false"
       use_knot_distance="true"
       apply_no_radius="true"
       apply_with_radius="true"
       only_selected="false"
       hide_knots="false" /></defs><g
     inkscape:label="Layer 1"
     inkscape:groupmode="layer"
     id="layer1"
     style="display:inline" /><path
     id="path8"
     style="fill:#b3b3b3;stroke-width:2.1967"
     d="m 100.48889,4.1543203 c -2.565618,-0.13316 -4.666566,0.273779 -6.756534,1.265717 -2.812286,1.334772 -5.040886,3.8609866 -5.713304,6.4750297 -0.42765,1.662564 -0.247564,5.025496 0.350778,6.545406 1.237581,3.143887 3.761396,5.279953 7.374057,6.241182 1.709798,0.454936 5.826863,0.386245 7.673753,-0.12829 1.58397,-0.441273 2.49723,-0.835293 2.57457,-1.112473 0.0342,-0.123022 0.27527,-1.001825 0.53581,-1.952487 0.26052,-0.950664 0.51207,-1.864467 0.55965,-2.030823 0.19308,-0.675286 -0.42269,-0.242516 -1.05799,0.743537 -1.36871,2.124292 -3.19486,3.237752 -5.58052,3.404371 -2.485958,0.173539 -4.768383,-0.751466 -6.252507,-2.534831 -1.931851,-2.321358 -2.612006,-5.096285 -2.10914,-8.604618 0.573039,-3.9980117 2.805737,-6.5134347 6.210509,-6.9949367 3.484958,-0.492838 6.400338,1.014755 7.399048,3.8266706 0.1696,0.4775214 0.36768,0.8684051 0.44043,0.8684051 0.11278,0 0.16459,-1.0960807 0.21002,-4.4385267 0.0104,-0.750494 0.0551,-0.731399 -3.12173,-1.261178 -0.97532,-0.162642 -1.88169,-0.267783 -2.7369,-0.312172 z M 6.7531341,4.2746483 c -1.3453354,-0.0029 -2.6472685,0.06909 -2.5972685,0.219076 0.03748,0.11228 0.2994817,0.287753 0.5823304,0.389366 0.8301027,0.298214 1.2800514,0.704618 1.4553014,1.315664 0.1214157,0.423475 -0.03748,2.417924 -0.6107247,7.6715037 -1.0652154,9.761348 -1.0754234,9.810114 -2.1159638,10.058758 -0.6347887,0.151796 -0.7569327,0.232784 -0.6391007,0.423435 0.07396,0.08786 1.3860151,0.160139 2.9412292,0.160139 2.4108088,0 2.8424845,-0.03887 2.8424845,-0.258814 0,-0.162555 -0.164595,-0.258838 -0.4404497,-0.258838 -0.241985,0 -0.6305347,-0.191111 -0.8638664,-0.424553 -0.382642,-0.382622 -0.424559,-0.565914 -0.424559,-1.866225 0,-2.020915 0.8342817,-11.9938637 1.0352834,-12.3767861 0.07962,-0.151624 0.280898,0.1541624 0.5698437,0.8638651 0.371329,0.912029 2.4284081,5.561382 3.3158511,7.494421 0.130916,0.285196 0.778446,1.724294 1.438255,3.197771 1.730379,3.864293 1.612677,3.651455 1.989964,3.593969 0.231295,-0.03515 0.498567,-0.42728 0.859326,-1.26119 0.647634,-1.497002 2.726682,-6.120124 3.5372,-7.864473 0.331296,-0.713 0.858911,-1.879738 1.171502,-2.592737 0.312573,-0.712998 0.822158,-1.840998 1.132901,-2.506462 0.554128,-1.1867167 0.567374,-1.1999117 0.698134,-0.6913197 0.111399,0.433367 0.444594,3.6489517 0.769637,7.4331147 0.04076,0.475325 0.106908,1.097451 0.147496,1.382647 0.148705,1.041454 0.358324,3.815856 0.324662,4.301172 -0.04439,0.639348 -0.617892,1.248536 -1.305456,1.386049 -0.362003,0.07249 -0.48145,0.164525 -0.364387,0.281506 0.234421,0.234432 7.493208,0.145423 7.504624,-0.09204 0.0052,-0.09511 -0.226701,-0.22158 -0.514231,-0.280386 -0.825043,-0.168705 -1.312538,-0.580719 -1.537029,-1.300905 -0.114161,-0.366429 -0.446217,-2.84373 -0.737857,-5.505589 -1.34411,-12.2682717 -1.347219,-11.7631587 0.09758,-12.2598697 1.393851,-0.479185 0.940345,-0.629243 -1.75271,-0.578937 l -2.565491,0.04767 -0.389361,0.778726 c -0.214283,0.427798 -0.825423,1.788237 -1.357668,3.024102 -2.00651,4.6590607 -3.178132,7.3007657 -4.172899,9.4071897 l -0.606182,1.28388 -0.29969,-0.765108 c -0.164939,-0.42069 -0.777736,-1.763912 -1.361069,-2.984377 -0.583333,-1.220464 -1.060241,-2.245885 -1.060241,-2.279428 0,-0.03354 -0.320069,-0.746107 -0.711761,-1.583568 C 12.347081,10.419636 11.523593,8.6068313 10.908879,7.2283663 10.294181,5.8499023 9.7098813,4.6250623 9.6113833,4.5062193 9.4868593,4.3560823 8.0983462,4.2775753 6.7530101,4.2746443 Z M 119.46445,6.8855463 c -3.38571,-0.0114 -7.16362,1.87804 -8.85208,4.4271757 -2.01154,3.036853 -1.70665,7.581448 0.7038,10.471969 1.13958,1.36652 3.28318,2.617339 5.23884,3.05703 1.99143,0.44773 4.86942,0.0088 6.84055,-1.040948 2.40897,-1.283968 4.39264,-4.05132 4.84265,-6.755424 0.88649,-5.327067 -3.27167,-10.1413497 -8.77376,-10.1598027 z m -62.605913,0.315579 c -1.04689,-0.04603 -2.625836,-0.02817 -5.511257,0.01933 -2.660327,0.04373 -3.916399,0.113437 -3.988989,0.234983 -0.0017,0.0035 -0.0052,0.009 -0.0052,0.01243 0.0086,0.05016 0.203195,0.110362 0.570996,0.179361 0.346579,0.06503 0.749324,0.305284 0.959221,0.572126 0.356045,0.452645 0.362055,0.574657 0.311036,7.6669587 -0.04922,6.822897 -0.06978,7.227177 -0.383696,7.573882 -0.182331,0.201436 -0.566045,0.427519 -0.852519,0.501745 -0.286437,0.07425 -0.552119,0.228347 -0.590271,0.342817 -0.05285,0.159033 1.085536,0.207368 4.827866,0.20539 6.099858,-0.0023 7.248164,-0.211321 9.469631,-1.719792 3.0648,-2.081257 4.499497,-5.536811 3.809635,-9.174465 C 64.915232,10.664189 62.692263,8.5292913 59.174786,7.5642833 58.41831,7.3567403 57.903648,7.2470483 56.856757,7.2010273 Z m -19.209396,0.113523 c -5.955039,0 -6.864727,0.09269 -4.974314,0.506288 0.861968,0.188585 0.878514,0.339059 0.844559,7.8474497 -0.03523,7.795303 -0.06494,8.020531 -1.075008,8.282223 -0.309223,0.08017 -0.593005,0.239703 -0.631157,0.354173 -0.0532,0.159706 1.357288,0.207806 6.057285,0.207806 h 6.126526 l 0.227029,-1.079543 c 0.124698,-0.594163 0.362453,-1.467656 0.527876,-1.941153 0.165457,-0.473477 0.255561,-0.934825 0.199671,-1.025065 -0.110362,-0.178592 -0.316372,0.07205 -1.08069,1.315666 -0.658514,1.071438 -1.588876,1.549349 -3.225025,1.65622 -1.703074,0.111157 -3.121743,-0.08853 -3.529255,-0.496058 -0.303006,-0.303012 -0.331468,-0.607606 -0.331468,-3.549704 v -3.218208 l 2.154558,0.07152 c 1.965992,0.06546 2.192537,0.107064 2.58366,0.474504 0.235773,0.221501 0.45249,0.567574 0.481316,0.769642 0.02884,0.202097 0.129533,0.349231 0.224765,0.325793 0.103281,-0.02548 0.173764,-0.878152 0.173764,-2.117091 0,-1.237943 -0.07047,-2.091894 -0.173764,-2.118233 -0.09517,-0.02427 -0.196821,0.129689 -0.227045,0.341687 -0.03005,0.212004 -0.255352,0.542421 -0.499468,0.734456 -0.390967,0.307533 -0.697668,0.349635 -2.580257,0.349635 H 36.78517 V 11.7226 8.4385423 h 2.165905 c 2.384075,0 3.070192,0.175076 3.670017,0.9376536 0.199464,0.2536514 0.412849,0.6909731 0.474507,0.9717081 0.229396,1.044513 0.430242,0.455702 0.430224,-1.2611777 v -1.772003 z m 116.716219,0.04995 c -5.30117,0.04605 -6.6829,0.167703 -5.15027,0.455205 0.34843,0.06537 0.74971,0.306013 0.96261,0.576666 0.36003,0.457721 0.36423,0.560487 0.30991,7.4694407 -0.0498,6.308557 -0.0857,7.060025 -0.36099,7.563662 -0.18518,0.338685 -0.49162,0.603673 -0.77761,0.672011 -0.6337,0.151347 -0.75461,0.23285 -0.63682,0.423435 0.0582,0.09423 2.56627,0.161244 6.05728,0.161244 4.61766,0 5.97284,-0.04943 6.0221,-0.216814 0.0349,-0.118842 0.30458,-0.968875 0.59936,-1.888938 0.61419,-1.916903 0.60664,-1.87132 0.32014,-1.867367 -0.11882,0.0017 -0.44982,0.410716 -0.73561,0.908158 -0.41062,0.714782 -0.71841,1.005889 -1.46891,1.389454 -0.91069,0.465412 -1.03644,0.482393 -3.06155,0.431364 -1.70382,-0.04284 -2.16774,-0.109171 -2.40316,-0.3451 -0.25155,-0.251962 -0.29472,-0.734247 -0.30878,-3.49973 l -0.0156,-3.208009 h 1.86282 c 2.27677,2.4e-5 2.93298,0.221044 3.25,1.097709 0.12176,0.336425 0.28545,0.572548 0.36326,0.524462 0.20121,-0.124335 0.17661,-4.172453 -0.0261,-4.297777 -0.0922,-0.05698 -0.28367,0.171382 -0.42455,0.508559 -0.15251,0.364712 -0.43845,0.683373 -0.70721,0.785541 -0.68235,0.259437 -4.05322,0.223404 -4.14112,-0.04427 -0.17219,-0.5247 -0.18253,-6.3470127 -0.0104,-6.4103217 0.0991,-0.03665 1.2047,-0.01912 2.45765,0.0386 2.67853,0.123593 3.09007,0.315439 3.51222,1.6301067 0.1425,0.44406 0.32887,0.784731 0.4132,0.75716 0.17508,-0.08356 0.14439,-3.4489447 -0.034,-3.5780637 -0.0656,-0.04749 -2.70561,-0.0638 -5.86656,-0.03634 z m -19.18669,0.0386 c -2.49552,-10e-4 -4.5373,0.06301 -4.5373,0.143023 0,0.08002 0.31033,0.238445 0.68903,0.351904 0.37874,0.113454 0.76998,0.3588 0.86957,0.544881 0.12038,0.224799 0.16528,2.8087577 0.13299,7.7010157 l -0.0487,7.362741 -0.40866,0.330316 c -0.22444,0.181667 -0.59359,0.33034 -0.82073,0.33034 -0.40292,0 -0.52921,0.171123 -0.29741,0.402983 0.0636,0.06349 1.65738,0.115768 3.54287,0.115768 2.79011,0 3.42823,-0.04416 3.42823,-0.237243 0,-0.14323 -0.27472,-0.281528 -0.6936,-0.348506 -1.32852,-0.212419 -1.38037,-0.363332 -1.38037,-4.011691 v -3.213676 l 0.907,0.120329 c 1.06238,0.141312 1.39158,0.404718 2.19884,1.76065 0.32862,0.551963 1.12672,1.800961 1.77428,2.775501 1.26022,1.896539 1.93535,2.484198 3.34081,2.907172 0.87773,0.264152 3.18642,0.34152 3.18642,0.106753 0,-0.07755 -0.26758,-0.268502 -0.59482,-0.424556 -0.72896,-0.347604 -1.53581,-1.354702 -3.62121,-4.516843 -0.884,-1.340445 -1.81374,-2.655608 -2.06602,-2.921938 -0.54076,-0.57091 -0.55614,-0.636651 -0.15544,-0.644779 0.75708,-0.01537 2.24585,-1.337835 2.80387,-2.49057 0.86972,-1.796584 0.26184,-4.2933831 -1.2623,-5.1866047 -1.48694,-0.871404 -2.0978,-0.954939 -6.98701,-0.956953 z m -16.6042,0.679968 c 1.23981,0.02723 2.48753,0.486929 3.48499,1.398535 2.05476,1.8779447 2.92218,4.6118817 2.54278,8.0143167 -0.28764,2.579621 -0.75929,3.80641 -1.90368,4.949349 -0.62601,0.625247 -1.20523,1.030294 -1.66984,1.166974 -2.00033,0.588471 -4.24375,0.03031 -5.68948,-1.415573 -2.92988,-2.930214 -3.40007,-8.879459 -0.95809,-12.117966 1.0187,-1.3509917 2.59931,-2.0306647 4.19332,-1.9956357 z m 18.39094,0.355309 c 0.91886,0 1.18828,0.07812 1.91051,0.560777 1.22923,0.821518 1.65614,1.7459597 1.57903,3.4145997 -0.0737,1.598258 -0.46737,2.464646 -1.39854,3.08086 -0.56149,0.371579 -0.92292,0.465656 -1.91731,0.498342 -0.67405,0.02216 -1.32283,-0.0029 -1.44167,-0.05562 -0.30252,-0.134369 -0.31116,-6.9902737 -0.009,-7.2923517 0.11658,-0.116632 0.67577,-0.206599 1.27706,-0.206599 z m -81.848237,0.02612 c 4.864868,0.07549 7.551895,3.4030537 6.956352,8.7692127 -0.395769,3.566105 -1.872054,5.321088 -5.040169,5.992573 -0.631606,0.133783 -1.421105,0.239814 -1.753834,0.234981 -0.923867,-0.01313 -2.28404,-0.429915 -2.538271,-0.777586 -0.15095,-0.20627 -0.232625,-0.9254 -0.244041,-2.136395 -0.0086,-1.003802 -0.0468,-4.002743 -0.0829,-6.664605 -0.0361,-2.661861 -0.0017,-4.9394017 0.07496,-5.0617367 0.08705,-0.138014 0.70316,-0.262977 1.625578,-0.328065 0.343333,-0.02423 0.67803,-0.03342 1.002348,-0.02838 z m 18.327382,7.4058687 -0.111227,0.593697 c -0.06131,0.326565 -0.05423,0.686903 0.01554,0.800297 0.0943,0.152435 0.976995,0.185972 3.386216,0.128273 1.792227,-0.04292 3.290085,-0.11159 3.329462,-0.152125 0.03938,-0.04054 0.117444,-0.365469 0.173766,-0.721968 l 0.102072,-0.648186 h -3.44751 z m 77.863775,5.59753 c 0.0226,-0.0023 0.0482,0.0043 0.075,0.01978 0.0663,0.04087 0.12297,0.111813 0.15199,0.181666 0.0138,0.03031 0.0197,0.06041 0.0197,0.08743 0,0.08941 -0.0776,0.162331 -0.17237,0.162331 -0.007,0 -0.0138,-0.001 -0.0197,-0.0023 0.007,8.72e-4 0.0197,0.0017 0.0306,0.0012 0.0698,-0.0043 0.12937,-0.04921 0.15216,-0.112469 0.007,-0.01759 0.007,-0.02197 0.007,-0.04986 -2.4e-4,-0.03472 -0.005,-0.05251 -0.0176,-0.08632 -0.0197,-0.04701 -0.049,-0.08853 -0.0874,-0.127185 -0.0539,-0.05427 -0.10311,-0.07974 -0.14076,-0.07271 -0.0371,0.0065 -0.0669,0.03779 -0.0817,0.08523 -10e-4,0.0088 -0.005,0.01313 -0.007,0.01978 0.0138,-0.06261 0.0468,-0.101935 0.0896,-0.107859 z m -134.960714,0.0088 h 0.0012 c 0.0052,0.0065 0.0086,0.01313 0.0086,0.01978 -6.74e-4,-0.0011 -0.0016,-0.0023 -0.0017,-0.0023 -7.08e-4,-0.0023 -0.0017,-0.0065 -0.0052,-0.0088 -0.0012,-0.0023 -0.0017,-0.0043 -0.0035,-0.0065 z m 134.871044,0.101054 c -0.005,0.02197 -0.007,0.038 -0.007,0.0749 0,0.03757 0.001,0.04921 0.007,0.07029 0.009,0.04217 0.0197,0.07908 0.0387,0.108964 0.0104,0.01758 0.0243,0.03295 0.0386,0.04656 0.0156,0.01537 0.0337,0.02746 0.0509,0.03404 -0.0352,-0.01313 -0.0661,-0.04042 -0.0896,-0.08062 -0.0283,-0.0481 -0.0466,-0.111813 -0.0466,-0.181667 0,-0.02681 0.001,-0.05097 0.009,-0.07271 z m -116.954594,1.11246 c 5.01e-4,8.8e-5 0.0017,-6.6e-5 0.0017,0 -4.66e-4,2.19e-4 -0.0017,9.44e-4 -0.0017,0.0012 z m 70.580484,0.477912 c 9.4e-4,9.45e-4 0.002,0.0023 0.005,0.0043 -10e-4,-9.45e-4 -0.005,-0.0014 -0.005,-0.0023 z m -77.310931,0.09995 c 0.0017,0.0015 0.0035,0.0023 0.0052,0.0043 -0.0012,0 -0.0017,0 -0.0035,0 -0.0016,-0.0013 -0.0035,-0.0021 -0.0052,-0.0043 0.001,-2.4e-4 0.0017,-8.72e-4 0.0035,-0.0011 z m 133.167151,0.03295 h 0.001 c 10e-4,5.05e-4 10e-4,6.81e-4 0.005,0.0012 -0.001,-1.31e-4 -0.005,1.76e-4 -0.007,0 z M 35.723892,23.34549 h 0.0011 c 0.0052,0.0043 0.0069,0.0088 0.0086,0.01312 h -0.0011 c -0.0017,-0.0043 -0.0069,-0.0088 -0.0086,-0.01312 z m -8.118753,0.02263 c 9.45e-4,0.0023 0.0017,0.0043 0.0035,0.0065 -8.72e-4,6.5e-5 -0.0035,-6.6e-5 -0.0035,0 -6.73e-4,-0.0019 -4.31e-4,-0.0043 -0.0012,-0.0065 z m 7.378633,0.578939 c 0.0017,-4.3e-5 0.0017,6.6e-5 0.0052,0 0.0014,6.15e-4 0.0017,0.0017 0.0052,0.0023 -0.0017,6.5e-5 -0.0017,-6.6e-5 -0.0052,0 -0.0014,-6.15e-4 -0.0017,-0.0016 -0.0052,-0.0023 z" /></svg>
