<?xml version="1.0" encoding="UTF-8" standalone="no"?>
<!-- Created with Inkscape (http://www.inkscape.org/) -->

<svg
   width="180mm"
   height="90mm"
   viewBox="0 0 180 90"
   version="1.1"
   id="svg1"
   xml:space="preserve"
   sodipodi:docname="Logo horizontal (color).svg"
   inkscape:version="1.4.3 (0d15f75, 2025-12-25)"
   inkscape:export-filename="Logo horizontal (color).png"
   inkscape:export-xdpi="100"
   inkscape:export-ydpi="100"
   xmlns:inkscape="http://www.inkscape.org/namespaces/inkscape"
   xmlns:sodipodi="http://sodipodi.sourceforge.net/DTD/sodipodi-0.dtd"
   xmlns:xlink="http://www.w3.org/1999/xlink"
   xmlns="http://www.w3.org/2000/svg"
   xmlns:svg="http://www.w3.org/2000/svg"><sodipodi:namedview
     id="namedview1"
     pagecolor="#ffffff"
     bordercolor="#000000"
     borderopacity="0.25"
     inkscape:showpageshadow="2"
     inkscape:pageopacity="0.0"
     inkscape:pagecheckerboard="0"
     inkscape:deskcolor="#d1d1d1"
     inkscape:document-units="mm"
     showguides="true"
     inkscape:zoom="1.4142136"
     inkscape:cx="321.38002"
     inkscape:cy="101.46982"
     inkscape:window-width="1920"
     inkscape:window-height="1094"
     inkscape:window-x="-11"
     inkscape:window-y="-11"
     inkscape:window-maximized="1"
     inkscape:current-layer="svg1" /><defs
     id="defs1"><linearGradient
       id="linearGradient3"
       inkscape:collect="always"><stop
         style="stop-color:#d7ac65;stop-opacity:1;"
         offset="0"
         id="stop4" /><stop
         style="stop-color:#e8bd81;stop-opacity:1;"
         offset="0.39756098"
         id="stop5" /><stop
         style="stop-color:#d0a55e;stop-opacity:1;"
         offset="0.69878048"
         id="stop6" /><stop
         style="stop-color:#edcf9c;stop-opacity:1;"
         offset="1"
         id="stop3" /></linearGradient><inkscape:path-effect
       effect="fillet_chamfer"
       id="path-effect2"
       is_visible="true"
       lpeversion="1"
       nodesatellites_param="F,0,0,1,0,0,0,1 @ F,0,0,1,0,0,0,1 @ F,0,0,1,0,0,0,1 @ F,0,0,1,0,0,0,1 @ F,0,0,1,0,0,0,1 @ F,0,0,1,0,0,0,1 @ F,0,0,1,0,0,0,1 @ F,0,0,1,0,0,0,1 @ F,0,0,1,0,0,0,1 @ F,0,0,1,0,0,0,1 | F,0,0,1,0,0,0,1 @ F,0,0,1,0,0,0,1 @ F,0,0,1,0,0,0,1 @ F,0,0,1,0,0,0,1 @ F,0,0,1,0,0,0,1 @ F,0,0,1,0,0,0,1 @ F,0,0,1,0,0,0,1 @ F,0,0,1,0,0,0,1 @ F,0,0,1,0,0,0,1 @ F,0,0,1,0,0,0,1 @ F,0,0,1,0,0,0,1 @ F,0,0,1,0,0,0,1 @ F,0,0,1,0,0,0,1 @ F,0,0,1,0,0,0,1 @ F,0,0,1,0,0,0,1 @ F,0,0,1,0,0,0,1 @ F,0,0,1,0,0,0,1 @ F,0,0,1,0,0,0,1 @ F,0,0,1,0,0,0,1 @ F,0,0,1,0,0,0,1 @ F,0,0,1,0,0,0,1 @ F,0,0,1,0,0,0,1 @ F,0,0,1,0,0,0,1 @ F,0,0,1,0,0,0,1 @ F,0,0,1,0,0,0,1 @ F,0,0,1,0,0,0,1 @ F,0,0,1,0,0,0,1 @ F,0,0,1,0,0,0,1 @ F,0,0,1,0,0,0,1 @ F,0,0,1,0,0,0,1 @ F,0,0,1,0,0,0,1 @ F,0,0,1,0,0,0,1 @ F,0,0,1,0,0,0,1 @ F,0,0,1,0,0,0,1 @ F,0,0,1,0,0,0,1 @ F,0,0,1,0,0,0,1 @ F,0,0,1,0,0,0,1 @ F,0,0,1,0,0,0,1 @ F,0,0,1,0,0,0,1 @ F,0,0,1,0,0,0,1 @ F,0,0,1,0,0,0,1 @ F,0,0,1,0,0,0,1 @ F,0,0,1,0,0,0,1 @ F,0,0,1,0,0,0,1 @ F,0,0,1,0,0,0,1 @ F,0,0,1,0,0,0,1 @ F,0,0,1,0,0,0,1 @ F,0,0,1,0,0,0,1 @ F,0,0,1,0,0,0,1 @ F,0,0,1,0,0,0,1 @ F,0,0,1,0,0,0,1 @ F,0,0,1,0,0,0,1 @ F,0,0,1,0,0,0,1 @ F,0,0,1,0,0,0,1 @ F,0,0,1,0,0,0,1 @ F,0,0,1,0,0,0,1 @ F,0,0,1,0,0,0,1 @ F,0,0,1,0,0,0,1 @ F,0,0,1,0,0,0,1 @ F,0,0,1,0,0,0,1 @ F,0,0,1,0,0,0,1 @ F,0,0,1,0,0,0,1 @ F,0,0,1,0,0,0,1 @ F,0,0,1,0,0,0,1 @ F,0,0,1,0,0,0,1 @ F,0,0,1,0,0,0,1 @ F,0,0,1,0,0,0,1 @ F,0,0,1,0,0,0,1 @ F,0,0,1,0,0,0,1 @ F,0,0,1,0,0,0,1 @ F,0,0,1,0,0,0,1 @ F,0,0,1,0,0,0,1 @ F,0,0,1,0,0,0,1 @ F,0,0,1,0,0,0,1 @ F,0,0,1,0,0,0,1 @ F,0,0,1,0,0,0,1 @ F,0,0,1,0,0,0,1 @ F,0,0,1,0,0,0,1 @ F,0,0,1,0,0,0,1 @ F,0,0,1,0,0,0,1 @ F,0,0,1,0,0,0,1 @ F,0,0,1,0,0,0,1 @ F,0,0,1,0,0,0,1 @ F,0,0,1,0,0,0,1 @ F,0,0,1,0,0,0,1 @ F,0,0,1,0,0,0,1 @ F,0,0,1,0,0,0,1 @ F,0,0,1,0,0,0,1 @ F,0,0,1,0,0,0,1 @ F,0,0,1,0,0,0,1 @ F,0,0,1,0,0,0,1 @ F,0,0,1,0,0,0,1 @ F,0,0,1,0,0,0,1 @ F,0,0,1,0,0,0,1 @ F,0,0,1,0,0,0,1 @ F,0,0,1,0,0,0,1 @ F,0,0,1,0,0,0,1 @ F,0,0,1,0,0,0,1 @ F,0,0,1,0,0,0,1 @ F,0,0,1,0,0,0,1 @ F,0,0,1,0,0,0,1 @ F,0,0,1,0,0,0,1 @ F,0,0,1,0,0,0,1 @ F,0,0,1,0,0,0,1 @ F,0,0,1,0,0,0,1 @ F,0,0,1,0,0,0,1 @ F,0,0,1,0,0,0,1 @ F,0,0,1,0,0,0,1 @ F,0,0,1,0,0,0,1 @ F,0,0,1,0,0,0,1 @ F,0,0,1,0,0,0,1 @ F,0,0,1,0,0,0,1 @ F,0,0,1,0,0,0,1 @ F,0,0,1,0,0,0,1 @ F,0,0,1,0,0,0,1 @ F,0,0,1,0,0,0,1 @ F,0,0,1,0,0,0,1 @ F,0,0,1,0,0,0,1 @ F,0,0,1,0,0,0,1 @ F,0,0,1,0,0,0,1 @ F,0,0,1,0,0,0,1 @ F,0,0,1,0,0,0,1 @ F,0,0,1,0,0,0,1 @ F,0,0,1,0,0,0,1 @ F,0,0,1,0,0,0,1 @ F,0,0,1,0,0,0,1 @ F,0,0,1,0,0,0,1 @ F,0,0,1,0,0,0,1 @ F,0,0,1,0,0,0,1 @ F,0,0,1,0,0,0,1 @ F,0,0,1,0,0,0,1 @ F,0,0,1,0,0,0,1 @ F,0,0,1,0,0,0,1 @ F,0,0,1,0,0,0,1 @ F,0,0,1,0,0,0,1 @ F,0,0,1,0,0,0,1 @ F,0,0,1,0,0,0,1 @ F,0,0,1,0,0,0,1 @ F,0,0,1,0,0,0,1 @ F,0,0,1,0,0,0,1 @ F,0,0,1,0,0,0,1 @ F,0,0,1,0,0,0,1 @ F,0,0,1,0,0,0,1 @ F,0,0,1,0,0,0,1 @ F,0,0,1,0,0,0,1 @ F,0,0,1,0,0,0,1 | F,0,0,1,0,0,0,1 @ F,0,0,1,0,0,0,1 @ F,0,0,1,0,0,0,1 @ F,0,0,1,0,0,0,1 @ F,0,0,1,0,0,0,1 @ F,0,0,1,0,0,0,1 @ F,0,0,1,0,0,0,1 @ F,0,0,1,0,0,0,1 @ F,0,0,1,0,0,0,1 @ F,0,0,1,0,0,0,1 @ F,0,0,1,0,0,0,1 @ F,0,0,1,0,0,0,1 @ F,0,0,1,0,0,0,1 @ F,0,0,1,0,0,0,1 @ F,0,0,1,0,0,0,1 @ F,0,0,1,0,0,0,1 @ F,0,0,1,0,0,0,1 @ F,0,0,1,0,0,0,1 | F,0,0,1,0,0,0,1 @ F,0,0,1,0,0,0,1 @ F,0,0,1,0,0,0,1 @ F,0,0,1,0,0,0,1 @ F,0,0,1,0,0,0,1 @ F,0,0,1,0,0,0,1 @ F,0,0,1,0,0,0,1 | F,0,0,1,0,0,0,1 @ F,0,0,1,0,0,0,1 @ F,0,0,1,0,0,0,1 @ F,0,0,1,0,0,0,1 @ F,0,0,1,0,0,0,1 @ F,0,0,1,0,0,0,1 | F,0,0,1,0,0,0,1 @ F,0,0,1,0,0,0,1 @ F,0,0,1,0,0,0,1 @ F,0,0,1,0,0,0,1 @ F,0,0,1,0,0,0,1 @ F,0,0,1,0,0,0,1 @ F,0,0,1,0,0,0,1 @ F,0,0,1,0,0,0,1 @ F,0,0,1,0,0,0,1 @ F,0,0,1,0,0,0,1 @ F,0,0,1,0,0,0,1 @ F,0,0,1,0,0,0,1 @ F,0,0,1,0,0,0,1 @ F,0,0,1,0,0,0,1 @ F,0,0,1,0,0,0,1 @ F,0,0,1,0,0,0,1 @ F,0,0,1,0,0,0,1 @ F,0,0,1,0,0,0,1 @ F,0,0,1,0,0,0,1 @ F,0,0,1,0,0,0,1 @ F,0,0,1,0,0,0,1 @ F,0,0,1,0,0,0,1 @ F,0,0,1,0,0,0,1 @ F,0,0,1,0,0,0,1 @ F,0,0,1,0,0,0,1 @ F,0,0,1,0,0,0,1 @ F,0,0,1,0,0,0,1 @ F,0,0,1,0,0,0,1 @ F,0,0,1,0,0,0,1 @ F,0,0,1,0,0,0,1 @ F,0,0,1,0,0,0,1 @ F,0,0,1,0,0,0,1 @ F,0,0,1,0,0,0,1 @ F,0,0,1,0,0,0,1 @ F,0,0,1,0,0,0,1 @ F,0,0,1,0,0,0,1 @ F,0,0,1,0,0,0,1 @ F,0,0,1,0,0,0,1 @ F,0,0,1,0,0,0,1 @ F,0,0,1,0,0,0,1 @ F,0,0,1,0,0,0,1 @ F,0,0,1,0,0,0,1 @ F,0,0,1,0,0,0,1 @ F,0,0,1,0,0,0,1 @ F,0,0,1,0,0,0,1 @ F,0,0,1,0,0,0,1 @ F,0,0,1,0,0,0,1 @ F,0,0,1,0,0,0,1 @ F,0,0,1,0,0,0,1 @ F,0,0,1,0,0,0,1 @ F,0,0,1,0,0,0,1 @ F,0,0,1,0,0,0,1 | F,0,0,1,0,0,0,1 @ F,0,0,1,0,0,0,1 @ F,0,0,1,0,0,0,1 @ F,0,0,1,0,0,0,1 @ F,0,0,1,0,0,0,1 @ F,0,0,1,0,0,0,1 @ F,0,0,1,0,0,0,1 @ F,0,0,1,0,0,0,1 @ F,0,0,1,0,0,0,1 @ F,0,0,1,0,0,0,1 @ F,0,0,1,0,0,0,1 @ F,0,0,1,0,0,0,1 @ F,0,0,1,0,0,0,1 @ F,0,0,1,0,0,0,1 @ F,0,0,1,0,0,0,1 @ F,0,0,1,0,0,0,1 @ F,0,0,1,0,0,0,1 @ F,0,0,1,0,0,0,1 @ F,0,0,1,0,0,0,1 @ F,0,0,1,0,0,0,1 @ F,0,0,1,0,0,0,1 @ F,0,0,1,0,0,0,1 @ F,0,0,1,0,0,0,1 @ F,0,0,1,0,0,0,1 @ F,0,0,1,0,0,0,1 @ F,0,0,1,0,0,0,1 @ F,0,0,1,0,0,0,1 @ F,0,0,1,0,0,0,1 @ F,0,0,1,0,0,0,1 @ F,0,0,1,0,0,0,1 | F,0,0,1,0,0,0,1 @ F,0,0,1,0,0,0,1 @ F,0,0,1,0,0,0,1 @ F,0,0,1,0,0,0,1 @ F,0,0,1,0,0,0,1 @ F,0,0,1,0,0,0,1 @ F,0,0,1,0,0,0,1 @ F,0,0,1,0,0,0,1 | F,0,0,1,0,0,0,1 @ F,0,0,1,0,0,0,1 @ F,0,0,1,0,0,0,1 @ F,0,0,1,0,0,0,1 @ F,0,0,1,0,0,0,1 @ F,0,0,1,0,0,0,1 @ F,0,0,1,0,0,0,1 | F,0,0,1,0,0,0,1 @ F,0,0,1,0,0,0,1 @ F,0,0,1,0,0,0,1 @ F,0,0,1,0,0,0,1 @ F,0,0,1,0,0,0,1 @ F,0,0,1,0,0,0,1 @ F,0,0,1,0,0,0,1 @ F,0,0,1,0,0,0,1 @ F,0,0,1,0,0,0,1 @ F,0,0,1,0,0,0,1 @ F,0,0,1,0,0,0,1 @ F,0,0,1,0,0,0,1 @ F,0,0,1,0,0,0,1 @ F,0,0,1,0,0,0,1 @ F,0,0,1,0,0,0,1 @ F,0,0,1,0,0,0,1 @ F,0,0,1,0,0,0,1 @ F,0,0,1,0,0,0,1 @ F,0,0,1,0,0,0,1 @ F,0,0,1,0,0,0,1 @ F,0,0,1,0,0,0,1 @ F,0,0,1,0,0,0,1 @ F,0,0,1,0,0,0,1 @ F,0,0,1,0,0,0,1 @ F,0,0,1,0,0,0,1 @ F,0,0,1,0,0,0,1 @ F,0,0,1,0,0,0,1 @ F,0,0,1,0,0,0,1 @ F,0,0,1,0,0,0,1 @ F,0,0,1,0,0,0,1 @ F,0,0,1,0,0,0,1 @ F,0,0,1,0,0,0,1 @ F,0,0,1,0,0,0,1 @ F,0,0,1,0,0,0,1 @ F,0,0,1,0,0,0,1 @ F,0,0,1,0,0,0,1 | F,0,0,1,0,0,0,1 @ F,0,0,1,0,0,0,1 @ F,0,0,1,0,0,0,1 @ F,0,0,1,0,0,0,1 @ F,0,0,1,0,0,0,1 @ F,0,0,1,0,0,0,1 @ F,0,0,1,0,0,0,1 @ F,0,0,1,0,0,0,1 @ F,0,0,1,0,0,0,1 @ F,0,0,1,0,0,0,1 | F,0,0,1,0,0,0,1 @ F,0,0,1,0,0,0,1 @ F,0,0,1,0,0,0,1 @ F,0,0,1,0,0,0,1 @ F,0,0,1,0,0,0,1 @ F,0,0,1,0,0,0,1 @ F,0,0,1,0,0,0,1 @ F,0,0,1,0,0,0,1 @ F,0,0,1,0,0,0,1 @ F,0,0,1,0,0,0,1 | F,0,0,1,0,0,0,1 @ F,0,0,1,0,0,0,1 @ F,0,0,1,0,0,0,1 @ F,0,0,1,0,0,0,1 @ F,0,0,1,0,0,0,1 @ F,0,0,1,0,0,0,1 @ F,0,0,1,0,0,0,1 @ F,0,0,1,0,0,0,1 @ F,0,0,1,0,0,0,1 @ F,0,0,1,0,0,0,1 @ F,0,0,1,0,0,0,1 @ F,0,0,1,0,0,0,1 @ F,0,0,1,0,0,0,1 @ F,0,0,1,0,0,0,1 @ F,0,0,1,0,0,0,1 @ F,0,0,1,0,0,0,1 @ F,0,0,1,0,0,0,1 @ F,0,0,1,0,0,0,1 @ F,0,0,1,0,0,0,1 @ F,0,0,1,0,0,0,1 @ F,0,0,1,0,0,0,1 @ F,0,0,1,0,0,0,1 @ F,0,0,1,0,0,0,1 @ F,0,0,1,0,0,0,1 @ F,0,0,1,0,0,0,1 @ F,0,0,1,0,0,0,1 @ F,0,0,1,0,0,0,1 @ F,0,0,1,0,0,0,1 @ F,0,0,1,0,0,0,1 @ F,0,0,1,0,0,0,1 @ F,0,0,1,0,0,0,1 @ F,0,0,1,0,0,0,1 @ F,0,0,1,0,0,0,1 @ F,0,0,1,0,0,0,1 @ F,0,0,1,0,0,0,1 @ F,0,0,1,0,0,0,1 @ F,0,0,1,0,0,0,1 @ F,0,0,1,0,0,0,1 @ F,0,0,1,0,0,0,1 | F,0,0,1,0,0,0,1 @ F,0,0,1,0,0,0,1 @ F,0,0,1,0,0,0,1 @ F,0,0,1,0,0,0,1 @ F,0,0,1,0,0,0,1 @ F,0,0,1,0,0,0,1 @ F,0,0,1,0,0,0,1 @ F,0,0,1,0,0,0,1 @ F,0,0,1,0,0,0,1 @ F,0,0,1,0,0,0,1 | F,0,0,1,0,0,0,1 @ F,0,0,1,0,0,0,1 @ F,0,0,1,0,0,0,1 @ F,0,0,1,0,0,0,1 @ F,0,0,1,0,0,0,1 | F,0,0,1,0,0,0,1 @ F,0,0,1,0,0,0,1 @ F,0,0,1,0,0,0,1 @ F,0,0,1,0,0,0,1 @ F,0,0,1,0,0,0,1 @ F,0,0,1,0,0,0,1 @ F,0,0,1,0,0,0,1 @ F,0,0,1,0,0,0,1 @ F,0,0,1,0,0,0,1 @ F,0,0,1,0,0,0,1 | F,0,0,1,0,0,0,1 @ F,0,0,1,0,0,0,1 @ F,0,0,1,0,0,0,1 @ F,0,0,1,0,0,0,1 @ F,0,0,1,0,0,0,1 @ F,0,0,1,0,0,0,1"
       radius="0"
       unit="px"
       method="auto"
       mode="F"
       chamfer_steps="1"
       flexible="false"
       use_knot_distance="true"
       apply_no_radius="true"
       apply_with_radius="true"
       only_selected="false"
       hide_knots="false" /><linearGradient
       inkscape:collect="always"
       xlink:href="#linearGradient3"
       id="linearGradient4"
       x1="47.01712"
       y1="67.172379"
       x2="42.552055"
       y2="24.690123"
       gradientUnits="userSpaceOnUse"
       gradientTransform="matrix(1.1492526,0,0,1.1492526,-14.945623,-8.0373297)" /><linearGradient
       inkscape:collect="always"
       xlink:href="#linearGradient3"
       id="linearGradient506"
       x1="47.174866"
       y1="52.816425"
       x2="47.174866"
       y2="-19.615822"
       gradientUnits="userSpaceOnUse"
       gradientTransform="matrix(1.271887,0,0,1.271887,58.817701,12.977893)" /><linearGradient
       inkscape:collect="always"
       xlink:href="#linearGradient3"
       id="linearGradient508"
       x1="6.7290735"
       y1="77.929855"
       x2="86.67099"
       y2="77.929855"
       gradientUnits="userSpaceOnUse"
       gradientTransform="matrix(1.271887,0,0,1.271887,60.31513,-41.724423)" /><linearGradient
       inkscape:collect="always"
       xlink:href="#linearGradient3"
       id="linearGradient2"
       x1="74.443481"
       y1="45.205296"
       x2="172.74504"
       y2="45.205296"
       gradientUnits="userSpaceOnUse"
       gradientTransform="translate(-4.4259295,0.99413469)" /></defs><path
     style="mix-blend-mode:darken;fill:url(#linearGradient4);fill-rule:nonzero;stroke-width:1.14926"
     d="m 43.794193,67.45736 c 0.25086,-0.253544 1.858647,-1.72161 3.572859,-3.262371 l 3.116749,-2.801381 v -6.973184 c 0,-3.835253 -0.06756,-6.973184 -0.150146,-6.973184 -0.08259,0 -1.811648,1.23922 -3.842374,2.753824 l -3.692229,2.753824 -0.870759,-0.834239 c -0.478916,-0.458832 -0.870757,-1.001707 -0.870757,-1.20639 0,-0.204684 2.014425,-1.992119 4.476501,-3.97208 2.462076,-1.979959 5.352965,-4.3183 6.424199,-5.19631 1.071233,-0.878011 2.067127,-1.596383 2.213105,-1.596383 0.146092,0 0.265408,4.767798 0.265408,10.605324 0,8.114904 -0.0893,10.678699 -0.380093,10.917777 -0.209048,0.171849 -2.158915,1.328865 -4.333038,2.57115 -2.174123,1.242284 -4.500282,2.577278 -5.169242,2.966655 -0.668961,0.389375 -1.011042,0.500511 -0.760183,0.246968 z M 26.766101,66.282978 C 25.67904,65.63369 23.387089,64.312672 21.672877,63.347381 L 18.556128,61.592307 V 50.870896 c 0,-5.896776 0.06908,-10.72141 0.153502,-10.72141 0.133477,0 3.84545,2.900791 11.173219,8.731521 1.128873,0.898246 2.052495,1.806926 2.052495,2.01929 0,0.212362 -0.39997,0.769308 -0.888821,1.237657 l -0.888821,0.851543 -3.618058,-2.771129 c -1.989933,-1.52412 -3.710873,-2.771128 -3.824312,-2.771128 -0.113443,0 -0.206254,3.133817 -0.206254,6.964038 v 6.96404 l 3.342076,3.070371 c 1.838143,1.688705 3.24068,3.058546 3.116749,3.044092 -0.123929,-0.01446 -1.11474,-0.557517 -2.201802,-1.206803 z m 9.426265,-2.689831 c 0,-2.072216 -0.01319,-2.106263 -1.054434,-2.720608 -1.295746,-0.764509 -1.680413,-1.944751 -0.910952,-2.794995 0.296602,-0.327741 0.654901,-0.595893 0.796221,-0.595893 0.425754,0 0.289995,0.675779 -0.257238,1.280464 -0.487616,0.538809 -0.464049,0.618301 0.45611,1.538461 l 0.970293,0.970293 v -1.742573 c 0,-0.959 0.136731,-1.742572 0.304074,-1.742572 0.16724,0 0.304073,0.684163 0.304073,1.520366 0,1.806063 0.616054,2.062884 1.384374,0.577116 0.462963,-0.895273 0.455018,-0.978114 -0.156221,-1.628748 -0.354198,-0.377025 -1.425387,-1.079468 -2.380422,-1.560983 -2.129022,-1.073425 -3.104755,-2.074642 -3.104755,-3.185846 0,-0.913892 1.317349,-2.715587 1.98556,-2.715587 0.84811,0 0.791306,0.695212 -0.125199,1.532311 -0.521479,0.476296 -0.948142,1.055103 -0.948142,1.28624 0,0.598486 1.186279,1.633987 2.501433,2.183493 1.732394,0.723841 3.275956,2.218313 3.275956,3.171772 0,1.022304 -0.753184,2.119256 -1.703088,2.480409 -0.667072,0.25362 -0.729496,0.44713 -0.729496,2.261355 0,1.119952 -0.132427,1.984001 -0.304073,1.984001 -0.173342,0 -0.304074,-0.902207 -0.304074,-2.098476 z M 13.664397,58.84006 12.269507,58.12841 12.059309,43.005376 c -0.13332,-9.592016 -0.102996,-15.230237 0.08292,-15.41615 0.188106,-0.188106 1.350606,0.565878 3.244898,2.104604 1.623482,1.318745 3.855864,3.11905 4.96085,4.000678 1.104986,0.881627 3.582849,2.890151 5.50636,4.463388 1.923511,1.573236 4.088648,3.288804 4.811415,3.812374 1.024995,0.742502 1.239884,1.041395 0.976698,1.358514 -0.185582,0.223613 -0.575712,0.896466 -0.866954,1.495229 L 30.245965,45.912672 24.781139,41.6231 c -3.005657,-2.359264 -6.285825,-4.974753 -7.289266,-5.812197 l -1.824439,-1.522624 -0.215112,11.82474 c -0.118312,6.503608 -0.255145,12.18788 -0.304074,12.631716 l -0.08897,0.806974 z m 44.116505,-4.293772 c -3.68e-4,-2.817416 -0.09056,-8.504726 -0.200464,-12.638467 l -0.19981,-7.515895 -0.679518,0.522213 c -0.373737,0.287218 -3.191233,2.50912 -6.261095,4.937562 -3.069861,2.42844 -6.022077,4.726721 -6.560481,5.10729 l -0.978913,0.691943 -0.209461,-0.850268 c -0.115203,-0.467647 -0.395732,-1.138195 -0.623398,-1.490107 -0.435895,-0.673778 0.147005,-1.21179 9.35475,-8.634389 1.14104,-0.919821 3.708742,-3.006523 5.706016,-4.637114 1.997263,-1.630592 3.715098,-2.964713 3.817404,-2.964713 0.102283,0 0.15054,6.927936 0.107225,15.395413 l -0.07884,15.395411 -1.596393,0.901847 -1.596381,0.901847 z m -20.068171,1.168108 c 0,-0.13579 0.4105,-0.550385 0.912219,-0.921323 1.815494,-1.342252 1.01164,-2.453533 -3.208071,-4.434978 -1.566161,-0.735421 -3.040169,-1.658631 -3.420822,-2.142553 -1.130205,-1.436821 -0.753933,-3.38751 0.962747,-4.991128 0.70213,-0.655889 0.865861,-0.689249 1.695717,-0.345511 l 0.918548,0.380475 -1.514789,1.361925 c -0.833135,0.74906 -1.514791,1.613595 -1.514791,1.92119 0,0.684885 0.979663,1.391415 3.952951,2.850852 3.846582,1.888097 4.835647,3.647815 3.165736,5.632391 -0.717381,0.85256 -1.949445,1.287797 -1.949445,0.68866 z m -1.701128,-1.086653 c -0.08892,-0.231727 -0.118836,-1.018516 -0.06648,-1.74842 0.06705,-0.934614 0.230094,-1.327097 0.551312,-1.327097 0.341974,0 0.478928,0.437514 0.547301,1.74842 0.07457,1.429829 0.0035,1.74842 -0.389635,1.74842 -0.264454,0 -0.553581,-0.189596 -0.642503,-0.421323 z m 1.763589,-5.415236 c -0.281609,-0.281607 -0.01138,-0.688373 1.202183,-1.809952 1.494982,-1.38161 1.54512,-1.478151 1.114184,-2.145361 -0.261225,-0.404448 -2.26126,-1.598873 -4.749563,-2.836445 -4.7312,-2.353091 -5.825019,-3.208502 -6.968008,-5.449265 -0.746694,-1.463849 -0.753546,-1.53242 -0.247099,-2.472834 0.699493,-1.298881 1.67063,-1.721009 2.960691,-1.28694 2.077866,0.699145 2.306192,1.616928 0.54369,2.185434 -2.540502,0.819454 -0.587816,3.091753 4.591539,5.343077 3.971361,1.72624 5.442872,3.035383 5.442872,4.842292 0,1.06576 -0.201971,1.489281 -1.255018,2.631703 -1.275433,1.383682 -1.982319,1.651444 -2.635471,0.998291 z m -1.684184,-0.751691 c -0.251694,-0.251694 -0.27043,-4.49338 -0.02095,-4.742861 0.09997,-0.09997 0.373636,-0.108133 0.608147,-0.01814 0.597958,0.229459 0.61794,4.963723 0.02095,4.963723 -0.222987,0 -0.496653,-0.09123 -0.608147,-0.202715 z m 2.761998,-7.161467 c -0.459911,-0.158578 -0.836202,-0.39949 -0.836202,-0.535359 0,-0.135869 0.653185,-0.666182 1.45152,-1.178472 0.798335,-0.512292 1.845442,-1.342605 2.326905,-1.845143 0.747747,-0.78048 0.816735,-0.984375 0.473143,-1.398377 -0.221233,-0.266569 -0.857841,-0.675033 -1.414685,-0.907698 -1.169175,-0.488511 -1.250431,-0.824217 -0.404298,-1.670349 0.86677,-0.866769 2.764515,-0.816566 3.831672,0.101364 1.554991,1.337547 0.711873,3.811922 -2.063244,6.055186 -1.858982,1.502709 -2.382917,1.717409 -3.364811,1.378848 z m -2.736658,-1.478293 c -0.45848,-0.267041 -0.532591,-0.802333 -0.535474,-3.867684 -0.0042,-4.494066 -0.219368,-5.934583 -0.850175,-5.69252 -0.760928,0.291996 -4.283301,-1.63365 -4.793711,-2.620673 -0.610254,-1.180103 -1.489966,-1.133565 -4.853914,0.256779 -3.291034,1.360207 -6.080869,1.565258 -7.603313,0.558841 l -0.900108,-0.595022 2.584622,-0.359418 c 2.84232,-0.395254 2.62997,-0.330669 6.619303,-2.013242 4.470921,-1.885693 6.131995,-1.578453 6.63819,1.227832 0.325471,1.804366 0.638397,2.182832 1.804822,2.182832 h 1.053557 v -1.473237 c 0,-1.087067 -0.15941,-1.617502 -0.608145,-2.023602 -1.330622,-1.204195 -0.320714,-3.496841 1.540355,-3.496841 1.244666,0 2.075412,0.481475 2.427193,1.406726 0.310579,0.816887 -0.06553,1.888172 -0.819171,2.333279 -0.25805,0.152406 -0.41172,0.804984 -0.41172,1.74842 0,1.442994 0.03494,1.505255 0.84456,1.505255 1.246996,0 2.19617,-0.78741 2.19617,-1.821884 0,-2.433076 1.389086,-3.320391 3.989235,-2.54823 0.857132,0.25454 2.635199,0.936232 3.951261,1.514872 1.582238,0.69567 3.267055,1.164921 4.973451,1.385194 2.708064,0.349575 2.946798,0.618385 1.198096,1.349038 -1.650995,0.68983 -2.977018,0.504509 -6.902214,-0.964631 l -3.712988,-1.389716 -0.456111,0.662547 c -1.238881,1.799605 -2.941768,2.884941 -4.865169,3.100815 l -1.064255,0.119449 -0.07397,4.237461 c -0.09842,5.638888 -0.183984,5.968374 -1.370382,5.27736 z m -6.411619,-7.912859 c -0.307017,-0.182695 -1.211587,-0.36737 -2.010155,-0.410389 -2.337611,-0.12593 -2.358578,-0.410098 -0.129452,-1.754547 1.643745,-0.991389 2.135658,-1.16335 2.521971,-0.881619 0.263957,0.192499 0.822004,0.489421 1.240104,0.659826 0.4181,0.170406 1.307514,0.556126 1.976475,0.857155 l 1.216292,0.547329 -0.912219,0.470824 c -1.267783,0.654341 -3.230623,0.911538 -3.903016,0.511421 z m 9.414442,-0.297106 c -0.935047,-0.735508 -0.7998,-1.187447 0.359926,-1.202719 0.45004,-0.006 1.160339,-0.200642 1.578439,-0.432704 0.665071,-0.369138 0.835615,-0.358278 1.363088,0.08679 0.571307,0.482059 0.580645,0.480032 0.178157,-0.03867 -0.367752,-0.473934 -0.356756,-0.615381 0.08195,-1.054074 0.472864,-0.472863 0.636191,-0.436327 2.446919,0.547389 1.06713,0.579741 1.956879,1.190907 1.977222,1.358147 0.06008,0.493965 -1.819781,0.844368 -2.606607,0.485867 -0.549739,-0.250479 -0.704059,-0.229379 -0.704059,0.09626 0,0.603694 -0.793311,0.816352 -1.724559,0.462292 -0.54937,-0.20887 -0.907752,-0.206146 -1.122429,0.0085 -0.468001,0.468001 -0.932312,0.387453 -1.828035,-0.317122 z M 22.113972,30.300102 c -1.087969,-0.336871 -1.249296,-0.793174 -0.280425,-0.793174 0.241672,0 1.868352,-0.56916 3.614847,-1.264801 2.879996,-1.147122 3.21968,-1.220566 3.650884,-0.789362 0.642128,0.642128 0.466842,0.835147 -1.772506,1.951829 -2.297299,1.145579 -3.652993,1.378474 -5.2128,0.895508 z m 23.50466,-0.9536 c -1.087062,-0.577197 -1.962793,-1.187727 -1.946068,-1.356731 0.07884,-0.796694 0.150649,-0.915428 0.553663,-0.915428 0.237618,0 1.565183,0.477903 2.950146,1.062006 1.384961,0.584103 2.969374,1.146663 3.520917,1.250132 1.944765,0.364841 0.809377,1.030754 -1.733855,1.016918 -0.96539,-0.0053 -1.950352,-0.316483 -3.344803,-1.056897 z"
     id="path5"
     sodipodi:nodetypes="sscssscsssssssssssscssssscssscssssssssscssssssssssssssssccsssssssscsscssccsscssscsssssccccssssssscssssssssssssscsssssssssssssssssssssssssscsssscsssscssssssssssssscsscssssssssscssccssssssssscccssssssssssscs"
     inkscape:label="Isologo" /><g
     inkscape:label="Layer 1"
     inkscape:groupmode="layer"
     id="layer1"
     style="display:inline" /><path
     id="path8"
     style="fill:url(#linearGradient506);stroke-width:1.27189"
     d="m 129.32503,28.059239 c -1.4855,-0.0771 -2.70195,0.158518 -3.91205,0.732851 -1.62832,0.772833 -2.91868,2.235512 -3.30801,3.749045 -0.24761,0.962625 -0.14334,2.909764 0.2031,3.789792 0.71656,1.820312 2.17785,3.057095 4.26959,3.613647 0.98998,0.263408 3.37377,0.223636 4.44312,-0.07428 0.91712,-0.255497 1.4459,-0.483635 1.49068,-0.644122 0.0198,-0.07123 0.15938,-0.580057 0.31023,-1.130491 0.15084,-0.550435 0.29649,-1.079527 0.32404,-1.175847 0.11179,-0.390991 -0.24474,-0.140417 -0.61258,0.430508 -0.79248,1.229966 -1.84982,1.87466 -3.23112,1.971132 -1.43938,0.100479 -2.76091,-0.435099 -3.62022,-1.467668 -1.11855,-1.344067 -1.51236,-2.950751 -1.2212,-4.982077 0.33179,-2.314851 1.62453,-3.771282 3.5959,-4.050072 2.0178,-0.285353 3.70581,0.587544 4.28406,2.215644 0.0982,0.276485 0.21289,0.502808 0.25501,0.502808 0.0653,0 0.0953,-0.634632 0.1216,-2.56991 0.006,-0.434536 0.0319,-0.42348 -1.80748,-0.730222 -0.56471,-0.09417 -1.0895,-0.155047 -1.58467,-0.180748 z m -54.273052,0.06967 c -0.77895,-0.0017 -1.53277,0.04 -1.50382,0.126845 0.0217,0.06501 0.1734,0.166609 0.33717,0.225443 0.48063,0.172666 0.74115,0.407974 0.84262,0.76177 0.0703,0.245192 -0.0217,1.399979 -0.35361,4.441804 -0.61676,5.651824 -0.62267,5.68006 -1.225144,5.824025 -0.367543,0.08789 -0.438264,0.134782 -0.37004,0.245169 0.04282,0.05087 0.802504,0.09272 1.702974,0.09272 1.39586,0 1.6458,-0.02251 1.6458,-0.149853 0,-0.09412 -0.0953,-0.149867 -0.25502,-0.149867 -0.14011,0 -0.36508,-0.110654 -0.50018,-0.245817 -0.22155,-0.221538 -0.24582,-0.327664 -0.24582,-1.080545 0,-1.17011 0.48305,-6.944452 0.59943,-7.166164 0.0461,-0.08779 0.16264,0.08926 0.32994,0.500179 0.215,0.528065 1.40605,3.220042 1.91988,4.339272 0.0758,0.165129 0.45072,0.998367 0.83275,1.851511 1.00189,2.237427 0.93374,2.114194 1.15219,2.080909 0.13392,-0.02035 0.28867,-0.247395 0.49755,-0.730229 0.37498,-0.866765 1.57875,-3.543554 2.04804,-4.553533 0.19182,-0.412827 0.49731,-1.088369 0.6783,-1.501196 0.18098,-0.412826 0.47603,-1.065938 0.65595,-1.451242 0.32084,-0.68711 0.32851,-0.69475 0.40422,-0.400275 0.0645,0.25092 0.25742,2.112745 0.44562,4.303777 0.0236,0.275213 0.0619,0.635424 0.0854,0.800553 0.0861,0.603002 0.20747,2.209382 0.18798,2.49038 -0.0257,0.370183 -0.35776,0.722903 -0.75586,0.802523 -0.2096,0.04197 -0.27876,0.09526 -0.21098,0.162992 0.13573,0.135736 4.33857,0.0842 4.34518,-0.05329 0.003,-0.05507 -0.13126,-0.128295 -0.29774,-0.162344 -0.4777,-0.09768 -0.75996,-0.336236 -0.88994,-0.753224 -0.0661,-0.212163 -0.25836,-1.646521 -0.42722,-3.187738 -0.77824,-7.103335 -0.78004,-6.810874 0.0565,-7.09847 0.80704,-0.277448 0.54446,-0.364332 -1.01482,-0.335205 l -1.48542,0.0276 -0.22544,0.450883 c -0.12407,0.247695 -0.47792,1.03539 -0.78609,1.750956 -1.16177,2.697599 -1.84014,4.227147 -2.41611,5.446767 l -0.35098,0.743367 -0.17352,-0.442998 c -0.0955,-0.243579 -0.45031,-1.021305 -0.78806,-1.727955 -0.33775,-0.706649 -0.61388,-1.300368 -0.61388,-1.31979 0,-0.01942 -0.18532,-0.431996 -0.41211,-0.916886 -0.22679,-0.484873 -0.70359,-1.534488 -1.05951,-2.33262 -0.35591,-0.798131 -0.69422,-1.507314 -0.75125,-1.576124 -0.0721,-0.08693 -0.87605,-0.132385 -1.655,-0.134082 z m 65.259912,1.511711 c -1.96033,-0.0066 -4.14774,1.087386 -5.12536,2.563337 -1.16468,1.758339 -0.98815,4.389661 0.4075,6.063274 0.65982,0.791215 1.90096,1.51544 3.03329,1.770021 1.15304,0.259236 2.8194,0.0051 3.96068,-0.602709 1.3948,-0.743418 2.54334,-2.345716 2.8039,-3.911393 0.51328,-3.084374 -1.8943,-5.871846 -5.08001,-5.88253 z m -36.24887,0.18272 c -0.60615,-0.02665 -1.52036,-0.01631 -3.19102,0.01119 -1.540324,0.02532 -2.26759,0.06568 -2.30962,0.136055 -9.7e-4,0.002 -0.003,0.0052 -0.003,0.0072 0.005,0.02904 0.11765,0.0639 0.330607,0.10385 0.200669,0.03765 0.433859,0.17676 0.555389,0.331261 0.206147,0.262082 0.209627,0.332727 0.180087,4.439173 -0.0285,3.95046 -0.0404,4.184538 -0.222157,4.38528 -0.10557,0.116632 -0.32774,0.247534 -0.493609,0.290511 -0.165847,0.04299 -0.319677,0.132213 -0.341767,0.198491 -0.0306,0.09208 0.628526,0.120066 2.79533,0.118921 3.53182,-0.0013 4.19669,-0.122355 5.48292,-0.99576 1.77452,-1.205049 2.60521,-3.205816 2.20578,-5.312019 -0.3241,-1.709036 -1.6112,-2.945144 -3.64782,-3.503884 -0.438,-0.120167 -0.73599,-0.183679 -1.34214,-0.210325 z m -11.122241,0.06573 c -3.44797,0 -3.97468,0.05367 -2.88013,0.293141 0.49908,0.109191 0.50866,0.196315 0.489,4.543677 -0.0204,4.513483 -0.0376,4.64389 -0.62243,4.79541 -0.17904,0.04642 -0.34335,0.138788 -0.36544,0.205066 -0.0308,0.09247 0.78587,0.12032 3.50717,0.12032 h 3.547261 l 0.13145,-0.625056 c 0.0722,-0.34402 0.20986,-0.849773 0.30564,-1.123928 0.0958,-0.274143 0.14797,-0.541264 0.11561,-0.593513 -0.0639,-0.103405 -0.18318,0.04172 -0.62572,0.761771 -0.38128,0.620363 -0.91996,0.897074 -1.867291,0.958952 -0.98608,0.06436 -1.80749,-0.05126 -2.04344,-0.287218 -0.17544,-0.175444 -0.19192,-0.351804 -0.19192,-2.05528 v -1.863343 l 1.24749,0.04141 c 1.13831,0.0379 1.26948,0.06199 1.49594,0.274738 0.136513,0.128249 0.261992,0.328625 0.278682,0.445623 0.0167,0.117014 0.075,0.202205 0.130139,0.188634 0.0598,-0.01475 0.10061,-0.50845 0.10061,-1.225796 0,-0.71677 -0.0408,-1.211208 -0.10061,-1.226458 -0.0551,-0.01405 -0.113959,0.07509 -0.131459,0.197837 -0.0174,0.12275 -0.147849,0.314062 -0.289192,0.42525 -0.22637,0.178062 -0.40395,0.202439 -1.49397,0.202439 h -1.23763 v -1.90147 -1.901471 h 1.25406 c 1.38038,0 1.777642,0.101369 2.124941,0.542902 0.11549,0.146864 0.23904,0.400074 0.27474,0.56262 0.13282,0.604773 0.24911,0.263851 0.2491,-0.730223 v -1.025991 z m 67.578751,0.02892 c -3.06938,0.02666 -3.8694,0.0971 -2.98201,0.263564 0.20174,0.03785 0.43408,0.177181 0.55735,0.33389 0.20846,0.26502 0.21089,0.324522 0.17944,4.324809 -0.0288,3.652657 -0.0496,4.087757 -0.20901,4.379363 -0.10722,0.196099 -0.28465,0.349527 -0.45024,0.389095 -0.36691,0.08763 -0.43692,0.13482 -0.36872,0.245169 0.0337,0.05456 1.48587,0.09336 3.50717,0.09336 2.67363,0 3.45828,-0.02862 3.4868,-0.125535 0.0202,-0.06881 0.17635,-0.560979 0.34703,-1.093696 0.35561,-1.109887 0.35124,-1.083495 0.18536,-1.081206 -0.0688,9.67e-4 -0.26045,0.237805 -0.42592,0.525824 -0.23775,0.413859 -0.41596,0.58241 -0.8505,0.804494 -0.52729,0.269474 -0.6001,0.279306 -1.77264,0.24976 -0.98651,-0.0248 -1.25512,-0.06321 -1.39143,-0.199813 -0.14565,-0.145886 -0.17064,-0.425129 -0.17878,-2.026345 l -0.009,-1.857438 h 1.07857 c 1.31825,1.4e-5 1.6982,0.127984 1.88175,0.635574 0.0705,0.19479 0.16528,0.331505 0.21033,0.303663 0.1165,-0.07199 0.10226,-2.415852 -0.0151,-2.488414 -0.0534,-0.03299 -0.16425,0.09923 -0.24582,0.294456 -0.0883,0.211168 -0.25386,0.395673 -0.40947,0.454828 -0.39508,0.150214 -2.34682,0.129351 -2.39771,-0.02563 -0.0997,-0.303802 -0.10569,-3.674924 -0.006,-3.71158 0.0574,-0.02122 0.69752,-0.01107 1.42298,0.02235 1.55087,0.07156 1.78915,0.182639 2.03358,0.943833 0.0825,0.257111 0.19041,0.454359 0.23924,0.438396 0.10137,-0.04838 0.0836,-1.996941 -0.0197,-2.071701 -0.038,-0.0275 -1.56655,-0.03694 -3.39674,-0.02104 z m -11.1091,0.02235 c -1.44491,-5.98e-4 -2.6271,0.03648 -2.6271,0.08281 0,0.04633 0.17968,0.13806 0.39895,0.203753 0.21929,0.06569 0.44582,0.207745 0.50348,0.315486 0.0697,0.130159 0.0957,1.626273 0.077,4.458892 l -0.0282,4.26303 -0.23662,0.191253 c -0.12995,0.105185 -0.34369,0.191267 -0.4752,0.191267 -0.23329,0 -0.30641,0.09908 -0.1722,0.233327 0.0368,0.03676 0.95962,0.06703 2.05132,0.06703 1.61548,0 1.98495,-0.02557 1.98495,-0.137364 0,-0.08293 -0.15906,-0.163005 -0.4016,-0.201785 -0.76921,-0.122991 -0.79923,-0.21037 -0.79923,-2.322771 v -1.860719 l 0.52515,0.06967 c 0.61512,0.08182 0.80573,0.234332 1.27313,1.019417 0.19027,0.319587 0.65237,1.042757 1.02731,1.607016 0.72967,1.098097 1.12057,1.438352 1.93433,1.683254 0.50821,0.152944 1.84494,0.19774 1.84494,0.06181 0,-0.0449 -0.15493,-0.155463 -0.3444,-0.245818 -0.42207,-0.201263 -0.88924,-0.784373 -2.09668,-2.615254 -0.51184,-0.776118 -1.05016,-1.537598 -1.19623,-1.691803 -0.3131,-0.330557 -0.32201,-0.368621 -0.09,-0.373327 0.43835,-0.0089 1.30035,-0.774607 1.62344,-1.442041 0.50357,-1.040223 0.15161,-2.485871 -0.73087,-3.003047 -0.86094,-0.504543 -1.21463,-0.55291 -4.04548,-0.554076 z m -9.61384,0.393702 c 0.71785,0.01577 1.44028,0.281932 2.01781,0.809752 1.18971,1.087331 1.69194,2.670282 1.47227,4.640293 -0.16654,1.493602 -0.43963,2.203913 -1.10223,2.865675 -0.36246,0.362018 -0.69783,0.596541 -0.96684,0.675678 -1.15819,0.340725 -2.45713,0.01755 -3.29421,-0.819617 -1.6964,-1.696595 -1.96864,-5.14121 -0.55473,-7.016307 0.58982,-0.782225 1.505,-1.175756 2.42793,-1.155474 z m 10.64836,0.205724 c 0.53202,0 0.68802,0.04523 1.10619,0.32469 0.71172,0.475659 0.9589,1.010912 0.91426,1.977055 -0.0427,0.925392 -0.27061,1.427031 -0.80976,1.783819 -0.3251,0.215145 -0.53437,0.269615 -1.11012,0.28854 -0.39028,0.01283 -0.76592,-0.0017 -0.83473,-0.0322 -0.17516,-0.0778 -0.18016,-4.047372 -0.005,-4.222275 0.0675,-0.06753 0.39127,-0.119621 0.73942,-0.119621 z m -47.39018,0.01512 c 2.81676,0.04371 4.37255,1.97037 4.02773,5.077378 -0.22915,2.064776 -1.08392,3.080912 -2.91826,3.469702 -0.3657,0.07746 -0.82282,0.138852 -1.01547,0.136054 -0.53492,-0.0076 -1.32246,-0.248921 -1.46966,-0.450223 -0.0874,-0.11943 -0.13469,-0.535807 -0.1413,-1.236973 -0.005,-0.581202 -0.0271,-2.31759 -0.048,-3.858809 -0.0209,-1.541218 -0.001,-2.859916 0.0434,-2.930748 0.0504,-0.07991 0.40713,-0.152264 0.94121,-0.18995 0.19879,-0.01403 0.39258,-0.01935 0.58036,-0.01643 z m 10.61156,4.288001 -0.0644,0.343751 c -0.0355,0.189081 -0.0314,0.397717 0.009,0.463372 0.0546,0.08826 0.56568,0.107678 1.96062,0.07427 1.0377,-0.02485 1.90496,-0.06461 1.92776,-0.08808 0.0228,-0.02347 0.068,-0.211607 0.10061,-0.41802 l 0.0591,-0.3753 h -1.99611 z m 45.08318,3.240972 c 0.0131,-0.0013 0.0279,0.0025 0.0434,0.01145 0.0384,0.02366 0.0712,0.06474 0.088,0.105185 0.008,0.01755 0.0114,0.03498 0.0114,0.05062 0,0.05177 -0.0449,0.09399 -0.0998,0.09399 -0.004,0 -0.008,-6.1e-4 -0.0114,-0.0013 0.004,5.09e-4 0.0114,0.001 0.0177,6.62e-4 0.0404,-0.0025 0.0749,-0.02849 0.0881,-0.06512 0.004,-0.01018 0.004,-0.01272 0.004,-0.02887 -1.4e-4,-0.0201 -0.003,-0.0304 -0.0102,-0.04998 -0.0114,-0.02722 -0.0284,-0.05126 -0.0506,-0.07364 -0.0312,-0.03142 -0.0597,-0.04617 -0.0815,-0.0421 -0.0215,0.0038 -0.0387,0.02188 -0.0473,0.04935 -0.001,0.0051 -0.003,0.0076 -0.004,0.01145 0.008,-0.03625 0.0271,-0.05902 0.0519,-0.06245 z m -78.142322,0.0051 h 6.6e-4 c 0.003,0.0038 0.005,0.0076 0.005,0.01145 -3.9e-4,-6.36e-4 -9.3e-4,-0.0013 -0.001,-0.0013 -4.1e-4,-0.0013 -10e-4,-0.0038 -0.003,-0.0051 -6.7e-4,-0.0013 -10e-4,-0.0025 -0.002,-0.0038 z m 78.090402,0.05851 c -0.003,0.01272 -0.004,0.022 -0.004,0.04337 0,0.02175 9.2e-4,0.02849 0.004,0.0407 0.005,0.02442 0.0114,0.04579 0.0224,0.06309 0.006,0.01018 0.0141,0.01908 0.0224,0.02696 0.009,0.0089 0.0195,0.0159 0.0295,0.01971 -0.0204,-0.0076 -0.0383,-0.0234 -0.0519,-0.04668 -0.0164,-0.02785 -0.027,-0.06474 -0.027,-0.105185 0,-0.01552 0.001,-0.02951 0.005,-0.0421 z m -67.716771,0.644114 c 2.9e-4,5.1e-5 0.001,-3.8e-5 0.001,0 -2.7e-4,1.27e-4 -0.001,5.47e-4 -0.001,6.61e-4 z m 40.866141,0.276712 c 5.4e-4,5.59e-4 0.001,0.0013 0.003,0.0025 -7.5e-4,-5.47e-4 -0.003,-8.01e-4 -0.003,-0.0013 z m -44.763072,0.05787 c 0.001,8.91e-4 0.002,0.0013 0.003,0.0025 -7.1e-4,0 -0.001,0 -0.002,0 -9.2e-4,-7.76e-4 -0.002,-0.0012 -0.003,-0.0025 5.9e-4,-1.39e-4 10e-4,-5.08e-4 0.002,-6.48e-4 z m 77.103842,0.01908 h 6.5e-4 c 9.8e-4,2.92e-4 0.001,3.94e-4 0.003,6.61e-4 -0.001,-7.6e-5 -0.003,1.02e-4 -0.004,0 z m -72.361671,0.02569 h 6.6e-4 c 0.003,0.0025 0.004,0.0051 0.005,0.0076 h -6.6e-4 c -10e-4,-0.0025 -0.004,-0.0051 -0.005,-0.0076 z m -4.700761,0.0131 c 5.4e-4,0.0013 0.001,0.0025 0.002,0.0038 -5.1e-4,3.8e-5 -0.002,-3.8e-5 -0.002,0 -3.9e-4,-0.0011 -2.5e-4,-0.0025 -6.6e-4,-0.0038 z m 4.272231,0.335206 c 9.9e-4,-2.5e-5 10e-4,3.8e-5 0.003,0 8e-4,3.56e-4 10e-4,9.67e-4 0.003,0.0013 -9.9e-4,3.8e-5 -0.001,-3.8e-5 -0.003,0 -8.1e-4,-3.56e-4 -0.001,-9.41e-4 -0.003,-0.0013 z" /><path
     id="path505"
     style="fill:url(#linearGradient508);fill-opacity:1;stroke-width:1.27189"
     d="m 157.26248,50.473539 c -0.0851,0.0018 -0.22236,0.0804 -0.34637,0.20441 -0.12835,0.128342 -0.13725,0.155076 -0.10646,0.243845 0.13579,0.03308 0.14341,-0.0017 0.28788,-0.09991 0.20582,-0.182897 0.26888,-0.257038 0.21493,-0.337177 -0.0132,-0.0081 -0.0303,-0.01157 -0.05,-0.01119 z m -0.55867,0.679612 c -0.14276,0.223546 -0.067,0.632347 -0.0722,0.932661 -0.0131,1.059581 6.7e-4,1.139761 0.20113,1.172563 0.11841,0.01935 0.23134,0.02536 0.25107,0.01314 0.0197,-0.01221 0.036,-0.497979 0.0361,-1.079888 3e-4,-0.900129 -0.045,-0.994414 -0.17878,-1.095004 -0.0686,-0.0239 -0.1788,-0.0259 -0.23727,0.05652 z m -60.55454,-0.09464 v 1.140356 1.140356 h 0.46074 c 0.57545,0 1.12488,-0.223732 1.35396,-0.550789 0.26147,-0.373297 0.22475,-0.994865 -0.0803,-1.349367 -0.22426,-0.260728 -0.34819,-0.302556 -0.99575,-0.339148 z m -12.519612,0.01907 c -0.19544,-0.0047 -0.40292,0.03646 -0.60994,0.130795 -0.74678,0.340258 -0.77155,1.574561 -0.0394,1.980342 0.31663,0.175495 0.60889,0.185504 1.04111,0.03484 0.43529,-0.151743 0.66844,-0.526353 0.66844,-1.072657 0,-0.633487 -0.47383,-1.059142 -1.06017,-1.073315 z m 46.465392,0.0013 -0.26881,6.57e-4 0.023,1.102893 c 0.0127,0.60658 0.0248,1.117355 0.027,1.135098 v 6.56e-4 l 6.4e-4,6.58e-4 6.7e-4,6.57e-4 c 0.0265,0.01533 0.29679,0.01488 0.62111,-0.0019 0.56819,-0.02963 0.62157,-0.05465 0.65464,-0.301685 0.0291,-0.21742 0.0102,-0.24279 -0.10188,-0.134082 -0.0761,0.07397 -0.2777,0.134082 -0.4476,0.134082 h -0.30892 l 0.0349,-0.968153 0.0342,-0.96881 z m -60.14572,6.57e-4 c -0.631302,0 -1.056312,0.506387 -0.778203,0.926745 0.04347,0.06572 0.248366,0.205612 0.455486,0.310886 0.465133,0.236429 0.552566,0.363629 0.419336,0.612573 -0.140753,0.263001 -0.471155,0.244435 -0.737453,-0.04141 L 69.08897,52.653069 v 0.281309 c 0,0.177511 0.06919,0.299563 0.187977,0.330605 0.552902,0.144487 1.075436,-0.04679 1.171249,-0.428537 0.08919,-0.355313 -0.0098,-0.541832 -0.414078,-0.78149 -0.573265,-0.339817 -0.652065,-0.433671 -0.507409,-0.607971 0.173596,-0.209168 0.530967,-0.190835 0.703274,0.03615 0.129938,0.171179 0.143454,0.161196 0.14657,-0.107792 0.0032,-0.274034 -0.02862,-0.29577 -0.427223,-0.29577 z m 4.142748,0 v 1.12984 1.12984 h 0.67238 c 0.66393,0 0.67224,-0.0037 0.66384,-0.295769 -0.003,-0.10937 -0.0171,-0.178454 -0.0348,-0.189293 h -6.5e-4 l -6.6e-4,-6.57e-4 h -6.6e-4 c -4.2e-4,1.5e-5 -10e-4,2.4e-5 -10e-4,0 h -6.6e-4 -6.5e-4 c -2.8e-4,2.5e-5 -0.002,-5e-5 -0.002,0 -0.007,0.0018 -0.014,0.01094 -0.021,0.02826 -0.0299,0.07397 -0.2244,0.13474 -0.43248,0.13474 h -0.37859 l 0.0375,-0.96881 0.0375,-0.968153 h -0.26882 z m 2.2347,0 c -0.23362,0 -0.2445,0.03744 -0.2445,0.86562 0,0.786711 0.0255,0.891093 0.27737,1.142985 0.23606,0.236068 0.34305,0.26843 0.72233,0.217555 0.59165,-0.07935 0.72234,-0.289239 0.72234,-1.162046 0,-0.398089 0.0248,-0.789973 0.0559,-0.870877 0.0338,-0.08813 -0.0201,-0.153039 -0.13474,-0.161688 -0.1717,-0.01293 -0.18709,0.07477 -0.15183,0.85116 0.0426,0.938938 -0.0136,1.049229 -0.53633,1.052281 -0.45109,0.0027 -0.55303,-0.22319 -0.50741,-1.126553 0.0394,-0.780824 0.0327,-0.808437 -0.20309,-0.808437 z m 4.8664,0 v 1.110122 1.109465 l 0.2938,-0.01446 c 0.28984,-0.01365 0.5696,-0.16103 0.30563,-0.16103 -0.10258,0 -0.12672,-0.250616 -0.0986,-1.022047 l 0.0375,-1.022049 h -0.26948 z m 4.39514,0 c -0.22126,0 -0.23642,0.02937 -0.14263,0.276052 0.14809,0.389492 0.13196,1.591381 -0.0237,1.747013 -0.10043,0.100415 -0.0709,0.128635 0.13408,0.128823 0.25873,2.38e-4 0.26286,-0.01365 0.22873,-0.779517 -0.0393,-0.882334 -0.11082,-0.901901 0.83802,0.220184 0.31299,0.370149 0.60716,0.63521 0.65726,0.592853 l 6.6e-4,-6.56e-4 c 0.0466,-0.04758 0.10024,-0.558644 0.11896,-1.135755 0.0321,-0.990187 0.0217,-1.049225 -0.18206,-1.048997 -0.18877,2.11e-4 -0.21134,0.05857 -0.17878,0.467973 0.081,1.017978 0.021,1.04264 -0.61914,0.252391 -0.41397,-0.511006 -0.65588,-0.720364 -0.83144,-0.720364 z m 2.56728,0 0.0973,0.403561 c 0.0533,0.221915 0.0925,0.693934 0.0874,1.048996 -0.005,0.355064 -0.005,0.681891 -6.6e-4,0.72628 v 6.57e-4 l 6.6e-4,6.56e-4 c 2.7e-4,6.45e-4 5.3e-4,0.0017 6.5e-4,0.002 0.0218,0.04248 0.3087,0.07756 0.652671,0.07756 0.62963,0 0.64609,-0.0071 0.64609,-0.290512 0,-0.225953 -0.029,-0.262102 -0.12948,-0.161687 -0.071,0.07101 -0.28846,0.129482 -0.48375,0.129482 -0.33649,0 -0.35558,-0.02085 -0.35558,-0.391073 0,-0.386377 0.004,-0.389731 0.37661,-0.329291 0.35063,0.0569 0.37662,0.04138 0.37662,-0.222813 0,-0.220689 -0.0284,-0.254886 -0.12883,-0.154458 -0.071,0.07101 -0.24022,0.128825 -0.37595,0.128825 -0.1976,0 -0.2379,-0.04807 -0.20178,-0.241874 0.0248,-0.133149 0.0488,-0.30264 0.0532,-0.376613 0.0102,-0.171496 0.46229,-0.175302 0.63229,-0.0052 0.10041,0.100428 0.12882,0.07631 0.12882,-0.107792 0,-0.219207 -0.051,-0.236616 -0.68816,-0.236616 z m 2.989901,0 c -1.0095,0 -1.16081,0.977385 -0.2031,1.311246 0.34297,0.119557 0.47394,0.37504 0.29972,0.584966 -0.17797,0.214437 -0.50404,0.181479 -0.65924,-0.06704 -0.0739,-0.118349 -0.17131,-0.215583 -0.21624,-0.215583 -0.13774,0 -0.0902,0.51558 0.0526,0.574451 h 6.5e-4 c 0.56298,0.226726 1.26393,-0.12364 1.26393,-0.632291 0,-0.285151 -0.33922,-0.69473 -0.57511,-0.69473 -0.0796,0 -0.22427,-0.08789 -0.3214,-0.195208 -0.33399,-0.369049 0.20927,-0.619303 0.59219,-0.272765 0.18595,0.168267 0.19652,0.162794 0.19652,-0.107131 0,-0.261548 -0.0365,-0.285911 -0.4305,-0.285911 z m 7.981177,0 c -0.18022,0 -0.200869,0.06056 -0.1584,0.457457 0.027,0.251504 0.004,0.735676 -0.0513,1.075944 l -0.0992,0.618487 0.279329,-0.002 c 0.20128,-0.0012 0.23828,-0.02765 0.13147,-0.0953 -0.11422,-0.07237 -0.1302,-0.239376 -0.0691,-0.724964 l 0.0795,-0.630318 0.325348,0.72628 c 0.17476,0.390083 0.34979,0.710796 0.39501,0.725621 3.5e-4,7.9e-5 0.001,6.17e-4 0.001,6.57e-4 h 6.6e-4 6.5e-4 6.6e-4 l 6.6e-4,-6.57e-4 c 0.046,-0.0158 0.240967,-0.360486 0.438387,-0.779518 l 0.36741,-0.780174 0.0355,0.689472 c 0.0239,0.464951 -0.009,0.716859 -0.0979,0.772287 -0.0811,0.05013 0.0114,0.09629 0.23662,0.118311 0.46315,0.04527 0.46517,0.04364 0.32469,-0.218868 -0.064,-0.119532 -0.11638,-0.607839 -0.11638,-1.085146 0,-0.759888 -0.0238,-0.867591 -0.19126,-0.867591 -0.13241,0 -0.28531,0.215152 -0.49624,0.69933 -0.16495,0.378642 -0.33878,0.68971 -0.3891,0.699332 h -6.6e-4 -6.6e-4 -6.5e-4 -6.6e-4 c -0.0506,-0.0097 -0.234257,-0.32069 -0.411437,-0.699332 -0.236828,-0.506079 -0.384768,-0.69933 -0.535018,-0.69933 z m 3.208754,0 c -0.26853,-1.47e-4 -0.26881,0.0015 -0.26881,1.048997 0,0.828387 0.0342,1.064209 0.16168,1.121953 0.34831,0.157836 0.37662,0.08003 0.37662,-1.04111 v -1.12984 z m 3.00372,0 c -0.26368,0 -0.26622,0.01017 -0.22544,0.780174 0.0216,0.407906 0.006,0.66167 -0.0355,0.681585 -3.6e-4,1.3e-4 -0.001,5.58e-4 -0.003,6.58e-4 h -6.7e-4 -6.6e-4 c -0.005,5.9e-5 -0.0114,-0.0032 -0.0177,-0.0099 -0.0538,-0.05918 -0.35404,-0.410317 -0.66711,-0.780174 -0.82529,-0.974955 -0.92478,-0.928157 -0.92478,0.437082 v 1.110122 l 0.26881,-0.05192 c 0.14795,-0.02835 0.20872,-0.07189 0.13475,-0.09661 -0.14638,-0.04893 -0.19891,-1.431098 -0.0539,-1.41838 h 6.6e-4 c 3.9e-4,1.52e-4 0.001,6.21e-4 0.001,6.58e-4 0.0523,0.01478 0.37479,0.370624 0.7243,0.80055 0.3523,0.433337 0.67723,0.791223 0.72563,0.799892 h 6.6e-4 c 3.4e-4,2.6e-5 0.001,3.1e-5 0.001,0 3.4e-4,-8.4e-5 10e-4,-5.19e-4 0.003,-6.57e-4 3.3e-4,-1.86e-4 10e-4,-0.0011 10e-4,-0.0013 0.0416,-0.03615 0.0755,-0.468312 0.0755,-0.993129 0,-0.63481 0.0469,-1.047931 0.12881,-1.12984 0.10048,-0.100416 0.0697,-0.128825 -0.13802,-0.128825 z m 1.19293,0 c -0.26898,0 -0.26948,8.8e-5 -0.26948,1.075944 0,1.075855 5e-4,1.075288 0.26948,1.075288 0.26899,0 0.26882,5.67e-4 0.26882,-1.075288 0,-1.075856 1.7e-4,-1.075944 -0.26882,-1.075944 z m 1.82785,0 c -0.48888,0 -0.78273,0.286724 -0.7335,0.71642 0.0265,0.230885 0.13977,0.359341 0.46535,0.527784 0.44834,0.231961 0.60922,0.546758 0.36017,0.704589 -0.23203,0.147043 -0.39054,0.111722 -0.62506,-0.139997 l -0.21886,-0.235268 v 0.279994 c 0,0.154171 0.0602,0.304699 0.13408,0.33455 0.27463,0.110819 0.68574,0.06593 0.92345,-0.100556 0.19236,-0.134734 0.23805,-0.255322 0.21231,-0.561963 -0.0276,-0.329381 -0.10048,-0.428009 -0.46338,-0.630975 -0.49396,-0.276223 -0.57649,-0.604716 -0.16694,-0.662523 0.1537,-0.0217 0.316,0.03494 0.39041,0.136711 0.11486,0.157003 0.1322,0.153213 0.18206,-0.03747 0.0739,-0.282795 0.006,-0.331263 -0.46009,-0.331262 z m 2.09931,0 c -0.8441,0 -0.91492,0.01679 -0.91492,0.216241 0,0.184055 0.03,0.197583 0.20113,0.0907 0.41144,-0.256946 0.55211,-0.05367 0.55211,0.797921 0,0.470067 -0.0519,0.841265 -0.12883,0.918201 -0.10048,0.100428 -0.0347,0.126896 0.29577,0.120282 0.17338,-0.0034 0.29103,-0.02032 0.30957,-0.04075 l 6.6e-4,-6.58e-4 v -6.56e-4 -6.57e-4 l 6.5e-4,-6.58e-4 v -6.57e-4 -6.57e-4 -6.57e-4 -6.58e-4 -6.57e-4 -6.57e-4 -6.57e-4 l -6.5e-4,-6.58e-4 c -0.003,-0.0043 -0.009,-0.0094 -0.0197,-0.0138 -0.0926,-0.03738 -0.13474,-0.336467 -0.13474,-0.960266 0,-0.894271 0.004,-0.905712 0.26947,-0.905712 0.14795,0 0.26883,0.04861 0.26883,0.107793 0,0.05918 0.0486,0.107792 0.10773,0.107792 0.0591,0 0.10709,-0.09724 0.10709,-0.215583 0,-0.198312 -0.0715,-0.214926 -0.91426,-0.214926 z m 2.08222,0 c -0.5596,0 -0.637,0.02273 -0.52713,0.155114 0.0847,0.102006 0.11625,0.471544 0.0933,1.076602 l -0.0349,0.920829 0.32273,-0.0092 c 0.12287,-0.0034 0.20213,-0.01889 0.21427,-0.03747 v -6.58e-4 l 6.6e-4,-6.57e-4 6.5e-4,-6.56e-4 v -6.58e-4 -6.58e-4 -6.57e-4 c -7.4e-4,-0.0065 -0.0102,-0.01469 -0.027,-0.02169 -0.15799,-0.06375 -0.18395,-0.789376 -0.0282,-0.789376 0.0584,0 0.23206,0.191262 0.38647,0.424594 0.15441,0.23333 0.38515,0.441513 0.51267,0.462715 0.26584,0.04421 0.50407,-0.04296 0.30168,-0.110425 -0.074,-0.02469 -0.25411,-0.234474 -0.40027,-0.466002 l -0.26553,-0.421307 0.23332,-0.315488 c 0.22214,-0.300438 0.22444,-0.328946 0.0533,-0.590224 -0.16035,-0.244747 -0.25115,-0.274738 -0.83603,-0.274738 z m 5.01888,0 c -0.84282,0 -0.91426,0.01661 -0.91426,0.214926 0,0.118349 0.048,0.215584 0.1071,0.215584 0.0591,0 0.10772,-0.04861 0.10772,-0.107793 0,-0.05917 0.12083,-0.107792 0.26883,-0.107792 0.26556,0 0.26883,0.01145 0.26883,0.905712 0,0.623798 -0.0415,0.922885 -0.13409,0.960266 -0.0102,0.0042 -0.0165,0.0079 -0.0191,0.01183 l -6.7e-4,6.56e-4 v 6.58e-4 l -6.6e-4,6.58e-4 v 6.57e-4 6.58e-4 6.56e-4 6.58e-4 6.57e-4 6.58e-4 l 6.6e-4,6.56e-4 v 6.58e-4 l 6.7e-4,6.57e-4 6.4e-4,6.58e-4 c 0.0193,0.01917 0.13858,0.03353 0.31419,0.03353 0.17561,0 0.29549,-0.01503 0.31483,-0.03418 l 6.4e-4,-6.58e-4 v -6.57e-4 l 6.7e-4,-6.56e-4 v -6.58e-4 -6.58e-4 -6.57e-4 -6.56e-4 -6.58e-4 -6.58e-4 l -6.7e-4,-6.57e-4 v -6.58e-4 c -0.003,-0.0039 -0.009,-0.0083 -0.0197,-0.01246 -0.0926,-0.03738 -0.13408,-0.336468 -0.13408,-0.960266 0,-0.873234 0.009,-0.905712 0.24714,-0.905712 0.1361,0 0.30559,0.05847 0.3766,0.129482 0.10036,0.100428 0.12883,0.07631 0.12883,-0.107792 0,-0.225262 -0.0438,-0.236616 -0.91425,-0.236616 z m 1.61425,0 v 1.075944 l -6.6e-4,1.075288 0.32338,-0.0079 c 0.12286,-0.0032 0.20149,-0.01894 0.2136,-0.03747 v -6.57e-4 l 6.6e-4,-6.58e-4 6.6e-4,-6.56e-4 v -6.58e-4 -6.57e-4 -6.58e-4 c -7.5e-4,-0.0065 -0.0102,-0.01403 -0.027,-0.02104 -0.18105,-0.07307 -0.1857,-1.771686 -0.005,-1.952079 0.10048,-0.100429 0.0582,-0.128752 -0.18863,-0.128825 z m 1.15284,0 0.37202,0.887309 c 0.20452,0.488211 0.41771,0.999271 0.47323,1.135756 0.13772,0.338593 0.2563,0.231923 0.4706,-0.42328 0.0998,-0.305425 0.29523,-0.790669 0.4338,-1.077916 0.23101,-0.478882 0.23588,-0.521869 0.0598,-0.521869 -0.12325,0 -0.21343,0.105808 -0.25173,0.29577 -0.0328,0.162738 -0.15224,0.51345 -0.26555,0.779518 l -0.20638,0.483747 -0.24187,-0.537644 c -0.13305,-0.295656 -0.24325,-0.646369 -0.24516,-0.779517 -0.003,-0.191849 -0.0652,-0.241874 -0.30103,-0.241874 z m 3.41844,0 c -0.0492,0.01282 -0.26891,0.427084 -0.49361,0.931346 -0.22825,0.512266 -0.47983,0.996438 -0.55933,1.075944 -0.12096,0.121007 -0.099,0.144598 0.13803,0.144598 0.15566,0 0.26209,-0.03645 0.23595,-0.08084 -0.0262,-0.04439 -0.006,-0.189569 0.044,-0.322717 0.0742,-0.196339 0.17378,-0.241874 0.52844,-0.241874 0.35468,0 0.45491,0.04553 0.52911,0.241874 0.0504,0.133148 0.0702,0.278341 0.044,0.322717 -0.0262,0.04439 0.10621,0.08084 0.29446,0.08084 0.25978,0 0.31605,-0.03268 0.23399,-0.134739 -0.0595,-0.07397 -0.28895,-0.558143 -0.51004,-1.075944 -0.21938,-0.513754 -0.43496,-0.934657 -0.48178,-0.941205 h -6.6e-4 c -3.4e-4,0 -0.001,2.6e-5 -0.003,0 z m 2.47592,0 c -0.4225,0 -0.86102,0.27734 -0.86102,0.544874 0,0.258419 0.24684,0.542607 0.64938,0.747969 0.51311,0.261768 0.57942,0.601367 0.13934,0.711818 -0.22227,0.05579 -0.33122,0.01681 -0.48374,-0.171546 -0.10837,-0.133832 -0.19719,-0.193009 -0.19719,-0.132111 0,0.0609 -0.0279,0.183017 -0.0618,0.271451 -0.0379,0.09869 0.0144,0.182204 0.13474,0.21624 0.28835,0.08149 0.89118,-0.007 1.072,-0.157086 0.0979,-0.08127 0.14501,-0.274725 0.1249,-0.513324 -0.0271,-0.320759 -0.10239,-0.422243 -0.46271,-0.623746 -0.49396,-0.276224 -0.57716,-0.604717 -0.16761,-0.662524 0.16164,-0.02282 0.3172,0.03699 0.40357,0.155114 0.0591,0.08096 0.0937,0.122623 0.11371,0.118311 3.3e-4,-9.9e-5 0.001,-5.31e-4 0.003,-6.57e-4 0.0207,-0.01005 0.0249,-0.07914 0.0249,-0.215584 0,-0.266085 -0.035,-0.289196 -0.43051,-0.289196 z m 5.64854,0 v 1.12984 1.12984 h 0.67238 c 0.66394,0 0.67289,-0.0043 0.6645,-0.296427 -0.005,-0.162791 -0.0332,-0.235003 -0.0631,-0.16103 -0.0299,0.07397 -0.21977,0.134083 -0.42196,0.134083 -0.35059,0 -0.36741,-0.01764 -0.36741,-0.388445 0,-0.370787 0.0149,-0.386955 0.32272,-0.341778 0.28896,0.0424 0.3218,0.01881 0.31417,-0.229386 -0.003,-0.101623 -0.0186,-0.165017 -0.0361,-0.173518 h -6.4e-4 -6.7e-4 -6.6e-4 c -0.008,9.03e-4 -0.0163,0.01094 -0.0243,0.03089 -0.0299,0.07397 -0.17182,0.134082 -0.31483,0.134082 -0.22543,0 -0.25962,-0.05013 -0.25962,-0.376613 0,-0.346693 0.0256,-0.376613 0.32272,-0.376613 0.17753,0 0.32271,0.04861 0.32271,0.107792 0,0.05918 0.0486,0.107792 0.10786,0.107792 0.0591,0 0.10709,-0.09723 0.10709,-0.215583 0,-0.192232 -0.0716,-0.214926 -0.67238,-0.214926 z m 5.75568,0 c -3.4e-4,1.07e-4 -0.001,4.99e-4 -0.001,6.58e-4 -0.0495,0.0266 -0.28255,0.464026 -0.52911,0.994442 -0.25442,0.547389 -0.51755,1.031157 -0.5843,1.07463 -0.0673,0.04384 0.0131,0.07928 0.18075,0.08019 0.16622,9.03e-4 0.28116,-0.03448 0.25502,-0.07887 -0.0261,-0.04439 -0.006,-0.189568 0.044,-0.322717 0.0736,-0.194965 0.17436,-0.241874 0.51793,-0.241874 0.34625,0 0.44252,0.04537 0.50937,0.241874 0.0453,0.133149 0.0721,0.278341 0.0604,0.322717 -0.0114,0.04439 0.13005,0.08084 0.31483,0.08084 0.25496,0 0.30983,-0.03267 0.22741,-0.134738 -0.0598,-0.07397 -0.29157,-0.558144 -0.51529,-1.075944 -0.21849,-0.505664 -0.42874,-0.921331 -0.47455,-0.940548 h -6.5e-4 v -6.58e-4 h -6.6e-4 -6.7e-4 -6.4e-4 -6.7e-4 -6.6e-4 z m 1.77594,0 v 1.133784 1.134441 l 0.64543,-0.03156 c 0.5972,-0.02899 0.64827,-0.05154 0.68158,-0.30037 0.0291,-0.21742 0.0102,-0.24279 -0.10188,-0.134082 -0.0761,0.07397 -0.29832,0.134082 -0.49361,0.134082 h -0.35492 v -0.838671 c 0,-0.509282 0.0511,-0.890462 0.12948,-0.96881 0.10048,-0.100415 0.0582,-0.128824 -0.18863,-0.128824 z m 2.04475,0 0.0368,1.022049 c 0.0263,0.723005 0.001,1.022048 -0.0867,1.022048 -0.0683,0 -0.0982,0.04247 -0.0664,0.09399 0.0318,0.05151 0.37325,0.10006 0.75914,0.108454 0.69999,0.01517 0.70194,0.01452 0.69342,-0.281967 -0.003,-0.111456 -0.0186,-0.181224 -0.0368,-0.190608 h -6.6e-4 c -3.2e-4,-9e-5 -0.001,-6.04e-4 -0.003,-6.57e-4 h -6.4e-4 l -6.7e-4,6.57e-4 h -6.6e-4 -6.6e-4 -6.5e-4 c -0.006,0.0027 -0.0139,0.01208 -0.0204,0.02826 -0.0299,0.07397 -0.21912,0.134082 -0.42131,0.134082 -0.3506,0 -0.36807,-0.01764 -0.36807,-0.388445 0,-0.370786 0.0149,-0.386298 0.32273,-0.341121 0.28598,0.04197 0.32271,0.01609 0.32271,-0.224784 0,-0.211452 -0.0284,-0.243055 -0.12883,-0.142627 -0.071,0.07101 -0.21619,0.128824 -0.32271,0.128824 -0.14961,0 -0.1939,-0.08571 -0.1939,-0.376613 0,-0.327526 0.0345,-0.376614 0.26291,-0.376614 0.14445,0 0.29279,0.04962 0.32995,0.109764 0.0993,0.160777 0.26873,0.01779 0.19783,-0.166945 -0.0434,-0.113033 -0.23327,-0.157686 -0.66778,-0.157745 z m 2.87159,0 c -0.96729,0 -1.12424,0.837756 -0.24122,1.288241 0.44782,0.228458 0.53264,0.40134 0.30695,0.627031 -0.19516,0.195169 -0.48653,0.154939 -0.65859,-0.0907 l -0.15379,-0.219526 -0.0572,0.220184 c -0.0361,0.137884 0.009,0.258101 0.12096,0.323374 0.43135,0.251792 1.0364,0.05746 1.20543,-0.38713 0.13892,-0.365385 -0.0261,-0.643332 -0.52056,-0.876134 -0.26254,-0.123615 -0.39896,-0.260221 -0.39896,-0.400276 0,-0.281227 0.33742,-0.338338 0.59942,-0.101217 0.19956,0.180611 0.20704,0.177241 0.20704,-0.09793 0,-0.259157 -0.0376,-0.285911 -0.40947,-0.285911 z m 2.25443,0 0.37529,0.618487 c 0.30178,0.497403 0.36918,0.707932 0.34179,1.073315 -0.0251,0.334231 0.009,0.466246 0.1275,0.498208 0.31161,0.08363 0.36915,-0.0033 0.33783,-0.512667 -0.027,-0.437984 0.0246,-0.599042 0.35427,-1.095662 0.19777,-0.297856 0.34413,-0.54611 0.34309,-0.579052 v -6.57e-4 -6.57e-4 h -6.5e-4 v -6.57e-4 h -6.6e-4 v -6.58e-4 h -6.6e-4 -6.6e-4 c -0.15808,0 -0.38667,0.149817 -0.38713,0.253705 -2.9e-4,0.06764 -0.11319,0.263498 -0.25107,0.435767 l -0.25042,0.313515 -0.20637,-0.500836 c -0.17279,-0.420046 -0.25283,-0.501155 -0.49427,-0.501493 z m 3.99355,0 c -0.23677,1.03e-4 -0.24104,0.02151 -0.21559,1.190308 0.0228,1.043143 0.003,1.203196 -0.16431,1.297443 -0.10481,0.05914 -0.16259,0.153315 -0.12817,0.209011 0.0816,0.132161 0.44344,-0.06041 0.57445,-0.305628 0.0546,-0.102209 0.11599,-0.681617 0.13671,-1.288241 0.037,-1.081975 0.0334,-1.102996 -0.20309,-1.102893 z m 1.31715,0 c -0.20254,0 -0.21503,0.058 -0.18338,0.887309 0.0409,1.073773 0.059,1.136233 0.36873,1.260636 0.35945,0.144367 0.59372,0.13119 0.9491,-0.05258 0.17459,-0.09028 0.3221,-0.175357 0.32732,-0.188636 0.005,-0.01328 0.0413,-0.447722 0.0809,-0.965522 0.0663,-0.86766 0.0565,-0.941206 -0.12554,-0.941206 -0.17805,0 -0.19025,0.06597 -0.12617,0.672383 0.0415,0.393027 0.0243,0.794349 -0.0415,0.965524 -0.14905,0.388155 -0.58853,0.503007 -0.88797,0.232015 -0.19423,-0.17578 -0.21603,-0.301696 -0.18272,-1.035194 0.0354,-0.777705 0.0231,-0.834728 -0.17878,-0.834728 z m 2.36682,0 v 1.075944 1.075944 h 0.27407 c 0.24924,0 0.27065,-0.03418 0.23136,-0.370698 -0.0729,-0.624086 0.0314,-0.661789 0.38911,-0.141969 0.19998,0.290669 0.44367,0.513766 0.58496,0.536329 0.35353,0.05646 0.36348,0.0071 0.067,-0.320746 -0.56684,-0.626896 -0.58158,-0.664717 -0.32667,-0.843272 0.30046,-0.210445 0.31493,-0.744925 0.0243,-0.900454 -0.11446,-0.06125 -0.44129,-0.111074 -0.72627,-0.111074 z m 3.76547,0 v 1.12984 1.12984 h 0.46074 c 1.34017,0 2.08509,-1.184172 1.22712,-1.950765 -0.30265,-0.270411 -0.43007,-0.308915 -1.01679,-0.308915 z m 3.01291,0 c -0.2008,4e-6 -0.21493,0.07182 -0.21493,1.072001 0,0.988017 0.0165,1.074508 0.21493,1.108149 0.27854,0.04724 0.43669,-0.03205 0.26947,-0.135396 -0.0913,-0.05646 -0.11943,-0.374241 -0.0927,-1.062799 0.0359,-0.923007 0.0254,-0.981959 -0.1768,-0.981955 z m 7.0104,0 c -0.92489,0 -1.09767,0.687416 -0.30629,1.217913 0.34219,0.229385 0.45417,0.371024 0.42985,0.541588 -0.0462,0.323978 -0.44372,0.354265 -0.72233,0.05521 l -0.22479,-0.241216 v 0.279995 c 0,0.15417 0.0602,0.304698 0.13408,0.334549 0.46632,0.188166 1.13013,-0.05334 1.22909,-0.447598 0.0874,-0.348102 -0.0519,-0.556966 -0.56657,-0.848531 -0.45831,-0.259659 -0.52196,-0.4277 -0.23201,-0.6106 0.13922,-0.08781 0.24298,-0.08393 0.4016,0.01512 0.28742,0.179501 0.32468,0.170143 0.32468,-0.0815 0,-0.182171 -0.0716,-0.214926 -0.46731,-0.214926 z m -95.539498,0.0066 c -0.08061,-4.24e-4 -0.177139,0.0067 -0.299056,0.0184 -0.878453,0.08441 -1.273758,0.63024 -1.048339,1.446642 0.06478,0.234584 0.226751,0.444679 0.44497,0.577737 0.413088,0.251878 0.731882,0.264696 1.153501,0.04666 0.68679,-0.355153 0.8457,-1.263471 0.314172,-1.794994 -0.223398,-0.22345 -0.323406,-0.293191 -0.565248,-0.294462 z m 7.152366,0.01314 c -0.67746,0.05366 -1.09435,0.477623 -1.09435,1.143643 0,0.353845 0.34557,0.852607 0.68685,0.9905 0.49477,0.199911 1.24946,0.03457 1.24946,-0.27408 0,-0.154355 -0.0223,-0.155197 -0.23925,-0.0033 -0.54676,0.382965 -1.1357,0.06535 -1.23368,-0.665153 -0.0884,-0.659249 0.15695,-0.996415 0.72562,-0.996415 0.2841,0 0.4528,0.05537 0.4936,0.161687 0.096,0.250261 0.25696,0.190052 0.21624,-0.08084 -0.0302,-0.201225 -0.11422,-0.247943 -0.4982,-0.276051 -0.10694,-0.0079 -0.20951,-0.0076 -0.30629,0 z m 55.310222,0 c -0.6846,0.05337 -1.10092,0.474816 -1.10092,1.143643 0,0.353845 0.34557,0.852607 0.68684,0.9905 0.31158,0.125891 0.75091,0.126247 1.08121,6.57e-4 0.23316,-0.08865 0.27605,-0.17246 0.27605,-0.5383 0,-0.378836 -0.0309,-0.432481 -0.24516,-0.432481 -0.22087,0 -0.24077,0.04177 -0.20375,0.429852 0.0401,0.419696 0.0328,0.430508 -0.29774,0.430508 -0.71665,0 -1.14012,-0.961558 -0.7,-1.589926 0.20909,-0.298504 0.84884,-0.326987 1.1535,-0.05127 0.10023,0.09063 0.15154,0.135323 0.17353,0.124887 0.0207,-0.01196 0.014,-0.07755 -0.004,-0.205068 -0.0329,-0.233553 -0.0997,-0.273606 -0.51004,-0.302999 -0.10824,-0.0078 -0.21177,-0.0076 -0.30958,0 z m 28.13032,0 c -0.22887,0.01107 -0.4505,0.05855 -0.59022,0.130796 -0.69945,0.361697 -0.71763,1.402691 -0.0322,1.863349 0.56236,0.377949 1.42157,0.278763 1.40129,-0.161687 -0.003,-0.05493 -0.0102,-0.08763 -0.0224,-0.09596 l -6.6e-4,-6.57e-4 v -6.57e-4 h -6.7e-4 -6.4e-4 c -5.5e-4,-1.78e-4 -0.003,-5.3e-4 -0.004,-6.58e-4 -4.1e-4,-3.1e-5 -0.001,-1.2e-5 -0.001,0 -0.009,0.0015 -0.0214,0.01631 -0.0328,0.04469 -0.0753,0.185757 -0.7271,0.286817 -0.97932,0.151829 -0.48908,-0.261746 -0.5832,-1.387427 -0.13606,-1.626733 0.31076,-0.16631 0.76858,-0.130293 0.99971,0.07887 0.10022,0.09064 0.15218,0.135322 0.17417,0.124886 0.0207,-0.01196 0.014,-0.07755 -0.004,-0.205067 -0.0335,-0.237306 -0.0972,-0.272927 -0.54355,-0.301684 -0.0752,-0.0048 -0.15179,-0.005 -0.22808,-0.0013 z m -47.75759,0.0046 c -0.0524,0.01746 -0.29567,0.467164 -0.54027,0.999045 -0.2446,0.531879 -0.49271,0.998814 -0.55145,1.037822 -0.0588,0.03901 0.0102,0.09338 0.15249,0.120283 0.14274,0.0269 0.27727,0.05508 0.29839,0.0631 10e-4,3.78e-4 10e-4,5.48e-4 0.003,6.58e-4 l 6.6e-4,6.57e-4 6.6e-4,-6.57e-4 c 1.3e-4,-2.4e-5 0.001,-1.6e-5 0.003,0 h 6.5e-4 l 6.6e-4,-6.58e-4 6.6e-4,-6.56e-4 h 6.5e-4 v -6.58e-4 c 0.009,-0.01221 7.4e-4,-0.05936 -0.0216,-0.118311 -0.0281,-0.07397 -0.0102,-0.243464 0.0388,-0.376613 0.073,-0.196491 0.17217,-0.241873 0.52648,-0.241873 0.39896,0 0.44249,0.02771 0.50149,0.322717 0.0553,0.276519 0.11218,0.322144 0.40027,0.320745 0.18494,-9.15e-4 0.28592,-0.03669 0.22414,-0.08019 -0.0618,-0.04347 -0.2989,-0.528572 -0.52714,-1.077917 -0.22644,-0.54505 -0.45466,-0.977824 -0.50938,-0.967495 z m 50.25258,0 c -0.004,1.89e-4 -0.008,6.6e-4 -0.0114,0.002 -0.06,0.02001 -0.29294,0.445984 -0.51728,0.946462 -0.22432,0.500479 -0.45924,0.967136 -0.52187,1.037166 -0.0836,0.09336 -0.0495,0.140216 0.12618,0.174176 0.1318,0.02548 0.25689,0.05245 0.27802,0.06047 h 6.6e-4 v 6.58e-4 h 6.6e-4 6.5e-4 6.6e-4 6.6e-4 6.5e-4 c 2.4e-4,-9.4e-5 0.001,-5.28e-4 0.003,-6.58e-4 l 6.7e-4,-6.56e-4 6.6e-4,-6.58e-4 c 0.008,-0.01409 -0.005,-0.07608 -0.0342,-0.153143 -0.12693,-0.330695 0.12801,-0.583652 0.58694,-0.583652 0.3909,0 0.43482,0.0288 0.49361,0.322717 0.0544,0.272494 0.11485,0.322717 0.38712,0.322717 0.28106,0 0.30442,-0.02151 0.18207,-0.168916 -0.12841,-0.154711 -0.48619,-0.944196 -0.76637,-1.691802 -0.0581,-0.155088 -0.149,-0.269659 -0.20967,-0.266851 z m -71.158221,0.04469 c -0.0622,0.01619 -0.28089,0.4117 -0.49558,0.899141 -0.22154,0.503005 -0.45733,0.975023 -0.52384,1.048996 -0.0936,0.104104 -0.0574,0.134739 0.15906,0.134739 0.15376,0 0.25815,-0.03645 0.23201,-0.08084 -0.0261,-0.04439 -0.006,-0.189568 0.044,-0.322717 0.17667,-0.467463 1.13754,-0.226327 1.05557,0.264878 -0.008,0.04678 -0.009,0.12097 -0.001,0.164974 0.006,0.04406 0.12121,0.05965 0.25436,0.03484 0.13316,-0.02483 0.28061,-0.04879 0.32732,-0.05324 0.0467,-0.0045 0.0304,-0.06866 -0.0361,-0.142627 -0.0665,-0.07397 -0.29888,-0.538805 -0.51661,-1.033222 -0.21774,-0.494416 -0.43987,-0.906266 -0.49361,-0.914914 h -6.5e-4 -6.6e-4 c -4.3e-4,9e-6 -8e-4,-3.2e-5 -0.001,0 h -6.6e-4 -6.6e-4 c -4.8e-4,8e-5 -8.2e-4,-1.28e-4 -0.001,0 z m -10.868551,0.138027 c 0.20824,0 0.41634,0.08239 0.53173,0.247131 0.24392,0.348251 0.21722,1.109794 -0.048,1.375 -0.28785,0.287854 -0.59932,0.270903 -0.91951,-0.0493 -0.31182,-0.311817 -0.35848,-0.95185 -0.0966,-1.325706 0.11538,-0.164738 0.32414,-0.247131 0.53238,-0.247131 z m 13.072362,0.0079 h 0.30432 c 0.44232,0 0.77162,0.398115 0.77162,0.932003 0,0.278299 -0.0671,0.492668 -0.18798,0.598768 -0.22441,0.197069 -0.56677,0.299844 -0.75322,0.2261 -0.0918,-0.0363 -0.13474,-0.323719 -0.13474,-0.905054 z m 62.18982,0 c 0.47354,0 0.75323,0.333305 0.75323,0.897825 0,0.316262 -0.0635,0.525631 -0.19652,0.646091 -0.10824,0.09794 -0.36643,0.178121 -0.5738,0.178121 -0.32722,0 -0.37362,-0.03242 -0.35032,-0.242531 0.0148,-0.133149 0.0305,-0.520094 0.0355,-0.860362 0.009,-0.613707 0.0114,-0.619144 0.33191,-0.619144 z m -86.605275,0.002 c 0.320789,0.002 0.461407,0.09094 0.621116,0.39436 0.189057,0.359177 0.148002,0.835231 -0.09925,1.149558 -0.474578,0.603327 -1.175848,0.192408 -1.175848,-0.688815 0,-0.5647 0.224337,-0.857774 0.653978,-0.855103 z m 82.643275,0 c 0.003,-2.73e-4 0.005,-3.2e-5 0.008,0 0.25781,0.0032 0.42187,0.185793 0.38582,0.429194 -0.02,0.134899 -0.14478,0.284937 -0.27803,0.333892 -0.22531,0.08277 -0.24187,0.05951 -0.24187,-0.337835 0,-0.26222 0.0458,-0.416816 0.12617,-0.425251 z m -42.15769,0.0184 c 0.19393,-0.01208 0.43926,0.354065 0.33718,0.51924 -0.0992,0.160428 -0.46456,0.332512 -0.51266,0.241216 -0.11587,-0.219871 -0.0114,-0.725632 0.15708,-0.758485 0.006,-0.0012 0.0127,-0.0015 0.0184,-0.0019 z m -18.345581,0.356237 0.11574,0.303 c 0.0636,0.16659 0.11561,0.323935 0.11561,0.349665 v 6.58e-4 6.56e-4 c -1.4e-4,5.85e-4 -5.3e-4,0.0015 -6.6e-4,0.002 v 6.58e-4 c -2.1e-4,3.68e-4 -0.001,0.0017 -0.001,0.002 -0.0195,0.02251 -0.13248,0.04075 -0.26684,0.04075 -0.30649,0 -0.32119,-0.05477 -0.11244,-0.430508 z m 71.110881,0.01512 0.17681,0.342435 0.1768,0.341778 h -0.32535 c -0.36285,0 -0.38216,-0.04595 -0.17351,-0.422621 z m -27.96599,0.03878 c 6.6e-4,-1.37e-4 10e-4,6.9e-5 0.003,0 h 6.6e-4 6.5e-4 6.6e-4 c 0.0404,0 0.1282,0.145186 0.19521,0.322717 0.11765,0.311847 0.11142,0.322717 -0.18601,0.322717 -0.29532,0 -0.30316,-0.01306 -0.19521,-0.322717 0.06,-0.172026 0.14038,-0.314094 0.18207,-0.322717 z m -22.26882,0.01709 c 10e-4,-1.31e-4 0.004,-4.2e-5 0.005,0 0.0581,0.0014 0.11397,0.102413 0.19061,0.305628 0.11803,0.31261 0.11167,0.322717 -0.19193,0.322717 -0.35679,0 -0.35741,-9.28e-4 -0.18863,-0.371355 0.0758,-0.166274 0.1316,-0.25295 0.18469,-0.25699 z m 8.44126,0.03615 c 0.0214,-0.0023 0.0378,0.01611 0.05,0.05455 0.0281,0.08877 0.0946,0.246109 0.14788,0.349666 0.082,0.159407 0.0468,0.187978 -0.23201,0.187978 h -0.32928 l 0.18139,-0.349665 c 0.0825,-0.15899 0.1412,-0.238222 0.18207,-0.242531 z m 4.04021,1.141013 c -0.0441,-0.0014 -0.0955,0.0081 -0.15315,0.03023 -0.14676,0.05632 -0.15588,0.09937 -0.048,0.229385 0.10544,0.127125 0.10493,0.193272 -10e-4,0.321403 -0.0895,0.107831 -0.0941,0.161688 -0.0151,0.161688 0.065,0 0.19882,-0.123755 0.29775,-0.274737 0.16578,-0.253006 0.11104,-0.461821 -0.0802,-0.467974 z m -13.2209,5.26662 -23.751611,0.09661 c -14.503301,0.0041 -21.868545,0.04235 -21.868545,0.113707 0,0.07131 6.250854,0.107131 18.538184,0.107131 6.666231,0.0024 13.408362,-0.28005 20.041342,0.299713 0.79791,0.06436 1.42806,0.172181 1.63528,0.279337 0.18544,0.0959 0.47318,0.169108 0.63885,0.163003 0.12923,-0.0047 0.20159,-0.0078 0.21362,-0.01643 h 6.6e-4 l 6.5e-4,-6.58e-4 v -6.57e-4 l 6.6e-4,-6.56e-4 v -6.58e-4 -6.58e-4 h -6.6e-4 v -6.57e-4 -6.56e-4 h -6.5e-4 l -6.6e-4,-6.58e-4 c -0.0151,-0.01234 -0.10112,-0.03355 -0.26159,-0.07165 -0.19197,-0.04557 -0.41503,-0.13756 -0.49558,-0.20441 -0.0805,-0.06685 -0.33476,-0.190928 -0.56525,-0.275394 -0.13758,-0.05041 -0.22715,-0.08599 -0.2399,-0.109103 -1.7e-4,-3.68e-4 -5.4e-4,-9.54e-4 -6.7e-4,-0.0013 v -6.57e-4 -6.57e-4 l -6.4e-4,-6.57e-4 v -6.58e-4 l 6.4e-4,-6.57e-4 v -6.57e-4 -6.57e-4 -6.58e-4 l 6.7e-4,-6.57e-4 v -6.57e-4 -6.57e-4 h 6.6e-4 v -6.58e-4 l 6.5e-4,-6.57e-4 c 0.0312,-0.03392 0.31865,-0.03766 1.01351,-0.04206 1.2187,-0.0078 1.49825,0.05993 2.19527,0.531072 0.31573,0.213398 0.75322,0.338977 0.75322,0.21624 0,-0.04712 -0.22343,-0.190542 -0.49624,-0.318774 -0.25575,-0.120218 -0.44658,-0.241517 -0.44497,-0.280653 v -6.56e-4 -6.58e-4 -6.57e-4 l 6.6e-4,-6.58e-4 c 1.3e-4,-2.8e-4 5.1e-4,-0.0015 6.6e-4,-0.002 l 6.5e-4,-6.57e-4 v -6.58e-4 l 6.6e-4,-6.56e-4 c 0.0997,-0.09977 0.79777,0.255126 1.4841,0.75454 0.87467,0.636437 1.34991,0.686779 0.63756,0.0677 -0.2663,-0.231431 -0.72617,-0.542852 -1.02205,-0.692101 -0.30721,-0.154962 -0.43484,-0.221675 -0.42065,-0.251076 4.7e-4,-7.48e-4 0.003,-0.0025 0.003,-0.0033 0.0183,-0.01618 0.0933,-0.0196 0.21361,-0.02104 0.8538,-0.0103 1.98681,0.14009 1.8778,0.249103 -0.21305,0.213059 -0.12007,0.685269 0.20376,1.031907 0.17441,0.186706 0.31635,0.37186 0.31549,0.410792 v 6.58e-4 c 5e-5,3.01e-4 5.6e-4,0.0018 6.5e-4,0.0019 0.0305,0.08054 1.05858,0.448756 1.25012,0.445626 0.004,-6.3e-5 0.008,-5.27e-4 0.0102,-0.0013 l 6.5e-4,-6.57e-4 6.6e-4,-6.58e-4 h 6.6e-4 l 6.6e-4,-6.56e-4 v -6.58e-4 l 6.5e-4,-6.57e-4 6.6e-4,-6.58e-4 v -6.57e-4 -6.57e-4 c -8.1e-4,-0.02527 -0.12401,-0.109395 -0.30892,-0.207039 -0.43914,-0.231851 -0.6717,-0.526802 -0.7874,-0.997072 -0.0939,-0.381452 0.12877,-0.825526 0.41408,-0.825526 0.15881,0 0.1825,0.03374 0.096,0.138026 -0.063,0.07591 -0.16882,0.281864 -0.23465,0.457457 l -0.11969,0.318774 0.30827,-0.365439 c 0.29188,-0.34681 0.33616,-0.36305 0.83998,-0.306286 0.45812,0.05161 0.58598,0.123297 0.92478,0.51661 0.21625,0.25107 0.42187,0.601578 0.45745,0.779518 0.13591,0.679518 0.49426,0.821491 0.49426,0.195865 0,-0.480483 0.26621,-0.807995 0.44234,-0.544216 0.0567,0.08496 0.0776,0.328778 0.0467,0.541586 -0.0309,0.212808 -0.0259,0.417084 0.0114,0.454172 0.18424,0.184229 0.62521,-0.585919 0.53436,-0.933318 -0.0434,-0.165856 0.0483,-0.339135 0.33521,-0.632947 0.35197,-0.360433 0.45382,-0.404876 0.93004,-0.404876 0.34642,0 0.60336,0.06272 0.73088,0.17812 0.10823,0.09793 0.19718,0.125319 0.19718,0.06046 0,-0.06487 -0.0486,-0.148112 -0.10773,-0.184692 -0.21209,-0.131077 -0.10137,-0.268822 0.21558,-0.268822 0.35212,0 0.42427,0.147674 0.14788,0.302343 -0.15284,0.08553 -0.15781,0.149963 -0.0375,0.51464 0.11816,0.35799 0.14925,0.387054 0.22084,0.203751 0.0459,-0.117408 0.0871,-0.353199 0.0913,-0.523183 0.006,-0.262202 0.0319,-0.288463 0.16892,-0.174832 0.39034,0.323958 0.0235,0.912886 -0.83605,1.342793 l -0.56262,0.28131 0.42657,-0.0677 c 0.47205,-0.07551 0.90174,-0.342336 1.23632,-0.767687 0.27815,-0.353638 0.2773,-0.578603 -0.004,-0.93529 l -0.22281,-0.283938 1.3257,0.0052 1.3257,0.0052 -0.54553,0.290512 c -0.74657,0.397673 -1.59551,1.029605 -1.44861,1.078573 0.19071,0.06357 0.66461,-0.08462 0.60074,-0.187977 -0.0684,-0.110756 0.83021,-0.707121 1.32636,-0.88008 0.58497,-0.203917 0.51235,-0.0079 -0.10455,0.282625 l -0.58167,0.27408 0.41735,-0.05258 c 0.22926,-0.02906 0.50229,-0.130322 0.60666,-0.224786 0.4063,-0.367693 1.25873,-0.590881 2.25902,-0.590881 0.57307,0 0.9675,0.04405 0.9675,0.107792 0,0.05917 -0.0646,0.107793 -0.14328,0.107793 -0.19055,0 -1.24264,0.441297 -1.27247,0.521211 v 6.58e-4 6.56e-4 6.58e-4 l -6.6e-4,6.57e-4 6.6e-4,6.58e-4 v 6.57e-4 6.57e-4 6.57e-4 l 6.6e-4,6.58e-4 v 6.57e-4 l 6.5e-4,6.57e-4 c 1.4e-4,1.01e-4 10e-4,0.001 0.003,0.0013 0.004,0.0018 0.009,0.0031 0.017,0.0033 0.0908,0.0025 0.44845,-0.09458 0.79463,-0.216241 0.43042,-0.151279 1.03306,-0.242017 1.90608,-0.28591 6.76082,-0.418368 13.58594,-0.171688 20.37457,-0.246475 12.66034,0 19.09819,-0.0358 19.09819,-0.107131 0,-0.07137 -8.01717,-0.112842 -23.80552,-0.122915 -13.09296,-0.0084 -23.90209,-0.02443 -24.02044,-0.0355 z m 10.69962,0.425251 c 0.001,-1.85e-4 0.004,0 0.006,0 0.0296,0 0.0539,0.0243 0.0539,0.05389 0,0.0296 -0.0243,0.0539 -0.0539,0.0539 -0.0296,0 -0.0539,-0.02429 -0.0539,-0.0539 0,-0.02774 0.021,-0.05114 0.048,-0.05389 z m -10.73445,0.269479 c 10e-4,-1.31e-4 0.003,1.2e-5 0.004,0 0.071,-7.04e-4 0.13868,0.103888 0.13868,0.279339 0,0.117217 0.0979,0.404512 0.21755,0.638862 0.12668,0.248262 0.18605,0.379567 0.17024,0.401589 l -6.6e-4,6.57e-4 -6.6e-4,6.57e-4 -6.5e-4,6.58e-4 c -0.0226,0.01145 -0.11905,-0.08218 -0.29578,-0.273423 -0.33046,-0.357718 -0.43908,-0.635113 -0.35361,-0.904398 0.0296,-0.09348 0.0743,-0.138652 0.11829,-0.143283 10e-4,-1.22e-4 0.003,-5.27e-4 0.004,-6.58e-4 z m -1.76017,0.806466 c -0.12045,0 0.13014,0.252926 0.43445,0.438395 0.24351,0.148397 0.44312,0.187795 0.71446,0.139998 0.57218,-0.100797 0.64878,-0.255676 0.12617,-0.255676 -0.25045,0 -0.62952,-0.07227 -0.84196,-0.16103 -0.21245,-0.08877 -0.40727,-0.161687 -0.43313,-0.161687 z m 11.0138,0.0039 c -0.0768,0.0031 -0.21463,0.05388 -0.39633,0.157744 -0.14793,0.08457 -0.45354,0.155051 -0.67894,0.157086 -0.24502,0.0023 -0.38285,0.04742 -0.3431,0.111735 0.0366,0.05917 0.27879,0.107131 0.53831,0.107131 0.3484,0 0.55067,-0.06942 0.7736,-0.265536 0.20075,-0.17662 0.21872,-0.272709 0.10645,-0.268164 z m -4.4648,0.537643 -6.5e-4,6.57e-4 h -6.6e-4 c -0.0115,0.0085 -0.0144,0.05311 -0.0158,0.133425 -10e-4,0.105414 -0.0724,0.218566 -0.15709,0.251076 -0.0847,0.03251 -0.14776,0.143189 -0.14,0.245817 0.0139,0.183368 -0.56006,1.182677 -0.68355,1.190308 -3.1e-4,2e-5 -0.001,1.6e-5 -0.001,0 h -6.6e-4 -6.7e-4 -6.4e-4 c -0.0918,-0.02841 -0.63296,-1.088566 -0.63296,-1.24486 0,-0.153405 -0.37657,-0.491026 -0.45745,-0.410134 -0.10989,0.109904 0.34123,1.262686 0.70196,1.793678 0.18791,0.276588 0.3659,0.503404 0.39961,0.510039 h 6.6e-4 6.7e-4 6.4e-4 c 2.8e-4,-7.4e-5 0.001,-5.49e-4 0.003,-6.58e-4 0.0396,-0.01781 0.24584,-0.302639 0.46798,-0.647407 0.52656,-0.81726 0.75463,-1.450759 0.61059,-1.697717 -0.0474,-0.0814 -0.0744,-0.122903 -0.0894,-0.124225 h -6.5e-4 -6.6e-4 -6.6e-4 -6.5e-4 z m -4.05468,0.265535 0.17156,0.268823 c 0.10048,0.157384 0.39057,0.345444 0.69933,0.452855 0.29023,0.100962 0.60005,0.182148 0.68882,0.180749 0.0387,-6.17e-4 0.0661,-0.002 0.0755,-0.0085 5.4e-4,-4.55e-4 0.003,-0.0022 0.003,-0.0027 v -6.58e-4 l 6.5e-4,-6.58e-4 6.6e-4,-6.57e-4 v -6.56e-4 -6.58e-4 -6.58e-4 c -6e-5,-3.23e-4 -5.5e-4,-0.0015 -6.6e-4,-0.002 -0.0137,-0.03051 -0.2003,-0.11424 -0.7243,-0.340463 -0.20713,-0.08941 -0.4975,-0.248386 -0.64543,-0.353609 z m 5.93512,0.181406 c -0.0579,0.0052 -0.25241,0.102018 -0.65135,0.304314 -0.3486,0.176782 -0.69976,0.321403 -0.78018,0.321403 -0.0804,0 -0.14657,0.04525 -0.14657,0.100556 0,0.156378 1.24619,-0.303079 1.45847,-0.537643 0.086,-0.09506 0.13819,-0.157812 0.13803,-0.18075 -3e-5,-3.48e-4 6e-5,-9.84e-4 0,-0.0013 -1.7e-4,-3.9e-4 -9.3e-4,-0.002 -0.001,-0.0027 l -6.4e-4,-6.58e-4 c -0.003,-0.0024 -0.009,-0.0039 -0.0164,-0.0033 z m 49.36329,3.530174 c -0.0271,0.0028 -0.0486,0.02615 -0.0486,0.0539 0,0.0296 0.0243,0.05389 0.0539,0.05389 0.0296,0 0.0539,-0.02431 0.0539,-0.05389 0,-0.0296 -0.0243,-0.0539 -0.0539,-0.0539 -0.003,0 -0.004,-1.84e-4 -0.005,0 z"
     sodipodi:nodetypes="cscccccsssscccccsssccssssssccccccccsssccccssssccsssssssscccsccccccccccscccccsssssssscssccccsccccsssssscssssssccsccccsssssssssscssscsssssccsscssssscccsccccccccccccsssssscccccsscsssccsscccscssccscccscccccssssssssssssccsssssssssssssssccccccccccccccsssssssccccccccccccsssscccssssssssscccccccccccccsssccccccccccccsssssccccccccccccsccccsssssccccsccsssscsssssscsccsssssssssssssccsscccscssssccccccssssssscccsssscsssssscccccccccccccssscssscccssccccccccccsssssssssssccsssccccssssssccssssscccccccsscccccssssssssssssssssssscccssssssssccccssscsssssssssccssssssssscssscscssscsssscccssssssssscsscsssscccccscsssscssscsssscccccccccscsssssccscsssccccccccccccsssssscssssccsssssccsccccsssssscssssscssssscscssscscsssscssscccscccccscccccsccscccsssssscsssscssscccscsssssccsccscccccccccccccsssccccccccccccccccssssccccccccsssscccsssccscccccccccssssscccsssscccsssssssssscccccscccccsssccccsssccccccccccccccsccscccssssssssssccccsssssssssscscssscccccscsccccssscccccsscccccccssscccccccccscccsssscccccssssss" /><path
     style="fill:url(#linearGradient2);stroke-width:13.4688"
     d="m 71.96846,46.011636 93.53247,0.01138 c 2.89699,0.141524 4.53039,0.126112 0,0.364212 l -93.61964,-0.01138 c -2.528916,-0.254198 -2.469041,-0.254881 0.08716,-0.364213 z"
     id="path1"
     sodipodi:nodetypes="ccccc" /></svg>
